<svg width="1184" height="1075" viewBox="0 0 1184 1075" fill="none" xmlns="http://www.w3.org/2000/svg">
<path d="M568.5 29.1532C403.3 -3.24684 161.5 40.5001 74 126.653L130 400.153C197.5 348 452.5 266 546.5 307.5L568.5 29.1532Z" fill="url(#paint0_linear_19_28)"/>
<rect x="365.65" y="168.809" width="24" height="24" rx="2.5" transform="rotate(-3.54051 365.65 168.809)" stroke="#EEA8A8" stroke-width="5" stroke-linejoin="round"/>
<path d="M372.6 175.894L380.112 183.945L394.692 160.5" stroke="#A56884" stroke-width="4" stroke-linecap="round" stroke-linejoin="round"/>
<path d="M413.5 170.5C436.167 166.833 491.5 165.5 529 170.5M413.5 186C423.667 185 447 184 459.5 184" stroke="#F4BABA" stroke-width="4" stroke-linecap="round"/>
<rect x="368.65" y="216.632" width="24" height="24" rx="2.5" transform="rotate(-3.54051 368.65 216.632)" stroke="#EEA8A8" stroke-width="5" stroke-linejoin="round"/>
<path d="M416.5 218.322C439.167 214.656 494.5 213.322 532 218.322M416.5 233.822C426.667 232.822 447.5 230.322 460 230.322" stroke="#F4BABA" stroke-width="4" stroke-linecap="round"/>
<path d="M234.517 134.893C241.731 121.256 275.933 108.312 288.148 132.952C319.636 196.465 300.551 276.976 280.612 280.739C260.673 284.502 269.36 247.183 253.792 233.045C238.224 218.908 213.968 232.723 216.596 259.231C219.185 285.337 216.051 313.491 196.754 293.406C177.458 273.32 153.071 223.575 148.528 199.607C143.565 173.427 148.979 124.363 196.189 143.641C217.584 152.378 223.713 155.318 234.517 134.893Z" fill="url(#paint1_linear_19_28)"/>
<path d="M199.491 154.941C204.851 155.025 212.911 155.458 221.26 156.459C228.472 151.844 236.647 147.637 243.708 146.336C241.411 147.42 235.098 150.743 224.521 156.878C235.146 158.338 245.733 160.754 251.373 164.57C248.98 163.786 240.094 161.694 221.686 158.531C217.018 161.264 211.62 164.485 205.475 168.233C208.45 165.614 213.261 161.79 218.84 158.046C213.227 157.098 206.802 156.061 199.491 154.941Z" fill="#D8E4FC"/>
<path d="M343.893 146.5L334 56.4049C409.378 38.4854 502.344 49.6023 546 53.4185L538.933 142.518C491.445 135.748 389.12 142.352 343.893 146.5Z" fill="#FCEAEA"/>
<path d="M373 65.9697C403 62.4697 473 58.5697 513 70.9697M375.5 82.4697C398 80.4697 454 77.4697 480 82.4697M380.5 111.47C406.667 108.136 468.5 103.47 506.5 111.47M383 126.47C408.167 122.636 468.6 117.27 509 126.47" stroke="#F4BABA" stroke-width="4" stroke-linecap="round"/>
<circle cx="265" cy="135.5" r="5" stroke="#A56884" stroke-width="4"/>
<path d="M269.5 134.5L350.5 119.5" stroke="#A56884" stroke-width="4"/>
<circle cx="352.5" cy="118" r="5.5" fill="#A56884"/>
<path d="M638 146.5C696.747 156.549 724 197 726 214.5C795.5 218.5 794.5 331.5 772.5 397.5C754.9 450.3 694.833 494.167 667 509.5C670.667 509.833 679 531.3 683 614.5C688 718.5 506 851 459.5 950C422.3 1029.2 335.667 1037 297 1031C315.667 1007.67 341.8 948.8 297 900C241 839 183.779 817.816 199.5 683C216 541.5 370.5 563.5 380.5 459.5C385.016 412.533 377 341 421.5 260.5C466 180 562 133.5 638 146.5Z" fill="#340731"/>
<path d="M684.5 220.5C671.5 220.5 659.667 245.677 655.5 261C672.833 287.669 718.61 334.418 713.5 288C707.5 233.5 705.5 220.5 684.5 220.5Z" fill="#1A0419"/>
<path d="M476.5 578C520.9 566.4 530.667 524.167 530 504.5C564.5 497 626.5 494.7 598.5 545.5C563.5 609 611 629 622 633.5C633 638 624.5 651.5 582.5 656.5C540.5 661.5 486.517 654.639 461 629C356.5 524 421 592.5 476.5 578Z" fill="url(#paint2_linear_19_28)"/>
<path d="M605.079 528.477C604.201 533.346 602.09 538.986 598.5 545.5C592.855 555.743 589.356 564.853 587.504 572.95C563.773 562.094 540.792 531.989 529.625 513.716C529.708 512.933 529.778 512.166 529.834 511.416L605.079 528.477Z" fill="#ED7F71"/>
<path d="M738.5 320C730 282 679.667 259.333 657.5 256.5C638.5 307 621.74 336.767 576 380C539.5 414.5 503.744 402.046 477 391C454 381.5 433 421 461.5 447C469.336 454.148 487.167 462.167 497 458.5C499.4 470.9 505 484.333 507.5 489.5C537 543 606.5 560 669 545.5C731.5 531 750.6 374.093 738.5 320Z" fill="url(#paint3_linear_19_28)"/>
<mask id="mask0_19_28" style="mask-type:alpha" maskUnits="userSpaceOnUse" x="447" y="256" width="295" height="295">
<path d="M738.5 320C730 282 679.667 259.333 657.5 256.5C638.5 307 621.74 336.767 576 380C539.5 414.5 503.744 402.046 477 391C454 381.5 433 421 461.5 447C469.336 454.148 487.167 462.167 497 458.5C499.4 470.9 505 484.333 507.5 489.5C537 543 606.5 560 669 545.5C731.5 531 750.6 374.093 738.5 320Z" fill="url(#paint4_linear_19_28)"/>
</mask>
<g mask="url(#mask0_19_28)">
<g style="mix-blend-mode:multiply" opacity="0.6" filter="url(#filter0_f_19_28)">
<circle cx="715.5" cy="474.5" r="44.5" fill="#EF7575"/>
</g>
<g style="mix-blend-mode:multiply" opacity="0.6" filter="url(#filter1_f_19_28)">
<circle cx="555.5" cy="454.5" r="44.5" fill="#EF7575"/>
</g>
</g>
<path d="M466 400.5C475.686 395.678 487.828 406.839 491.554 418.894C491.554 424.922 484.103 418.43 485.034 426.313C485.965 434.195 493.416 423.067 494.814 436.513C496.211 449.959 489.691 449.959 477.583 446.714C465.475 443.468 471.995 441.614 471.529 434.659C471.063 427.704 462.681 432.804 459.887 428.631C457.093 424.458 453.892 406.528 466 400.5Z" fill="#DD6E5F"/>
<path d="M666.352 410.272C663.972 419.523 661.403 435.868 669.728 442.109C680.647 450.295 678.616 460.609 672.168 463.193C667.01 465.26 660.579 466.364 658.008 466.658" stroke="#DD6E5F" stroke-width="5" stroke-linecap="round"/>
<path d="M644.309 411.183C643.552 421.649 637.579 429.746 630.969 429.267C624.359 428.789 619.614 419.916 620.372 409.45C621.129 398.984 627.102 390.888 633.712 391.366C640.322 391.845 645.067 400.717 644.309 411.183Z" fill="black"/>
<path d="M706.309 420.183C705.552 430.649 699.579 438.746 692.969 438.267C686.359 437.789 681.614 428.916 682.372 418.45C683.129 407.984 689.102 399.888 695.712 400.366C702.322 400.845 707.067 409.717 706.309 420.183Z" fill="black"/>
<path d="M644.953 365.623C629.772 364.074 613.326 377.562 607 384.5C639.601 368.527 647.594 376.984 651 376.5C654.406 376.016 663.93 367.559 644.953 365.623Z" fill="#340731"/>
<path d="M705.076 381.466C714.396 385.362 718.275 392.351 715.351 400.579C713.914 395.389 714.937 392.45 705.079 387.909C696.892 384.139 692.5 386.5 692.5 383.5C692.5 379.539 693.425 376.596 705.076 381.466Z" fill="#340731"/>
<path d="M605 469.841C612.471 481.531 641.054 497.268 685.344 482.251C665.5 496.841 620.545 510.086 605 469.841Z" fill="#D0422F"/>
<path d="M567.5 646.5C509 660.5 463.833 600.333 433 570.5C387.5 532.582 303.5 539.5 290.5 625.5C280.1 694.3 333.5 930.667 361 1030L580 988.5L595 914.5C597.167 917.333 613 962.5 646 975.5C700.119 996.819 717 993 732 967C721 956 692.2 977.7 683 934.5C673.8 891.3 697.333 871 714.5 865C698 793.667 668.285 653.302 646 640.5C622.5 627 616.731 634.718 567.5 646.5Z" fill="url(#paint5_linear_19_28)"/>
<path d="M596.136 916.7C603.92 888.04 610.735 864.82 615.941 847.087C621.837 826.997 625.668 813.947 626.5 808C631.19 774.5 615.5 732.5 601 722C608.5 732.333 618.5 786 611.5 815C603.713 847.26 580.197 940.413 562.939 991.733L577.593 988.956C581.698 971.98 585.696 956.164 589.525 941.512L595 914.5C595.227 914.797 595.604 915.559 596.136 916.7Z" fill="#B7246B"/>
<path d="M813.5 647.5L693.5 838.5C642 918 697.469 985.811 732 967C732 967 825.895 790.53 854.862 677.508C884.5 679.5 893.261 659.188 900 645C912.395 652.5 919.204 640.078 924.5 627.5C928.5 618 918.572 611.086 914.895 612.53C917.463 608.953 919.895 600.53 909.895 594.03C901.117 588.325 896.395 594.03 896.395 594.03C897.972 591.855 899.662 584.437 893.895 579.03C885.895 571.53 884.157 574.524 876.395 576.53C871.895 571.53 888.395 551.03 918.395 549.031C929.705 548.277 930.072 533.03 912.003 533.03C881.395 533.03 840.895 549.031 825.895 576.53C816.079 594.525 807 629 813.5 647.5Z" fill="#FFC6B4"/>
<path fill-rule="evenodd" clip-rule="evenodd" d="M885.308 574.213C888.901 575.248 892.889 577.832 894 584.5C895.5 593.5 883 611.5 873 612C865.888 612.356 865.494 610.103 864.791 606.085C864.703 605.584 864.611 605.055 864.5 604.5C864.5 604.5 862.059 604.5 863 608.5C864.744 615.913 871.053 615.72 876.618 615.549C877.433 615.524 878.233 615.5 879 615.5C879.284 615.5 879.522 615.243 879.783 614.962C879.904 614.832 880.029 614.696 880.166 614.579C878.994 616.157 878.672 622.992 885.5 628C888.833 630.444 890.5 630.5 894 630.133C894 638.342 896.575 642.803 899.947 645.111C899.965 645.074 899.983 645.037 900 645C912.395 652.5 919.204 640.078 924.5 627.5C928.5 618 918.572 611.086 914.895 612.53C917.463 608.953 919.895 600.53 909.895 594.03C901.117 588.325 896.395 594.03 896.395 594.03C897.972 591.854 899.662 584.437 893.895 579.03C890.035 575.411 887.633 574.236 885.308 574.213ZM887 625C880.2 622.2 881.43 615.167 882.895 612C887.685 607.166 894.504 599.047 898.274 593.5C907.269 592 917.5 601.5 915.5 608.5C913.5 615.5 895.5 628.5 887 625ZM900.888 627.503C900.229 627.798 899.643 628.059 899 628.5C897.5 630.047 894.693 634.052 899 640C908.426 653.017 915.032 641.568 918.816 635.008C919.248 634.261 919.642 633.577 920 633C923.5 627.358 925.454 615.5 914.977 613C914.274 613.942 913.93 614.697 913.573 615.482C912.812 617.154 911.989 618.96 907.5 623C904.082 626.076 902.314 626.866 900.888 627.503Z" fill="#ED7F70"/>
<path d="M834.5 592.5C843.667 588.333 863.9 581.1 871.5 585.5C881 591 870 610 834.5 625.5C847.167 617.662 870.5 600 869.5 592.5C868.208 582.812 854.959 586.71 843.495 590.082C840.25 591.037 837.147 591.95 834.5 592.5Z" fill="#ED7F70"/>
<path d="M847.5 618L863.5 606C863.5 608.167 864.5 612.7 868.5 613.5C872.5 614.3 878.5 612.833 881 612C880.5 616.167 881 624.9 887 626.5C893 628.1 897.167 626.167 898.5 625C896.833 627.833 894 634.6 896 639C894.333 645.667 887.3 659 872.5 659C854 659 837 654 847.5 618Z" fill="url(#paint6_linear_19_28)"/>
<path d="M411.5 699.5L453 977C468.833 982 497.4 989 485 977C472.6 965 430.833 787 411.5 699.5Z" fill="#B7246B"/>
<path d="M578 982.5C588.4 982.9 601 980.333 606 979C637 950.5 664 955 678 972L678.513 972.623C692.421 989.508 709.275 1009.97 691 1007.5C672.5 1005 645.5 1018 624 1021C602.5 1024 583.5 1040 485.5 1065C387.5 1090 367 1059.5 360.5 1027.5C354 995.5 367 971.5 419 965.5C471 959.5 565 982 578 982.5Z" fill="#FFC6B4"/>
<path d="M1184 220.5C1118.4 369.7 938.667 418.667 857 424.5V847.5C1058.6 836.7 1159 740 1184 693V220.5Z" fill="url(#paint7_linear_19_28)"/>
<path d="M1052.46 530.493C1041.84 568.986 1010.05 592.057 995.49 598.782C995.429 671.797 1024.39 710.86 1056.29 713.341C1105.96 700.152 1115.22 600.403 1113.14 556.275C1087.11 571.102 1061.84 545.265 1052.46 530.493Z" fill="#FFC383"/>
<path d="M1054.13 550.51C1045.41 582.119 1019.31 601.065 1007.35 606.587C1007.3 666.545 1031.08 698.623 1057.28 700.66C1098.07 689.83 1105.68 607.918 1103.96 571.682C1082.59 583.857 1061.84 562.64 1054.13 550.51Z" fill="url(#paint8_linear_19_28)"/>
<path d="M1057.38 605.231L1070.38 600.231V659.731L1057.38 666.231V605.231Z" fill="#F55B5B"/>
<path d="M1086.83 615.378L1086.86 628.369L1038.84 646.465L1038.52 633.051L1086.83 615.378Z" fill="#F55B5B"/>
<path d="M1145 360C1132.83 385.333 1072.3 443.6 927.5 474M1145 424.5C1131.5 439 1088.1 473.1 1022.5 493.5" stroke="#F4BABA" stroke-width="10" stroke-linecap="round"/>
<path d="M737 51C740.6 85 742.833 151.5 743.5 180.5C814.7 187.3 993.5 166.667 1074 155.5L1067 0C980.6 21.6 811 43 737 51Z" fill="url(#paint9_linear_19_28)"/>
<path d="M759.644 69.1384C762.826 65.3192 769.002 64.6348 772.534 70.3378C774.57 65.1316 781.176 63.6474 784.995 66.8288C788.814 70.0101 789.331 75.6851 786.15 79.5042L774.629 93.3344L760.799 81.8138C756.98 78.6325 756.463 72.9575 759.644 69.1384Z" fill="#F55B5B"/>
<path d="M845.846 59.475C849.028 55.6559 855.204 54.9714 858.736 60.6744C860.772 55.4683 867.378 53.9841 871.197 57.1654C875.016 60.3468 875.533 66.0217 872.352 69.8409L860.831 83.6711L847.001 72.1505C843.182 68.9691 842.665 63.2942 845.846 59.475Z" fill="#F55B5B"/>
<path d="M803.846 64.475C807.028 60.6559 813.204 59.9714 816.736 65.6744C818.772 60.4683 825.378 58.9841 829.197 62.1654C833.016 65.3468 833.533 71.0217 830.352 74.8409L818.831 88.6711L805.001 77.1505C801.182 73.9691 800.665 68.2942 803.846 64.475Z" fill="#F55B5B"/>
<path d="M759.5 125C770.333 124.333 794.1 122.7 802.5 121.5L808 102.5L818.5 150.5L822.5 109L826.5 121.5C841.167 120.167 872.6 117.2 881 116L885 97.5L893.5 139L896.5 109L901 114L919 111" stroke="#E4A4A4" stroke-width="3" stroke-linecap="round" stroke-linejoin="round"/>
<path d="M987.247 64.8821L985.659 48.9651C982.924 51.5346 981.043 52.8705 980.017 52.9729C979.528 53.0218 979.071 52.8731 978.648 52.5267C978.235 52.1674 978.003 51.7313 977.952 51.2182C977.893 50.6235 978.035 50.1676 978.381 49.8505C978.726 49.5334 979.349 49.1062 980.249 48.5688C981.594 47.7633 982.649 46.9513 983.415 46.1329C984.193 45.3133 984.863 44.4162 985.425 43.4414C985.988 42.4667 986.357 41.8645 986.535 41.6348C986.712 41.4052 987.075 41.263 987.623 41.2083C988.241 41.1466 988.76 41.3362 989.181 41.777C989.602 42.2179 989.854 42.8581 989.938 43.6977L991.937 63.7251C992.171 66.0689 991.489 67.3206 989.892 67.48C989.18 67.551 988.585 67.369 988.106 66.9339C987.627 66.4989 987.341 65.815 987.247 64.8821ZM999.167 46.7865C999.051 45.6205 999.257 44.4929 999.784 43.4039C1000.32 42.3021 1001.17 41.3811 1002.33 40.6408C1003.51 39.8994 1004.92 39.4467 1006.56 39.2826C1007.95 39.1441 1009.19 39.2032 1010.27 39.46C1011.36 39.7167 1012.28 40.1308 1013.05 40.7023C1013.81 41.2622 1014.4 41.9275 1014.82 42.6984C1015.23 43.4576 1015.49 44.2861 1015.58 45.184C1015.69 46.3267 1015.5 47.3767 1014.99 48.334C1014.5 49.29 1013.7 50.112 1012.59 50.7997C1013.62 51.0856 1014.49 51.5108 1015.21 52.0753C1015.92 52.6282 1016.48 53.3022 1016.89 54.0976C1017.31 54.8801 1017.57 55.7727 1017.67 56.7756C1017.82 58.2448 1017.6 59.6155 1017 60.8876C1016.41 62.148 1015.46 63.185 1014.15 63.9986C1012.84 64.8123 1011.26 65.3123 1009.39 65.4985C1007.46 65.6917 1005.77 65.5188 1004.32 64.9798C1002.88 64.4408 1001.75 63.6173 1000.93 62.5094C1000.11 61.3899 999.63 60.0954 999.484 58.6262C999.17 55.4894 1000.44 53.1902 1003.28 51.7285C1000.78 50.8476 999.408 49.2003 999.167 46.7865ZM1012.86 57.114C1012.77 56.2044 1012.51 55.4301 1012.07 54.7911C1011.63 54.152 1011.05 53.6854 1010.34 53.3915C1009.63 53.0975 1008.85 52.9924 1008.01 53.0762C1006.82 53.1949 1005.86 53.6909 1005.14 54.5641C1004.41 55.4374 1004.12 56.5853 1004.26 58.0079C1004.35 58.9174 1004.62 59.7034 1005.06 60.3658C1005.52 61.0154 1006.09 61.5 1006.78 61.8196C1007.47 62.1276 1008.22 62.2414 1009.02 62.1611C1009.84 62.0797 1010.55 61.8139 1011.17 61.364C1011.78 60.914 1012.24 60.3205 1012.55 59.5836C1012.85 58.8468 1012.96 58.0235 1012.86 57.114ZM1007 42.6129C1005.9 42.7223 1005.05 43.1548 1004.44 43.9103C1003.85 44.6529 1003.6 45.5607 1003.71 46.6335C1003.81 47.6246 1004.24 48.4182 1004.99 49.0142C1005.74 49.5986 1006.66 49.8366 1007.75 49.7284C1008.29 49.6737 1008.78 49.5368 1009.21 49.3176C1009.64 49.0973 1010.01 48.8199 1010.29 48.4853C1010.58 48.1378 1010.8 47.7455 1010.93 47.3082C1011.06 46.8593 1011.1 46.3783 1011.05 45.8653C1010.98 45.1773 1010.76 44.575 1010.4 44.0583C1010.04 43.5405 1009.56 43.1521 1008.97 42.8932C1008.38 42.6342 1007.72 42.5408 1007 42.6129ZM1038.32 49.5033C1038.51 51.4156 1038.56 53.0715 1038.46 54.4707C1038.37 55.87 1038.06 57.1607 1037.54 58.343C1036.89 59.7981 1035.97 60.9617 1034.78 61.8337C1033.6 62.7057 1032.23 63.2185 1030.7 63.3721C1028.92 63.549 1027.28 63.2065 1025.77 62.3445C1024.27 61.4813 1023.08 60.199 1022.19 58.4975C1021.73 57.5658 1021.36 56.5256 1021.06 55.3769C1020.78 54.2155 1020.58 52.9526 1020.44 51.5883C1020.26 49.8275 1020.2 48.2323 1020.24 46.8028C1020.29 45.3732 1020.46 44.1314 1020.76 43.0773C1021.28 41.3295 1022.15 39.9531 1023.36 38.9482C1024.59 37.9305 1026.12 37.3308 1027.94 37.1492C1029.14 37.0294 1030.25 37.1188 1031.27 37.4175C1032.28 37.7045 1033.2 38.1904 1034.01 38.875C1034.83 39.5468 1035.55 40.411 1036.18 41.4675C1037.25 43.3031 1037.97 45.9817 1038.32 49.5033ZM1033.49 49.6318C1033.28 47.4979 1032.98 45.7674 1032.59 44.4403C1032.19 43.1016 1031.66 42.1185 1030.98 41.4911C1030.31 40.8519 1029.43 40.5859 1028.36 40.693C1026.82 40.8466 1025.83 41.7291 1025.37 43.3405C1024.93 44.9508 1024.88 47.3709 1025.2 50.601C1025.42 52.7932 1025.72 54.5762 1026.12 55.9499C1026.52 57.3235 1027.05 58.3416 1027.73 59.0041C1028.41 59.6549 1029.27 59.9285 1030.31 59.8249C1031.38 59.7178 1032.18 59.2609 1032.71 58.454C1033.24 57.6472 1033.56 56.5378 1033.67 55.1257C1033.78 53.7136 1033.72 51.8823 1033.49 49.6318Z" fill="#A56884"/>
<path d="M999.863 97.7278C999.747 96.5618 999.952 95.4342 1000.48 94.3452C1001.02 93.2434 1001.87 92.3224 1003.03 91.5821C1004.2 90.8408 1005.61 90.388 1007.26 90.2239C1008.65 90.0854 1009.88 90.1445 1010.97 90.4013C1012.05 90.658 1012.98 91.0721 1013.74 91.6436C1014.5 92.2035 1015.09 92.8688 1015.51 93.6397C1015.93 94.3989 1016.18 95.2274 1016.27 96.1253C1016.39 97.268 1016.19 98.318 1015.69 99.2753C1015.19 100.231 1014.39 101.053 1013.28 101.741C1014.31 102.027 1015.19 102.452 1015.9 103.017C1016.62 103.569 1017.18 104.244 1017.59 105.039C1018.01 105.821 1018.27 106.714 1018.37 107.717C1018.51 109.186 1018.29 110.557 1017.7 111.829C1017.11 113.089 1016.16 114.126 1014.85 114.94C1013.54 115.754 1011.95 116.254 1010.09 116.44C1008.15 116.633 1006.46 116.46 1005.02 115.921C1003.57 115.382 1002.44 114.559 1001.63 113.451C1000.81 112.331 1000.33 111.037 1000.18 109.567C999.866 106.431 1001.13 104.131 1003.98 102.67C1001.48 101.789 1000.1 100.142 999.863 97.7278ZM1013.56 108.055C1013.47 107.146 1013.2 106.371 1012.76 105.732C1012.32 105.093 1011.75 104.627 1011.03 104.333C1010.32 104.039 1009.54 103.934 1008.71 104.017C1007.52 104.136 1006.56 104.632 1005.83 105.505C1005.11 106.379 1004.82 107.527 1004.96 108.949C1005.05 109.859 1005.32 110.645 1005.76 111.307C1006.21 111.957 1006.78 112.441 1007.48 112.761C1008.17 113.069 1008.91 113.183 1009.72 113.102C1010.53 113.021 1011.25 112.755 1011.86 112.305C1012.48 111.855 1012.94 111.262 1013.24 110.525C1013.54 109.788 1013.65 108.965 1013.56 108.055ZM1007.7 93.5542C1006.6 93.6637 1005.75 94.0961 1005.14 94.8516C1004.54 95.5943 1004.3 96.502 1004.41 97.5748C1004.5 98.566 1004.93 99.3595 1005.69 99.9555C1006.44 100.54 1007.36 100.778 1008.44 100.67C1008.99 100.615 1009.48 100.478 1009.9 100.259C1010.34 100.039 1010.7 99.7612 1010.99 99.4266C1011.28 99.0791 1011.49 98.6868 1011.63 98.2495C1011.76 97.8006 1011.8 97.3196 1011.75 96.8066C1011.68 96.1186 1011.46 95.5163 1011.09 94.9996C1010.73 94.4818 1010.26 94.0935 1009.67 93.8345C1009.08 93.5755 1008.42 93.4821 1007.7 93.5542ZM1035.13 91.9992L1026.83 92.8285L1026.39 98.5952C1027.96 97.5437 1029.45 96.9481 1030.84 96.8084C1031.96 96.6967 1033.03 96.8024 1034.04 97.1256C1035.06 97.4476 1035.98 97.9451 1036.78 98.6181C1037.59 99.2794 1038.26 100.096 1038.78 101.069C1039.3 102.042 1039.62 103.111 1039.73 104.277C1039.9 105.968 1039.68 107.545 1039.06 109.008C1038.44 110.471 1037.45 111.683 1036.1 112.642C1034.76 113.6 1033.16 114.173 1031.29 114.359C1029.2 114.567 1027.47 114.352 1026.08 113.712C1024.71 113.072 1023.7 112.284 1023.06 111.347C1022.42 110.398 1022.07 109.55 1021.99 108.804C1021.95 108.349 1022.09 107.899 1022.42 107.454C1022.77 107.007 1023.22 106.755 1023.79 106.698C1024.77 106.6 1025.56 107.093 1026.15 108.177C1026.72 109.168 1027.43 109.915 1028.28 110.419C1029.13 110.912 1030.05 111.109 1031.03 111.011C1031.92 110.921 1032.69 110.61 1033.32 110.076C1033.95 109.542 1034.4 108.849 1034.68 107.996C1034.97 107.143 1035.07 106.197 1034.96 105.159C1034.85 104.04 1034.56 103.104 1034.08 102.35C1033.61 101.597 1033.02 101.061 1032.32 100.742C1031.61 100.412 1030.85 100.288 1030.03 100.369C1029.03 100.47 1028.33 100.664 1027.92 100.951C1027.51 101.239 1026.93 101.733 1026.18 102.433C1025.43 103.119 1024.8 103.489 1024.27 103.541C1023.7 103.598 1023.18 103.445 1022.69 103.081C1022.21 102.705 1021.94 102.255 1021.89 101.73C1021.88 101.672 1021.9 101.269 1021.96 100.522L1022.59 91.9969C1022.66 90.9777 1022.89 90.2187 1023.28 89.7197C1023.68 89.2207 1024.38 88.9211 1025.38 88.8211L1034.62 87.8993C1036.44 87.7177 1037.42 88.3208 1037.56 89.7084C1037.62 90.3148 1037.44 90.8266 1037.04 91.244C1036.63 91.6614 1036 91.9131 1035.13 91.9992Z" fill="#A56884"/>
<path d="M347 703.924C195.499 707.121 52.5414 656.307 0 630.5V955.665C69.4 1055.56 260.25 1050.23 347 1035.08V703.924Z" fill="url(#paint10_linear_19_28)"/>
<path d="M59.2778 693.375C56.2319 714.18 50.9329 753.453 70.7553 773.398C92.3045 795.081 136.397 786.023 128.638 841.765C121.67 891.819 75.0202 866.032 51.5553 893.146C37.4601 909.433 37.1654 929.671 36.7739 956.548M142.774 715.586C141.084 735.135 128.759 785.639 88.0045 784.512C37.0609 783.103 18.5029 861.31 75.6201 879.505C135.628 898.621 112.195 969.408 112.195 969.408" stroke="#E69999" stroke-width="5" stroke-linecap="round"/>
<path d="M58.8645 708.763L139.219 728.976" stroke="#CC6363" stroke-width="2"/>
<circle cx="57.7609" cy="707.627" r="6.16" transform="rotate(0.834371 57.7609 707.627)" fill="#CC6363"/>
<circle cx="140.339" cy="728.992" r="6.16" transform="rotate(0.834371 140.339 728.992)" fill="#CC6363"/>
<path d="M47.3259 808.846L128.273 826.827" stroke="#CC6363" stroke-width="2"/>
<circle cx="46.2142" cy="808.27" r="6.16" transform="rotate(0.834371 46.2142 808.27)" fill="#CC6363"/>
<circle cx="129.961" cy="826.291" r="6.16" transform="rotate(0.834371 129.961 826.291)" fill="#CC6363"/>
<path d="M41.4492 827.802L124.636 845.816" stroke="#CC6363" stroke-width="2"/>
<circle cx="40.3375" cy="827.226" r="6.16" transform="rotate(0.834371 40.3375 827.226)" fill="#CC6363"/>
<circle cx="127.427" cy="846.416" r="6.16" transform="rotate(0.834371 127.427 846.416)" fill="#CC6363"/>
<path d="M44.5153 848.009L120.991 865.365" stroke="#CC6363" stroke-width="2"/>
<circle cx="43.4036" cy="847.433" r="6.16" transform="rotate(0.834371 43.4036 847.433)" fill="#CC6363"/>
<circle cx="120.414" cy="866.476" r="6.16" transform="rotate(0.834371 120.414 866.476)" fill="#CC6363"/>
<path d="M51.6694 895.158L105.318 903.221" stroke="#CC6363" stroke-width="2"/>
<circle cx="50.5577" cy="894.582" r="6.16" transform="rotate(0.834371 50.5577 894.582)" fill="#CC6363"/>
<circle cx="107.557" cy="903.253" r="6.16" transform="rotate(0.834371 107.557 903.253)" fill="#CC6363"/>
<path d="M38.7637 935.295L114.201 947.035" stroke="#CC6363" stroke-width="2"/>
<circle cx="37.6519" cy="934.719" r="6.16" transform="rotate(0.834371 37.6519 934.719)" fill="#CC6363"/>
<circle cx="115.88" cy="947.059" r="6.16" transform="rotate(0.834371 115.88 947.059)" fill="#CC6363"/>
<path d="M42.4658 911.826L112.312 922.924" stroke="#CC6363" stroke-width="2"/>
<circle cx="41.354" cy="911.25" r="6.16" transform="rotate(0.834371 41.354 911.25)" fill="#CC6363"/>
<circle cx="113.983" cy="923.509" r="6.16" transform="rotate(0.834371 113.983 923.509)" fill="#CC6363"/>
<path d="M59.8647 793.907L121.847 806.571" stroke="#CC6363" stroke-width="2"/>
<circle cx="57.6413" cy="792.755" r="6.16" transform="rotate(0.834371 57.6413 792.755)" fill="#CC6363"/>
<circle cx="124.655" cy="806.052" r="6.16" transform="rotate(0.834371 124.655 806.052)" fill="#CC6363"/>
<path d="M58.0599 725.553L137.822 747.997" stroke="#CC6363" stroke-width="2"/>
<circle cx="56.3638" cy="726.649" r="6.16" transform="rotate(0.834371 56.3638 726.649)" fill="#CC6363"/>
<circle cx="134.446" cy="749.068" r="6.16" transform="rotate(0.834371 134.446 749.068)" fill="#CC6363"/>
<path d="M58.8699 746.848L126.922 765.761" stroke="#CC6363" stroke-width="2"/>
<circle cx="58.31" cy="746.839" r="6.16" transform="rotate(0.834371 58.31 746.839)" fill="#CC6363"/>
<circle cx="127.482" cy="765.769" r="6.16" transform="rotate(0.834371 127.482 765.769)" fill="#CC6363"/>
<path d="M65.312 765.983L112.176 778.427" stroke="#CC6363" stroke-width="2"/>
<circle cx="64.752" cy="765.975" r="6.16" transform="rotate(0.834371 64.752 765.975)" fill="#CC6363"/>
<circle cx="112.744" cy="777.875" r="6.16" transform="rotate(0.834371 112.744 777.875)" fill="#CC6363"/>
<path d="M53.7651 866.626L98.4462 875.117" stroke="#CC6363" stroke-width="2"/>
<circle cx="53.2052" cy="866.618" r="6.16" transform="rotate(0.834371 53.2052 866.618)" fill="#CC6363"/>
<circle cx="100.11" cy="876.262" r="6.16" transform="rotate(0.834371 100.11 876.262)" fill="#CC6363"/>
<path d="M308.5 736C284.5 737.6 208.167 724 173 717V810C197 828.4 273.333 831.667 308.5 831V736Z" fill="#FAEEED"/>
<path d="M174 850.5C201.333 856.5 266 867.8 306 865M174 879.5C195.167 884.167 241.7 893.2 258.5 892M174 971C190.333 976.833 234.3 988.2 279.5 987" stroke="#F4BABA" stroke-width="10" stroke-linecap="round"/>
<defs>
<filter id="filter0_f_19_28" x="611" y="370" width="209" height="209" filterUnits="userSpaceOnUse" color-interpolation-filters="sRGB">
<feFlood flood-opacity="0" result="BackgroundImageFix"/>
<feBlend mode="normal" in="SourceGraphic" in2="BackgroundImageFix" result="shape"/>
<feGaussianBlur stdDeviation="30" result="effect1_foregroundBlur_19_28"/>
</filter>
<filter id="filter1_f_19_28" x="451" y="350" width="209" height="209" filterUnits="userSpaceOnUse" color-interpolation-filters="sRGB">
<feFlood flood-opacity="0" result="BackgroundImageFix"/>
<feBlend mode="normal" in="SourceGraphic" in2="BackgroundImageFix" result="shape"/>
<feGaussianBlur stdDeviation="30" result="effect1_foregroundBlur_19_28"/>
</filter>
<linearGradient id="paint0_linear_19_28" x1="321" y1="41.5001" x2="368" y2="418.5" gradientUnits="userSpaceOnUse">
<stop offset="0.0264357" stop-color="#FFDADA"/>
<stop offset="1" stop-color="#F9F2F1"/>
</linearGradient>
<linearGradient id="paint1_linear_19_28" x1="223.263" y1="120.558" x2="227" y2="264" gradientUnits="userSpaceOnUse">
<stop stop-color="white"/>
<stop offset="0.922183" stop-color="#F9EEED"/>
</linearGradient>
<linearGradient id="paint2_linear_19_28" x1="529.5" y1="526.5" x2="529.5" y2="658" gradientUnits="userSpaceOnUse">
<stop stop-color="#FFC6B4"/>
<stop offset="1" stop-color="#FFA18C"/>
</linearGradient>
<linearGradient id="paint3_linear_19_28" x1="639" y1="487" x2="616.5" y2="242" gradientUnits="userSpaceOnUse">
<stop stop-color="#FFC6B4"/>
<stop offset="1" stop-color="#FF9C86"/>
</linearGradient>
<linearGradient id="paint4_linear_19_28" x1="639" y1="487" x2="616.5" y2="242" gradientUnits="userSpaceOnUse">
<stop stop-color="#FFC6B4"/>
<stop offset="1" stop-color="#FF9C86"/>
</linearGradient>
<linearGradient id="paint5_linear_19_28" x1="463" y1="549" x2="503.5" y2="916" gradientUnits="userSpaceOnUse">
<stop stop-color="#AB1E62"/>
<stop offset="1" stop-color="#DD5FAB"/>
</linearGradient>
<linearGradient id="paint6_linear_19_28" x1="875" y1="612" x2="869.5" y2="652.5" gradientUnits="userSpaceOnUse">
<stop stop-color="#ED7F70"/>
<stop offset="1" stop-color="#FFC6B4"/>
</linearGradient>
<linearGradient id="paint7_linear_19_28" x1="1226.5" y1="358.5" x2="940" y2="924.5" gradientUnits="userSpaceOnUse">
<stop stop-color="#FFD8D8"/>
<stop offset="1" stop-color="#FFECEB" stop-opacity="0.4"/>
</linearGradient>
<linearGradient id="paint8_linear_19_28" x1="1059.53" y1="550.93" x2="1047.95" y2="699.934" gradientUnits="userSpaceOnUse">
<stop stop-color="white"/>
<stop offset="1" stop-color="#FFD8D8"/>
</linearGradient>
<linearGradient id="paint9_linear_19_28" x1="898.5" y1="36.5" x2="906" y2="243.5" gradientUnits="userSpaceOnUse">
<stop stop-color="#FFD8D8"/>
<stop offset="1" stop-color="#F9F2F1"/>
</linearGradient>
<linearGradient id="paint10_linear_19_28" x1="157.624" y1="699.929" x2="217.491" y2="1084.55" gradientUnits="userSpaceOnUse">
<stop stop-color="#FFD8D8"/>
<stop offset="1" stop-color="#FAF0F0" stop-opacity="0.8"/>
</linearGradient>
</defs>
</svg>
