<svg width="1957" height="1569" viewBox="0 0 1957 1569" fill="none" xmlns="http://www.w3.org/2000/svg">
<path d="M612.5 1191.5C615.5 1144 811.834 1086.83 911 1046L1124 1135L911 1402.5C811.167 1346 610.541 1222.53 612.5 1191.5Z" fill="#666666"/>
<path d="M612.5 1191.5C615.5 1144 811.834 1086.83 911 1046L1124 1135L911 1402.5C811.167 1346 610.541 1222.53 612.5 1191.5Z" fill="url(#paint0_linear_19_143)"/>
<path d="M901.806 1024.33C890.206 1055.53 937.306 1139.33 962.306 1177.33C1021.97 1146.16 1123.61 1071.93 1052.81 1024.33C964.306 964.829 916.306 985.329 901.806 1024.33Z" fill="#2D75CC"/>
<path d="M711 1087.5C777.419 1051.65 936 1181 1004 1216.5C1050 1313.17 1102.98 1416.26 940 1338C725.5 1235 623 1135 711 1087.5Z" fill="#39A5D3"/>
<path d="M711 1087.5C777.419 1051.65 936 1181 1004 1216.5C1050 1313.17 1102.98 1416.26 940 1338C725.5 1235 623 1135 711 1087.5Z" fill="url(#paint1_linear_19_143)"/>
<path d="M997 843C1006.43 852.828 1013.5 883.5 1016 896L1001 927C991.167 921.333 968.9 907.8 958.5 899C945.5 888 948.5 862 948.5 851C948.5 842.2 965.333 839.667 973 841C964.167 832 939 811 944 803.5C948.723 796.415 985 830.5 997 843Z" fill="#FFC6B4"/>
<path d="M867.5 978L899.5 1187.5L955.871 1121.54L896.5 943C904.5 936.5 905.333 923 907.5 918.5L882.871 863.044C870.871 868.644 864.204 875.877 862.371 882.544C860.371 876.044 859.271 867.044 858.871 863.044C858.371 858.044 862.371 845.544 871.871 838.044C881.371 830.544 873.871 809.044 868.871 815.044C863.871 821.044 850.871 835.544 841.371 853.544C831.871 871.544 839.871 890.044 846.371 911.544C849.979 923.478 858.871 940.5 862.371 948C863.979 954.757 866.531 973.714 867.5 978Z" fill="#FFC6B4"/>
<path d="M867.5 978L899.5 1187.5L955.871 1121.54L896.5 943C904.5 936.5 905.333 923 907.5 918.5L882.871 863.044C870.871 868.644 864.204 875.877 862.371 882.544C860.371 876.044 859.271 867.044 858.871 863.044C858.371 858.044 862.371 845.544 871.871 838.044C881.371 830.544 873.871 809.044 868.871 815.044C863.871 821.044 850.871 835.544 841.371 853.544C831.871 871.544 839.871 890.044 846.371 911.544C849.979 923.478 858.871 940.5 862.371 948C863.979 954.757 866.531 973.714 867.5 978Z" fill="url(#paint2_linear_19_143)"/>
<path d="M991 902.5C1004.6 883.3 1034.67 879.5 1048 880L1120 931.5C1080 1035 988.8 1239.2 944 1228C888 1214 887.5 1148 896 1121.5C904.5 1095 974 926.5 991 902.5Z" fill="#666666"/>
<path d="M991 902.5C1004.6 883.3 1034.67 879.5 1048 880L1120 931.5C1080 1035 988.8 1239.2 944 1228C888 1214 887.5 1148 896 1121.5C904.5 1095 974 926.5 991 902.5Z" fill="url(#paint3_linear_19_143)"/>
<path d="M910 1365.5C953.919 1221.24 996.404 1035.85 1050.5 961C1160 809.5 1321 812 1375 845C1429 878 1392 1054.5 1363 1159C1339.8 1242.6 1274.33 1466.83 1244.5 1568.5L833.589 1563.94C833.22 1565.48 833.946 1562.44 833.589 1563.94L612.5 1560L613.5 1198L910 1365.5Z" fill="url(#paint4_linear_19_143)"/>
<path d="M997 722C979.669 674.5 973.5 634 1011.5 585.5C1030.46 561.299 1066.88 550.939 1086 554.237C1104.33 528.658 1157.9 490 1225.5 540C1310 602.5 1275.82 728.5 1267.5 806.5C1259.5 881.5 1297.5 884.5 1289 1032C1282.2 1150 1183.67 1178 1140.5 1176.5C1160.45 1163.73 1158.51 1142.61 1158.5 1126.63C1158.48 1128.77 1157.57 1157.45 1121 1169C1083 1181 1068.67 1143.5 1067.5 1126.5C1072.5 1136 1087.7 1152.5 1108.5 1142.5C1134.5 1130 1134 1087 1118.5 1047.5C1103 1008 1045.02 998.148 1029.5 950.5C1008 884.5 1045 883 1045 830.5C1027 873.786 1002.5 840.5 1002.5 840.5C1002.5 840.5 1017 851.732 1027 826.5C1035.79 804.324 1010.5 759 997 722Z" fill="black"/>
<path d="M997 722C979.669 674.5 973.5 634 1011.5 585.5C1030.46 561.299 1066.88 550.939 1086 554.237C1104.33 528.658 1157.9 490 1225.5 540C1310 602.5 1275.82 728.5 1267.5 806.5C1259.5 881.5 1297.5 884.5 1289 1032C1282.2 1150 1183.67 1178 1140.5 1176.5C1160.45 1163.73 1158.51 1142.61 1158.5 1126.63C1158.48 1128.77 1157.57 1157.45 1121 1169C1083 1181 1068.67 1143.5 1067.5 1126.5C1072.5 1136 1087.7 1152.5 1108.5 1142.5C1134.5 1130 1134 1087 1118.5 1047.5C1103 1008 1045.02 998.148 1029.5 950.5C1008 884.5 1045 883 1045 830.5C1027 873.786 1002.5 840.5 1002.5 840.5C1002.5 840.5 1017 851.732 1027 826.5C1035.79 804.324 1010.5 759 997 722Z" fill="url(#paint5_linear_19_143)"/>
<path d="M859.88 856.099C856.263 860.955 852.474 862.644 847 862C850.493 863.293 855.19 862.88 858.989 860.059C859.154 858.872 859.45 857.532 859.88 856.099Z" fill="#FA876D"/>
<path d="M877.5 871C873.167 873.333 864.9 882 866.5 898C866.5 893 869.1 881.1 879.5 873.5C889.9 865.9 882.5 868.666 877.5 871Z" fill="#FA876D"/>
<path d="M830.006 755.972C827.839 750.606 830.666 744.525 836.166 742.724L902.636 720.956C907.628 719.321 913.034 721.828 915.012 726.694L977.883 881.385C979.692 885.834 978.082 890.94 974.049 893.548L914.056 932.335C908.781 935.745 901.706 933.505 899.354 927.682L830.006 755.972Z" fill="#1B204E"/>
<path d="M843.006 763.443C840.839 758.076 843.666 751.996 849.166 750.195L901.216 733.149C906.248 731.501 911.692 734.061 913.632 738.987L964.843 868.986C966.657 873.592 964.828 878.833 960.542 881.309L913.805 908.313C908.542 911.354 901.806 909.035 899.53 903.4L843.006 763.443Z" fill="white"/>
<circle cx="941.5" cy="901.5" r="4.5" fill="#2D357E"/>
<path d="M882.38 871.374C871.164 877.821 868.713 892.164 867.593 901.799C866.743 914.165 875.146 932.429 885.169 928.419C895.191 924.41 883.19 912.193 886.155 895.582C889.12 878.971 902.792 883.512 904.316 872.508C905.841 861.505 896.4 863.316 882.38 871.374Z" fill="#FFC6B4"/>
<path d="M1550.5 676C1685.53 676 1795 579.965 1795 461.5C1795 343.035 1685.53 247 1550.5 247C1415.47 247 1306 343.035 1306 461.5C1306 520.879 1333.5 574.623 1377.94 613.462C1377.16 626.173 1368.9 644.055 1339.69 650.489C1353.45 660.932 1390.43 674.289 1433.49 649.888C1468.24 666.537 1508.11 676 1550.5 676Z" fill="#DFDFDF"/>
<path d="M1550.5 676C1685.53 676 1795 579.965 1795 461.5C1795 343.035 1685.53 247 1550.5 247C1415.47 247 1306 343.035 1306 461.5C1306 520.879 1333.5 574.623 1377.94 613.462C1377.16 626.173 1368.9 644.055 1339.69 650.489C1353.45 660.932 1390.43 674.289 1433.49 649.888C1468.24 666.537 1508.11 676 1550.5 676Z" fill="url(#paint6_linear_19_143)"/>
<mask id="mask0_19_143" style="mask-type:alpha" maskUnits="userSpaceOnUse" x="1306" y="247" width="489" height="429">
<path d="M1550.5 676C1685.53 676 1795 579.965 1795 461.5C1795 343.035 1685.53 247 1550.5 247C1415.47 247 1306 343.035 1306 461.5C1306 520.879 1333.5 574.623 1377.94 613.462C1377.16 626.173 1368.9 644.055 1339.69 650.489C1353.45 660.932 1390.43 674.289 1433.49 649.888C1468.24 666.537 1508.11 676 1550.5 676Z" fill="#DFDFDF"/>
</mask>
<g mask="url(#mask0_19_143)">
<path d="M1377.71 493.186C1379.16 494.959 1381.47 497.052 1383.43 500.181L1388.47 515.462L1408.42 505.569C1406.55 501.365 1403.21 493.469 1402.3 490.687C1401.17 487.209 1406.76 482.656 1409 472.171C1410.69 464.259 1405.44 460.773 1400.5 460.171C1398.1 451.576 1394.19 437.821 1392.84 433.806C1390.81 427.753 1386.41 431.469 1386.74 434.058C1387.46 439.654 1390.54 452.313 1391.96 461.971C1391.15 460.455 1390.26 457.964 1387.75 458.525C1384.18 459.326 1384.18 461.845 1384.37 463.82C1384.37 463.82 1382.62 460.855 1379.69 461.967C1376.67 463.115 1376.66 465.109 1376.81 466.689C1376.81 466.689 1370.92 463.743 1369.31 470.277C1367.31 478.444 1374.74 489.554 1377.71 493.186Z" fill="#C4C4C4"/>
<path d="M1377.71 493.186C1379.16 494.959 1381.47 497.052 1383.43 500.181L1388.47 515.462L1408.42 505.569C1406.55 501.365 1403.21 493.469 1402.3 490.687C1401.17 487.209 1406.76 482.656 1409 472.171C1410.69 464.259 1405.44 460.773 1400.5 460.171C1398.1 451.576 1394.19 437.821 1392.84 433.806C1390.81 427.753 1386.41 431.469 1386.74 434.058C1387.46 439.654 1390.54 452.313 1391.96 461.971C1391.15 460.455 1390.26 457.964 1387.75 458.525C1384.18 459.326 1384.18 461.845 1384.37 463.82C1384.37 463.82 1382.62 460.855 1379.69 461.967C1376.67 463.115 1376.66 465.109 1376.81 466.689C1376.81 466.689 1370.92 463.743 1369.31 470.277C1367.31 478.444 1374.74 489.554 1377.71 493.186Z" fill="url(#paint7_linear_19_143)"/>
<mask id="mask1_19_143" style="mask-type:alpha" maskUnits="userSpaceOnUse" x="1368" y="430" width="42" height="86">
<path d="M1377.71 493.186C1379.16 494.959 1381.47 497.052 1383.43 500.181L1388.47 515.462L1408.42 505.569C1406.55 501.365 1403.21 493.469 1402.3 490.687C1401.17 487.209 1406.76 482.656 1409 472.171C1410.69 464.259 1405.44 460.773 1400.5 460.171C1398.1 451.576 1394.19 437.821 1392.84 433.806C1390.81 427.753 1386.41 431.469 1386.74 434.058C1387.46 439.654 1390.54 452.313 1391.96 461.971C1391.15 460.455 1390.26 457.964 1387.75 458.525C1384.18 459.326 1384.18 461.845 1384.37 463.82C1384.37 463.82 1382.62 460.855 1379.69 461.967C1376.67 463.115 1376.66 465.109 1376.81 466.689C1376.81 466.689 1370.92 463.743 1369.31 470.277C1367.31 478.444 1374.74 489.554 1377.71 493.186Z" fill="#C4C4C4"/>
</mask>
<g mask="url(#mask1_19_143)">
<path d="M1394 486.5C1400.8 484.9 1402.17 476.833 1401 473L1393.5 472.5L1393 473.5L1389.5 474.5L1387.5 473L1387 475L1384.5 476L1381 475.5C1380.6 477.5 1377.83 478.5 1377.5 478.5C1380 485 1381 489.559 1394 486.5Z" fill="url(#paint8_linear_19_143)"/>
<path d="M1381.45 476.224C1379.87 481.585 1375 477.671 1372 475.171C1374.72 476.043 1379.34 479.51 1380.5 476.171C1381.62 472.959 1376.74 467.551 1375 465.171L1375.5 465.171C1376.85 466.669 1380.51 471.026 1381.33 474.454C1382.83 475.454 1387 476.774 1387 472.171C1387 468.171 1384.5 464.338 1383.5 462.671L1383.5 462.171C1384.67 463.505 1386.71 467.218 1387.5 471.171C1388 473.671 1387.5 476.171 1385 476.671C1383.28 477.016 1382 476.171 1381.5 475.671C1381.51 476.037 1381.55 475.89 1381.45 476.224Z" fill="#F07C83"/>
<path d="M1393 464.671L1391.5 460.671C1390.83 459.338 1389.7 457.171 1390.5 459.171C1391.3 461.171 1392 463.671 1392.5 465.171L1393 464.671Z" fill="#F07C83"/>
<path d="M1393 472.671C1391 474.863 1388.5 473.671 1387.5 472.671V474.171C1390.7 476.171 1393 474.005 1394 472.671H1393Z" fill="#F07C83"/>
<path d="M1389.5 468.671C1389.5 465.471 1396.83 461.671 1400.5 460.171C1402.83 459.838 1407 459.871 1403 460.671C1398 461.671 1391 465.171 1391 469.171C1391 472.671 1399 472.671 1402.5 472.671C1392.5 474.671 1389.5 472.671 1389.5 468.671Z" fill="#F07C83"/>
</g>
<path d="M1601 332.215C1583.4 320.215 1553.5 318.774 1543 320.715C1483.5 331.715 1489 391.715 1489 410.715C1489 425.915 1491.5 487.715 1491.5 517.215L1614.5 523.715C1616.67 504.382 1616 496.715 1628.5 422.215C1634.29 387.715 1623 347.215 1601 332.215Z" fill="#42083E"/>
<path fill-rule="evenodd" clip-rule="evenodd" d="M1544.5 463.816C1545 469.649 1544.36 482.21 1537 486.215C1536.36 486.566 1535.73 486.904 1535.11 487.231L1535 487.215C1533.9 487.6 1532.72 488.006 1531.47 488.437C1510.44 495.669 1474.65 511.871 1459.5 547.215C1443.5 575.5 1443.5 573.715 1443.5 573.715L1410 493.715L1378 506.215C1388 544.215 1411 599.5 1433.5 621.5C1440 632 1468.5 624.715 1479.5 600.715L1473.5 682.715C1497.83 689.215 1552.6 702.415 1599 689.215C1599.24 686.08 1599.49 682.557 1599.73 678.715C1628.99 665.049 1692.01 611.816 1683.5 590.715C1672.73 564.034 1634.42 501.71 1581.89 493.969C1575.49 491.267 1567.66 484.067 1572.5 463.816C1577.59 442.533 1555.67 454.649 1544.5 463.816ZM1639.5 598.215L1614.5 573.715C1614.52 600.53 1612.02 617.695 1608.5 635L1639.5 598.215Z" fill="white"/>
<path fill-rule="evenodd" clip-rule="evenodd" d="M1544.5 463.816C1545 469.649 1544.36 482.21 1537 486.215C1536.36 486.566 1535.73 486.904 1535.11 487.231L1535 487.215C1533.9 487.6 1532.72 488.006 1531.47 488.437C1510.44 495.669 1474.65 511.871 1459.5 547.215C1443.5 575.5 1443.5 573.715 1443.5 573.715L1410 493.715L1378 506.215C1388 544.215 1411 599.5 1433.5 621.5C1440 632 1468.5 624.715 1479.5 600.715L1473.5 682.715C1497.83 689.215 1552.6 702.415 1599 689.215C1599.24 686.08 1599.49 682.557 1599.73 678.715C1628.99 665.049 1692.01 611.816 1683.5 590.715C1672.73 564.034 1634.42 501.71 1581.89 493.969C1575.49 491.267 1567.66 484.067 1572.5 463.816C1577.59 442.533 1555.67 454.649 1544.5 463.816ZM1639.5 598.215L1614.5 573.715C1614.52 600.53 1612.02 617.695 1608.5 635L1639.5 598.215Z" fill="url(#paint9_linear_19_143)"/>
<path d="M1490.11 686.852C1491.45 686.257 1491.64 683.914 1490 679C1484 661 1484.5 596.5 1485.5 566.5L1479.32 601.1C1479.38 600.972 1479.44 600.844 1479.5 600.715L1473.96 676.419C1478.15 680.352 1482.6 684.071 1485.93 685.874C1487.28 686.197 1488.67 686.524 1490.11 686.852Z" fill="#EBD5EA"/>
<path d="M1614.65 573.862L1639.5 598.215L1608.7 634.759L1602.5 656L1655.5 597C1644.7 597 1622.67 567 1613 552L1614.65 573.862Z" fill="#EBD5EA"/>
<mask id="mask2_19_143" style="mask-type:alpha" maskUnits="userSpaceOnUse" x="1378" y="451" width="307" height="244">
<path fill-rule="evenodd" clip-rule="evenodd" d="M1544.5 463.816C1545 469.649 1544.36 482.21 1537 486.215C1536.36 486.566 1535.73 486.904 1535.11 487.231L1535 487.215C1533.9 487.6 1532.72 488.006 1531.47 488.437C1510.44 495.669 1474.65 511.871 1459.5 547.215C1443.5 575.5 1443.5 573.715 1443.5 573.715L1410 493.715L1378 506.215C1388 544.215 1411 599.5 1433.5 621.5C1440 632 1468.5 624.715 1479.5 600.715L1473.5 682.715C1497.83 689.215 1552.6 702.415 1599 689.215C1599.24 686.08 1599.49 682.557 1599.73 678.715C1628.99 665.049 1692.01 611.816 1683.5 590.715C1672.73 564.034 1634.42 501.71 1581.89 493.969C1575.49 491.267 1567.66 484.067 1572.5 463.816C1577.59 442.533 1555.67 454.649 1544.5 463.816ZM1639.5 598.215L1614.5 573.715C1614.52 600.53 1612.02 617.695 1608.5 635L1639.5 598.215Z" fill="white"/>
</mask>
<g mask="url(#mask2_19_143)">
<path d="M1551 524.715L1534 482.715H1521L1519.14 505.963C1515.05 556.913 1514.88 608.1 1518.62 659.077L1521 691.5L1572.5 699.715L1589.5 491.215L1579.5 482.715L1551 524.715Z" fill="#666666"/>
<path d="M1551 524.715L1534 482.715H1521L1519.14 505.963C1515.05 556.913 1514.88 608.1 1518.62 659.077L1521 691.5L1572.5 699.715L1589.5 491.215L1579.5 482.715L1551 524.715Z" fill="url(#paint10_linear_19_143)"/>
<path d="M1552.5 535.715L1520 482.215L1531 459.715L1580 454.715L1588 485.215L1552.5 535.715Z" fill="#FFC6B5"/>
<path d="M1552.5 535.715L1520 482.215L1531 459.715L1580 454.715L1588 485.215L1552.5 535.715Z" fill="url(#paint11_linear_19_143)"/>
<path d="M1539 481.5C1550.17 478.5 1572.9 471.1 1574.5 465.5C1576.1 459.9 1550.17 463.166 1537 465.5L1539 481.5Z" fill="#F07C83"/>
<path d="M1520.08 491.598L1550.5 543.215L1589.2 490.964L1585.8 488.073L1577.27 485.998L1551 524.715L1534 482.715H1528.75L1520.67 485.949L1520.08 491.598Z" fill="#47F1D3"/>
<path d="M1602 558C1603.33 544 1603 511.2 1591 492" stroke="#95328E" stroke-width="3.5"/>
<path d="M1510.5 491.5C1496.5 506.5 1494.87 532.649 1494.78 551.883M1494.78 551.883C1484.52 553.35 1481.42 559.347 1480.93 578.202C1480.31 601.77 1485.46 607.973 1490.73 608.687M1494.78 551.883C1500.15 551.863 1505.96 552.101 1508.33 560.785C1511.31 571.639 1514.07 608.918 1506 609.357" stroke="#95328E" stroke-width="3.5"/>
<path d="M1512.32 574.826L1508.81 574.886C1509.24 579.375 1509.53 584.298 1509.56 588.986C1509.58 594.307 1509.26 599.193 1508.48 602.729C1508.08 604.508 1507.59 605.815 1507.06 606.648C1506.54 607.469 1506.14 607.598 1505.9 607.61L1506.09 611.105C1507.88 611.008 1509.15 609.876 1510.01 608.531C1510.86 607.199 1511.46 605.437 1511.89 603.489C1512.77 599.573 1513.08 594.379 1513.06 588.968C1513.03 584.299 1512.75 579.372 1512.32 574.826Z" fill="#50114C"/>
<path d="M1482.78 575.327C1482.74 576.26 1482.7 577.233 1482.67 578.248C1482.37 589.95 1483.51 597.104 1485.24 601.355C1486.93 605.501 1489.09 606.699 1490.97 606.954L1490.5 610.422C1487.1 609.962 1484.05 607.702 1482 602.676C1479.99 597.755 1478.86 590.023 1479.18 578.156C1479.2 577.204 1479.23 576.281 1479.27 575.386L1482.78 575.327Z" fill="#50114C"/>
<ellipse cx="1503.82" cy="609.487" rx="2.5" ry="3" transform="rotate(-8.19819 1503.82 609.487)" fill="#50114C"/>
<ellipse cx="1489.52" cy="609.204" rx="2.5" ry="3" transform="rotate(12.0925 1489.52 609.204)" fill="#50114C"/>
<circle cx="1600.5" cy="566.5" r="11.5" fill="#C4C4C4"/>
<circle cx="1600.5" cy="566.5" r="11.5" fill="url(#paint12_linear_19_143)"/>
<path d="M1584.09 557.567L1562.52 556C1559.53 586.917 1569.94 592.319 1581.38 590.759L1584.09 557.567Z" fill="#47F1D3"/>
</g>
<path d="M1618.5 412.212C1612.1 405.812 1605.17 413.212 1602.5 417.712L1592.5 440.212C1595.83 440.546 1604 440.512 1610 437.712C1617.5 434.212 1626.5 420.212 1618.5 412.212Z" fill="#F07C83"/>
<path d="M1498.63 410.212C1505.03 403.812 1511.96 411.212 1514.63 415.712L1524.63 438.212C1521.29 438.546 1513.13 438.512 1507.13 435.712C1499.63 432.212 1490.63 418.212 1498.63 410.212Z" fill="#F07C83"/>
<path d="M1505.74 392.239C1520.05 388.054 1543.09 382.8 1557 384.836L1570.5 360.336L1568.5 384.836L1609.57 396.12C1609.08 404.923 1607.73 415.575 1605 429.216C1598.01 464.175 1565.5 479.441 1535.63 464.84C1513.2 453.878 1510.02 427.238 1507.2 403.63C1506.73 399.722 1506.27 395.896 1505.74 392.239Z" fill="#FFC6B4"/>
<path d="M1505.74 392.239C1520.05 388.054 1543.09 382.8 1557 384.836L1570.5 360.336L1568.5 384.836L1609.57 396.12C1609.08 404.923 1607.73 415.575 1605 429.216C1598.01 464.175 1565.5 479.441 1535.63 464.84C1513.2 453.878 1510.02 427.238 1507.2 403.63C1506.73 399.722 1506.27 395.896 1505.74 392.239Z" fill="url(#paint13_linear_19_143)"/>
<mask id="mask3_19_143" style="mask-type:alpha" maskUnits="userSpaceOnUse" x="1505" y="360" width="105" height="111">
<path d="M1505.74 392.239C1520.05 388.054 1543.09 382.8 1557 384.836L1570.5 360.336L1568.5 384.836L1609.57 396.12C1609.08 404.924 1607.73 415.576 1605 429.216C1598.01 464.175 1565.5 479.441 1535.63 464.84C1513.2 453.878 1510.02 427.239 1507.2 403.63C1506.73 399.722 1506.27 395.896 1505.74 392.239Z" fill="#FFC6B4"/>
<path d="M1505.74 392.239C1520.05 388.054 1543.09 382.8 1557 384.836L1570.5 360.336L1568.5 384.836L1609.57 396.12C1609.08 404.924 1607.73 415.576 1605 429.216C1598.01 464.175 1565.5 479.441 1535.63 464.84C1513.2 453.878 1510.02 427.239 1507.2 403.63C1506.73 399.722 1506.27 395.896 1505.74 392.239Z" fill="url(#paint14_linear_19_143)"/>
</mask>
<g mask="url(#mask3_19_143)">
<g filter="url(#filter0_f_19_143)">
<circle cx="1600" cy="434" r="20" fill="#F28585"/>
</g>
<g filter="url(#filter1_f_19_143)">
<circle cx="1518" cy="434" r="20" fill="#F28585"/>
</g>
</g>
<path d="M1528 399.432C1529.83 394.765 1535.5 387.032 1543.5 393.432" stroke="#42083E" stroke-width="3" stroke-linecap="round" stroke-linejoin="bevel"/>
<path d="M1585.5 396.931C1583.67 392.265 1577 387.931 1570 393.931" stroke="#42083E" stroke-width="3" stroke-linecap="round" stroke-linejoin="bevel"/>
<ellipse cx="1538" cy="410.5" rx="6" ry="8.5" fill="#270525"/>
<ellipse cx="1576" cy="409.5" rx="6" ry="8.5" fill="#270525"/>
<path d="M1558.5 409.215C1557.99 413.397 1553.94 416.715 1551.77 420.26C1548.12 426.215 1554.5 429.215 1560.5 429.215" stroke="#F07C83" stroke-width="2" stroke-linecap="round" stroke-linejoin="bevel"/>
<path d="M1575.39 431.718C1562.68 443.188 1548.3 439.945 1542.7 436.889C1545.35 444.701 1552.5 452.117 1558.99 452.117C1571.49 452.117 1576.35 437.325 1575.39 431.718Z" fill="white"/>
</g>
<rect x="1666" y="186" width="185" height="220" rx="20" fill="#FBD8D8"/>
<path d="M1666 206C1666 194.954 1674.95 186 1686 186H1825C1836.05 186 1845 194.954 1845 206V386C1845 397.046 1836.05 406 1825 406H1686C1674.95 406 1666 397.046 1666 386V206Z" fill="#EEEEEE"/>
<path d="M1666 206C1666 194.954 1674.95 186 1686 186H1825C1836.05 186 1845 194.954 1845 206V386C1845 397.046 1836.05 406 1825 406H1686C1674.95 406 1666 397.046 1666 386V206Z" fill="url(#paint15_linear_19_143)"/>
<circle cx="1759" cy="271" r="43" fill="#FBD8D8"/>
<circle cx="1759" cy="271" r="43" fill="url(#paint16_linear_19_143)"/>
<rect x="1731" y="336" width="55" height="6" rx="3" fill="#F5C4C4"/>
<rect x="1718" y="356" width="82" height="6" rx="3" fill="#FFE7E7"/>
<mask id="mask4_19_143" style="mask-type:alpha" maskUnits="userSpaceOnUse" x="1716" y="228" width="86" height="86">
<circle cx="1759" cy="271" r="43" fill="#666666"/>
</mask>
<g mask="url(#mask4_19_143)">
<path d="M1776.69 257.035C1773.6 239.116 1764.33 237.88 1756.92 239.116C1733.44 239.116 1741.47 265.686 1739 290.403L1778.55 292.257C1778.34 287.107 1779.5 273.293 1776.69 257.035Z" fill="#42083E"/>
<circle cx="1758.16" cy="260.507" r="16.066" fill="#FFC6B5"/>
<mask id="mask5_19_143" style="mask-type:alpha" maskUnits="userSpaceOnUse" x="1742" y="244" width="33" height="33">
<circle cx="1758.16" cy="260.507" r="16.066" fill="#FFC6B5"/>
</mask>
<g mask="url(#mask5_19_143)">
<g filter="url(#filter2_f_19_143)">
<circle cx="1770.5" cy="268.5" r="5.5" fill="#F28585"/>
</g>
<g filter="url(#filter3_f_19_143)">
<circle cx="1745.5" cy="268.5" r="5.5" fill="#F28585"/>
</g>
</g>
<ellipse cx="1752.59" cy="261.743" rx="1.85376" ry="2.47168" fill="#42083E"/>
<path d="M1755.07 267.304C1755.68 269.776 1759.39 271.012 1760.63 267.304" stroke="#270525" stroke-linecap="round"/>
<ellipse cx="1762.48" cy="261.743" rx="1.85376" ry="2.47168" fill="#42083E"/>
<path d="M1760.01 256.8C1752.59 255.317 1743.12 257.212 1740.85 258.653C1739 238.88 1761.52 235.539 1768.66 241.969C1774.84 247.531 1774.43 256.594 1774.22 259.889C1771.75 258.406 1766.19 256.594 1763.1 256.182L1761.25 248.767C1761.25 251.238 1761.25 252.474 1760.01 256.8Z" fill="#42083E"/>
<ellipse cx="1759" cy="306.589" rx="27" ry="26.5894" fill="white"/>
<ellipse cx="1759" cy="306.589" rx="27" ry="26.5894" fill="url(#paint17_linear_19_143)"/>
<mask id="mask6_19_143" style="mask-type:alpha" maskUnits="userSpaceOnUse" x="1732" y="280" width="54" height="54">
<ellipse cx="1759" cy="306.589" rx="27" ry="26.5894" fill="#EEEEEE"/>
</mask>
<g mask="url(#mask6_19_143)">
<path d="M1748.03 321.836C1747.54 299.008 1749.47 282.06 1750.49 276.44C1756.01 272.549 1766.2 265.862 1767.67 271.569C1769.14 277.276 1768.69 314.919 1767.67 332.861C1761.33 338.698 1748.52 344.664 1748.03 321.836Z" fill="#2BBFA5"/>
<path d="M1758.39 289.079L1749.18 281.297L1766.36 275.46L1768.82 281.946L1758.39 289.079Z" fill="#47F1D3"/>
<path d="M1758.39 289.079L1752.86 279.351L1765.75 278.054L1758.39 289.079Z" fill="#FFC6B5"/>
<path fill-rule="evenodd" clip-rule="evenodd" d="M1773.72 288.04C1774.1 291.202 1774.04 294.198 1773.85 296L1772.91 295.916C1773.09 294.171 1773.15 291.237 1772.78 288.141C1772.39 285.036 1771.57 281.82 1770 279.47L1770.8 279C1772.48 281.515 1773.33 284.886 1773.72 288.04Z" fill="#95328E"/>
<path d="M1776 298C1776 299.657 1774.66 301 1773 301C1771.34 301 1770 299.657 1770 298C1770 296.343 1771.34 295 1773 295C1774.66 295 1776 296.343 1776 298Z" fill="#C4C4C4"/>
<path d="M1776 298C1776 299.657 1774.66 301 1773 301C1771.34 301 1770 299.657 1770 298C1770 296.343 1771.34 295 1773 295C1774.66 295 1776 296.343 1776 298Z" fill="url(#paint18_linear_19_143)"/>
<path d="M1747 280C1745.67 281.93 1742.9 287.179 1742.5 292.737M1742.5 292.737C1741 293.123 1738 295.516 1738 302M1742.5 292.737C1743.83 292.737 1746.3 294.589 1745.5 302" stroke="#95328E"/>
<path d="M1747 301.5C1747 302.328 1746.33 303 1745.5 303C1744.67 303 1744 302.328 1744 301.5C1744 300.672 1744.67 300 1745.5 300C1746.33 300 1747 300.672 1747 301.5Z" fill="#C4C4C4"/>
<path d="M1747 301.5C1747 302.328 1746.33 303 1745.5 303C1744.67 303 1744 302.328 1744 301.5C1744 300.672 1744.67 300 1745.5 300C1746.33 300 1747 300.672 1747 301.5Z" fill="url(#paint19_linear_19_143)"/>
<path d="M1740 301.5C1740 302.328 1739.33 303 1738.5 303C1737.67 303 1737 302.328 1737 301.5C1737 300.672 1737.67 300 1738.5 300C1739.33 300 1740 300.672 1740 301.5Z" fill="#C4C4C4"/>
<path d="M1740 301.5C1740 302.328 1739.33 303 1738.5 303C1737.67 303 1737 302.328 1737 301.5C1737 300.672 1737.67 300 1738.5 300C1739.33 300 1740 300.672 1740 301.5Z" fill="url(#paint20_linear_19_143)"/>
</g>
</g>
<path d="M1130.54 396.825C1243.85 386.125 1332 303.653 1332 203.5C1332 96.0806 1230.59 9 1105.5 9C980.408 9 879 96.0806 879 203.5C879 301.754 963.841 382.992 1074.05 396.14C1092.03 420.559 1123.17 454.666 1148 474.928C1139.21 459.836 1126.4 427.34 1130.54 396.825Z" fill="#DFDFDF"/>
<path d="M1130.54 396.825C1243.85 386.125 1332 303.653 1332 203.5C1332 96.0806 1230.59 9 1105.5 9C980.408 9 879 96.0806 879 203.5C879 301.754 963.841 382.992 1074.05 396.14C1092.03 420.559 1123.17 454.666 1148 474.928C1139.21 459.836 1126.4 427.34 1130.54 396.825Z" fill="url(#paint21_linear_19_143)"/>
<g style="mix-blend-mode:multiply" opacity="0.5">
<path d="M959 291C953.8 285.4 961.167 281.667 965.5 280.5H1010.5L1069 291L1094 298C1099.83 298 1111.4 299.1 1111 303.5C1110.5 309 1075 307.5 1069 306C1064.2 304.8 1065.67 300.167 1067 298C1043.8 300 1036 297.167 1035 295.5C1011.83 296.333 964.2 296.6 959 291Z" fill="#F5BDBD"/>
<path d="M1001.5 308.5C999.9 305.7 1003.83 304 1006 303.5C1020.67 307.667 1049.2 317.2 1046 322C1042 328 1003.5 312 1001.5 308.5Z" fill="#F5BDBD"/>
</g>
<path d="M1037 114H995V144.5C974.787 146.653 959 161.477 959 183.727V269.545C959 281.395 967.954 291 979 291H1053C1064.05 291 1073 281.395 1073 269.545V183.727C1073 161.477 1057.21 146.653 1037 144.5V114Z" fill="#FFBB6B"/>
<path d="M1037 114H995V144.5C974.787 146.653 959 161.477 959 183.727V269.545C959 281.395 967.954 291 979 291H1053C1064.05 291 1073 281.395 1073 269.545V183.727C1073 161.477 1057.21 146.653 1037 144.5V114Z" fill="url(#paint22_linear_19_143)"/>
<rect x="989" y="114" width="54" height="18" rx="5" fill="#666666"/>
<rect x="989" y="114" width="54" height="18" rx="5" fill="url(#paint23_linear_19_143)"/>
<g opacity="0.4">
<path d="M1001.77 132H998.774V114H1001.77V132Z" fill="#95328E"/>
<path d="M1009.61 132H1006.61V114H1009.61V132Z" fill="#95328E"/>
<path d="M1017.44 132H1014.44V114H1017.44V132Z" fill="#95328E"/>
<path d="M1024.71 132H1021.71V114H1024.71V132Z" fill="#95328E"/>
<path d="M1033.67 132H1030.67V114H1033.67V132Z" fill="#95328E"/>
<path d="M1041.5 130.571C1040.71 131.345 1039.66 131.86 1038.5 131.975V114.025C1039.66 114.14 1040.71 114.655 1041.5 115.429V130.571Z" fill="#95328E"/>
<path d="M994.5 114V132H994C993.089 132 992.235 131.757 991.5 131.331V114.669C992.235 114.243 993.089 114 994 114H994.5Z" fill="#95328E"/>
</g>
<path d="M984 162C978.477 162 974 166.477 974 172V268C974 273.523 978.477 278 984 278C989.523 278 994 273.523 994 268V172C994 166.477 989.523 162 984 162Z" fill="#FFDDB6"/>
<path d="M1073 192H959V250H1073V192Z" fill="#666666"/>
<path d="M1073 192H959V250H1073V192Z" fill="url(#paint24_linear_19_143)"/>
<path d="M974 192V250H994V192H974Z" fill="#E76CB6"/>
<rect x="1010.69" y="203" width="10.125" height="31.5" fill="#FEFEFE"/>
<rect x="1000" y="223.812" width="10.125" height="31.5" transform="rotate(-90 1000 223.812)" fill="#FEFEFE"/>
<rect x="1036.17" y="278.101" width="47.735" height="16.7073" rx="8.35363" fill="#666666"/>
<rect x="1036.17" y="278.101" width="47.735" height="16.7073" rx="8.35363" fill="url(#paint25_linear_19_143)"/>
<g style="mix-blend-mode:multiply" opacity="0.3">
<path d="M1061.63 278.101L1065.92 281.248L1062.23 294.809L1044.53 294.809C1042.14 294.809 1039.99 293.808 1038.46 292.203C1057.15 291.439 1058.29 283.232 1056.11 278.101L1061.63 278.101Z" fill="#E4740C"/>
</g>
<path d="M1059.51 294.809L1059.51 278.101L1075.55 278.101C1080.17 278.101 1083.91 281.841 1083.91 286.455C1083.91 291.069 1080.17 294.809 1075.55 294.809L1059.51 294.809Z" fill="#BE2525"/>
<path d="M1059.51 294.809L1059.51 278.101L1075.55 278.101C1080.17 278.101 1083.91 281.841 1083.91 286.455C1083.91 291.069 1080.17 294.809 1075.55 294.809L1059.51 294.809Z" fill="url(#paint26_linear_19_143)"/>
<g style="mix-blend-mode:multiply" opacity="0.3">
<path d="M1059.51 294.808L1059.51 278.101L1066.12 278.101C1063.76 283.529 1064.59 291.372 1081.19 292.623C1079.7 293.981 1077.73 294.808 1075.55 294.808L1059.51 294.808Z" fill="#C02222"/>
</g>
<rect x="1005.62" y="290.609" width="47.735" height="16.7073" rx="8.35363" transform="rotate(20.2497 1005.62 290.609)" fill="#666666"/>
<rect x="1005.62" y="290.609" width="47.735" height="16.7073" rx="8.35363" transform="rotate(20.2497 1005.62 290.609)" fill="url(#paint27_linear_19_143)"/>
<g style="mix-blend-mode:multiply" opacity="0.3">
<path d="M1029.5 299.421L1032.44 303.859L1024.28 315.301L1007.67 309.175C1005.43 308.349 1003.76 306.665 1002.88 304.632C1020.68 310.382 1024.59 303.079 1024.32 297.511L1029.5 299.421Z" fill="#E4740C"/>
</g>
<path d="M1021.73 314.361L1027.51 298.687L1042.56 304.24C1046.89 305.836 1049.11 310.64 1047.51 314.968C1045.91 319.297 1041.11 321.511 1036.78 319.914L1021.73 314.361Z" fill="#BE2525"/>
<path d="M1021.73 314.361L1027.51 298.687L1042.56 304.24C1046.89 305.836 1049.11 310.64 1047.51 314.968C1045.91 319.297 1041.11 321.511 1036.78 319.914L1021.73 314.361Z" fill="url(#paint28_linear_19_143)"/>
<g style="mix-blend-mode:multiply" opacity="0.3">
<path d="M1021.73 314.361L1027.51 298.687L1033.71 300.974C1029.62 305.249 1027.68 312.894 1042.82 319.814C1040.96 320.573 1038.82 320.665 1036.78 319.914L1021.73 314.361Z" fill="#C02222"/>
</g>
<rect x="1063.17" y="286.101" width="47.735" height="16.7073" rx="8.35363" fill="#666666"/>
<rect x="1063.17" y="286.101" width="47.735" height="16.7073" rx="8.35363" fill="url(#paint29_linear_19_143)"/>
<g style="mix-blend-mode:multiply" opacity="0.3">
<path d="M1088.63 286.101L1092.92 289.248L1089.23 302.809L1071.53 302.809C1069.14 302.809 1066.99 301.808 1065.46 300.203C1084.15 299.439 1085.29 291.232 1083.11 286.101L1088.63 286.101Z" fill="#E4740C"/>
</g>
<path d="M1086.51 302.809L1086.51 286.101L1102.55 286.101C1107.17 286.101 1110.91 289.841 1110.91 294.455C1110.91 299.069 1107.17 302.809 1102.55 302.809L1086.51 302.809Z" fill="#BE2525"/>
<path d="M1086.51 302.809L1086.51 286.101L1102.55 286.101C1107.17 286.101 1110.91 289.841 1110.91 294.455C1110.91 299.069 1107.17 302.809 1102.55 302.809L1086.51 302.809Z" fill="url(#paint30_linear_19_143)"/>
<g style="mix-blend-mode:multiply" opacity="0.3">
<path d="M1086.51 302.808L1086.51 286.101L1093.12 286.101C1090.76 291.529 1091.59 299.372 1108.19 300.623C1106.7 301.981 1104.73 302.808 1102.55 302.808L1086.51 302.808Z" fill="#C02222"/>
</g>
<path d="M1126.95 159.296C1117.93 159.296 1111.4 164.864 1111.4 172.928C1111.4 181.056 1117.93 186.624 1126.95 186.624C1135.98 186.624 1142.44 181.056 1142.44 172.928C1142.44 164.864 1135.98 159.296 1126.95 159.296ZM1126.95 163.904C1132.9 163.904 1137.26 167.552 1137.26 172.928C1137.26 178.304 1132.9 182.016 1126.95 182.016C1120.94 182.016 1116.58 178.304 1116.58 172.928C1116.58 167.552 1120.94 163.904 1126.95 163.904ZM1149.99 155.072V213.056H1155.3V155.072H1149.99ZM1109.22 200.384C1119.53 200.384 1133.67 200.32 1146.66 197.824L1146.22 193.92C1133.61 195.904 1119.02 195.968 1108.46 195.968L1109.22 200.384ZM1167.2 161.216V165.568H1201.38V161.216H1167.2ZM1184.29 168.512C1175.97 168.512 1170.4 172.608 1170.4 179.008C1170.4 185.344 1175.97 189.376 1184.29 189.376C1192.48 189.376 1198.12 185.344 1198.12 179.008C1198.12 172.608 1192.48 168.512 1184.29 168.512ZM1184.29 172.672C1189.48 172.672 1193.06 175.104 1193.06 179.008C1193.06 182.784 1189.48 185.28 1184.29 185.28C1178.98 185.28 1175.46 182.784 1175.46 179.008C1175.46 175.104 1178.98 172.672 1184.29 172.672ZM1206.63 155.136V191.296H1211.94V155.136H1206.63ZM1210.47 171.072V175.488H1220.52V171.072H1210.47ZM1174.37 194.432V198.784H1206.63V212.992H1211.94V194.432H1174.37ZM1181.6 154.816V163.648H1186.92V154.816H1181.6Z" fill="#A56884"/>
<path d="M1122.39 235.516V237.285H1105.36V235.516H1122.39ZM1122.39 239.57V241.34H1105.36V239.57H1122.39ZM1109.99 247L1110.78 241.469L1112.85 229.938H1114.39L1113.6 235.48L1111.49 247H1109.99ZM1107.96 229.938L1110.16 241.422L1110.78 247H1109.34L1105.71 229.938H1107.96ZM1117 247L1117.61 241.41L1119.74 229.938H1122L1118.37 247H1117ZM1114.96 229.938L1117.04 241.434L1117.79 247H1116.21L1114.18 235.434L1113.44 229.938H1114.96ZM1131.31 229.844V247H1129.14V232.551L1124.77 234.145V232.188L1130.97 229.844H1131.31ZM1148.39 237.109V239.711C1148.39 241.109 1148.27 242.289 1148.02 243.25C1147.77 244.211 1147.41 244.984 1146.94 245.57C1146.47 246.156 1145.91 246.582 1145.24 246.848C1144.59 247.105 1143.84 247.234 1143.02 247.234C1142.36 247.234 1141.75 247.152 1141.2 246.988C1140.64 246.824 1140.14 246.562 1139.7 246.203C1139.26 245.836 1138.89 245.359 1138.57 244.773C1138.26 244.188 1138.02 243.477 1137.86 242.641C1137.7 241.805 1137.61 240.828 1137.61 239.711V237.109C1137.61 235.711 1137.74 234.539 1137.99 233.594C1138.25 232.648 1138.61 231.891 1139.08 231.32C1139.55 230.742 1140.11 230.328 1140.77 230.078C1141.43 229.828 1142.17 229.703 1142.99 229.703C1143.66 229.703 1144.27 229.785 1144.82 229.949C1145.38 230.105 1145.88 230.359 1146.32 230.711C1146.76 231.055 1147.13 231.516 1147.43 232.094C1147.75 232.664 1147.98 233.363 1148.15 234.191C1148.31 235.02 1148.39 235.992 1148.39 237.109ZM1146.21 240.062V236.746C1146.21 235.98 1146.17 235.309 1146.07 234.73C1145.99 234.145 1145.86 233.645 1145.69 233.23C1145.52 232.816 1145.3 232.48 1145.03 232.223C1144.77 231.965 1144.47 231.777 1144.13 231.66C1143.79 231.535 1143.41 231.473 1142.99 231.473C1142.48 231.473 1142.02 231.57 1141.62 231.766C1141.22 231.953 1140.89 232.254 1140.61 232.668C1140.35 233.082 1140.14 233.625 1140 234.297C1139.86 234.969 1139.79 235.785 1139.79 236.746V240.062C1139.79 240.828 1139.84 241.504 1139.92 242.09C1140.02 242.676 1140.15 243.184 1140.33 243.613C1140.51 244.035 1140.73 244.383 1140.99 244.656C1141.25 244.93 1141.54 245.133 1141.88 245.266C1142.22 245.391 1142.6 245.453 1143.02 245.453C1143.55 245.453 1144.01 245.352 1144.41 245.148C1144.81 244.945 1145.14 244.629 1145.41 244.199C1145.68 243.762 1145.88 243.203 1146.02 242.523C1146.15 241.836 1146.21 241.016 1146.21 240.062ZM1153.39 244.422V246.168C1153.39 246.879 1153.21 247.629 1152.85 248.418C1152.49 249.215 1151.98 249.879 1151.34 250.41L1150.11 249.555C1150.36 249.211 1150.57 248.859 1150.74 248.5C1150.91 248.148 1151.04 247.781 1151.12 247.398C1151.22 247.023 1151.27 246.625 1151.27 246.203V244.422H1153.39ZM1166.63 237.109V239.711C1166.63 241.109 1166.5 242.289 1166.25 243.25C1166 244.211 1165.64 244.984 1165.18 245.57C1164.71 246.156 1164.14 246.582 1163.48 246.848C1162.82 247.105 1162.08 247.234 1161.25 247.234C1160.59 247.234 1159.99 247.152 1159.43 246.988C1158.88 246.824 1158.38 246.562 1157.93 246.203C1157.5 245.836 1157.12 245.359 1156.81 244.773C1156.5 244.188 1156.26 243.477 1156.09 242.641C1155.93 241.805 1155.85 240.828 1155.85 239.711V237.109C1155.85 235.711 1155.97 234.539 1156.22 233.594C1156.48 232.648 1156.84 231.891 1157.31 231.32C1157.78 230.742 1158.34 230.328 1159 230.078C1159.66 229.828 1160.41 229.703 1161.23 229.703C1161.89 229.703 1162.5 229.785 1163.05 229.949C1163.62 230.105 1164.12 230.359 1164.55 230.711C1164.99 231.055 1165.36 231.516 1165.67 232.094C1165.98 232.664 1166.22 233.363 1166.38 234.191C1166.55 235.02 1166.63 235.992 1166.63 237.109ZM1164.45 240.062V236.746C1164.45 235.98 1164.4 235.309 1164.31 234.73C1164.22 234.145 1164.09 233.645 1163.92 233.23C1163.75 232.816 1163.53 232.48 1163.27 232.223C1163.01 231.965 1162.71 231.777 1162.36 231.66C1162.03 231.535 1161.65 231.473 1161.23 231.473C1160.71 231.473 1160.25 231.57 1159.86 231.766C1159.46 231.953 1159.12 232.254 1158.85 232.668C1158.58 233.082 1158.38 233.625 1158.24 234.297C1158.1 234.969 1158.03 235.785 1158.03 236.746V240.062C1158.03 240.828 1158.07 241.504 1158.16 242.09C1158.25 242.676 1158.39 243.184 1158.57 243.613C1158.75 244.035 1158.96 244.383 1159.22 244.656C1159.48 244.93 1159.78 245.133 1160.11 245.266C1160.46 245.391 1160.84 245.453 1161.25 245.453C1161.78 245.453 1162.25 245.352 1162.64 245.148C1163.04 244.945 1163.38 244.629 1163.64 244.199C1163.91 243.762 1164.12 243.203 1164.25 242.523C1164.38 241.836 1164.45 241.016 1164.45 240.062ZM1180.13 237.109V239.711C1180.13 241.109 1180 242.289 1179.75 243.25C1179.5 244.211 1179.14 244.984 1178.68 245.57C1178.21 246.156 1177.64 246.582 1176.98 246.848C1176.32 247.105 1175.58 247.234 1174.75 247.234C1174.09 247.234 1173.49 247.152 1172.93 246.988C1172.38 246.824 1171.88 246.562 1171.43 246.203C1171 245.836 1170.62 245.359 1170.31 244.773C1170 244.188 1169.76 243.477 1169.59 242.641C1169.43 241.805 1169.35 240.828 1169.35 239.711V237.109C1169.35 235.711 1169.47 234.539 1169.72 233.594C1169.98 232.648 1170.34 231.891 1170.81 231.32C1171.28 230.742 1171.84 230.328 1172.5 230.078C1173.16 229.828 1173.91 229.703 1174.73 229.703C1175.39 229.703 1176 229.785 1176.55 229.949C1177.12 230.105 1177.62 230.359 1178.05 230.711C1178.49 231.055 1178.86 231.516 1179.17 232.094C1179.48 232.664 1179.72 233.363 1179.88 234.191C1180.05 235.02 1180.13 235.992 1180.13 237.109ZM1177.95 240.062V236.746C1177.95 235.98 1177.9 235.309 1177.81 234.73C1177.72 234.145 1177.59 233.645 1177.42 233.23C1177.25 232.816 1177.03 232.48 1176.77 232.223C1176.51 231.965 1176.21 231.777 1175.86 231.66C1175.53 231.535 1175.15 231.473 1174.73 231.473C1174.21 231.473 1173.75 231.57 1173.36 231.766C1172.96 231.953 1172.62 232.254 1172.35 232.668C1172.08 233.082 1171.88 233.625 1171.74 234.297C1171.6 234.969 1171.53 235.785 1171.53 236.746V240.062C1171.53 240.828 1171.57 241.504 1171.66 242.09C1171.75 242.676 1171.89 243.184 1172.07 243.613C1172.25 244.035 1172.46 244.383 1172.72 244.656C1172.98 244.93 1173.28 245.133 1173.61 245.266C1173.96 245.391 1174.34 245.453 1174.75 245.453C1175.28 245.453 1175.75 245.352 1176.14 245.148C1176.54 244.945 1176.88 244.629 1177.14 244.199C1177.41 243.762 1177.62 243.203 1177.75 242.523C1177.88 241.836 1177.95 241.016 1177.95 240.062ZM1193.63 237.109V239.711C1193.63 241.109 1193.5 242.289 1193.25 243.25C1193 244.211 1192.64 244.984 1192.18 245.57C1191.71 246.156 1191.14 246.582 1190.48 246.848C1189.82 247.105 1189.08 247.234 1188.25 247.234C1187.59 247.234 1186.99 247.152 1186.43 246.988C1185.88 246.824 1185.38 246.562 1184.93 246.203C1184.5 245.836 1184.12 245.359 1183.81 244.773C1183.5 244.188 1183.26 243.477 1183.09 242.641C1182.93 241.805 1182.85 240.828 1182.85 239.711V237.109C1182.85 235.711 1182.97 234.539 1183.22 233.594C1183.48 232.648 1183.84 231.891 1184.31 231.32C1184.78 230.742 1185.34 230.328 1186 230.078C1186.66 229.828 1187.41 229.703 1188.23 229.703C1188.89 229.703 1189.5 229.785 1190.05 229.949C1190.62 230.105 1191.12 230.359 1191.55 230.711C1191.99 231.055 1192.36 231.516 1192.67 232.094C1192.98 232.664 1193.22 233.363 1193.38 234.191C1193.55 235.02 1193.63 235.992 1193.63 237.109ZM1191.45 240.062V236.746C1191.45 235.98 1191.4 235.309 1191.31 234.73C1191.22 234.145 1191.09 233.645 1190.92 233.23C1190.75 232.816 1190.53 232.48 1190.27 232.223C1190.01 231.965 1189.71 231.777 1189.36 231.66C1189.03 231.535 1188.65 231.473 1188.23 231.473C1187.71 231.473 1187.25 231.57 1186.86 231.766C1186.46 231.953 1186.12 232.254 1185.85 232.668C1185.58 233.082 1185.38 233.625 1185.24 234.297C1185.1 234.969 1185.03 235.785 1185.03 236.746V240.062C1185.03 240.828 1185.07 241.504 1185.16 242.09C1185.25 242.676 1185.39 243.184 1185.57 243.613C1185.75 244.035 1185.96 244.383 1186.22 244.656C1186.48 244.93 1186.78 245.133 1187.11 245.266C1187.46 245.391 1187.84 245.453 1188.25 245.453C1188.78 245.453 1189.25 245.352 1189.64 245.148C1190.04 244.945 1190.38 244.629 1190.64 244.199C1190.91 243.762 1191.12 243.203 1191.25 242.523C1191.38 241.836 1191.45 241.016 1191.45 240.062Z" fill="#EAB1B1"/>
<rect x="1164" width="183" height="114" rx="20" fill="white"/>
<circle cx="1254.5" cy="57.5" r="29.5" fill="#3168BA"/>
<path d="M1225.04 55.9255C1228.13 61.1841 1233.36 65.7162 1241.39 64.0556C1246.61 62.9746 1250.23 60.349 1253.66 57.8636C1260.62 52.8144 1266.79 48.3441 1283.98 58.5811C1283.99 58.2223 1284 57.8619 1284 57.5C1284 41.2076 1270.79 28 1254.5 28C1238.74 28 1225.86 40.3651 1225.04 55.9255Z" fill="#D73F3F"/>
<rect x="1188" y="38.4448" width="34" height="5" transform="rotate(-60 1188 38.4448)" fill="black"/>
<rect x="1200.12" y="45.4448" width="34" height="5" transform="rotate(-60 1200.12 45.4448)" fill="black"/>
<rect x="1194.06" y="41.9448" width="34" height="5" transform="rotate(-60 1194.06 41.9448)" fill="black"/>
<rect x="1297.44" y="11" width="16" height="5" transform="rotate(45 1297.44 11)" fill="black"/>
<rect x="1310.16" y="23.7279" width="16" height="5" transform="rotate(45 1310.16 23.7279)" fill="black"/>
<rect x="1287.54" y="20.8995" width="16" height="5" transform="rotate(45 1287.54 20.8995)" fill="black"/>
<rect x="1300.26" y="33.6274" width="16" height="5" transform="rotate(45 1300.26 33.6274)" fill="black"/>
<rect x="1292.49" y="15.9498" width="34" height="5" transform="rotate(45 1292.49 15.9498)" fill="black"/>
<rect x="1290.06" y="98.9448" width="16" height="5" transform="rotate(-60 1290.06 98.9448)" fill="black"/>
<rect x="1299.06" y="83.3564" width="16" height="5" transform="rotate(-60 1299.06 83.3564)" fill="black"/>
<rect x="1284" y="95.4448" width="34" height="5" transform="rotate(-60 1284 95.4448)" fill="black"/>
<rect x="1296.12" y="102.445" width="34" height="5" transform="rotate(-60 1296.12 102.445)" fill="black"/>
<rect x="1204.45" y="66" width="16" height="5" transform="rotate(60 1204.45 66)" fill="black"/>
<rect x="1213.45" y="81.5884" width="16" height="5" transform="rotate(60 1213.45 81.5884)" fill="black"/>
<rect x="1198.39" y="69.5" width="16" height="5" transform="rotate(60 1198.39 69.5)" fill="black"/>
<rect x="1207.39" y="85.0884" width="16" height="5" transform="rotate(60 1207.39 85.0884)" fill="black"/>
<rect x="1192.33" y="73" width="16" height="5" transform="rotate(60 1192.33 73)" fill="black"/>
<rect x="1201.33" y="88.5884" width="16" height="5" transform="rotate(60 1201.33 88.5884)" fill="black"/>
<path d="M707.352 715.841C786.269 677.411 839 607.771 839 528.24C839 407.157 716.774 309 566 309C415.226 309 293 407.157 293 528.24C293 649.323 415.226 747.48 566 747.48C589.082 747.48 611.496 745.18 632.904 740.848C670.285 762.584 726.617 761.48 754.729 758.178C729.462 755.813 715.03 736.484 707.352 715.841Z" fill="#DFDFDF"/>
<path d="M707.352 715.841C786.269 677.411 839 607.771 839 528.24C839 407.157 716.774 309 566 309C415.226 309 293 407.157 293 528.24C293 649.323 415.226 747.48 566 747.48C589.082 747.48 611.496 745.18 632.904 740.848C670.285 762.584 726.617 761.48 754.729 758.178C729.462 755.813 715.03 736.484 707.352 715.841Z" fill="url(#paint31_linear_19_143)"/>
<g style="mix-blend-mode:multiply" opacity="0.3">
<path d="M377.5 641C373.5 636.2 380.833 633 385 632L398.5 635H496.5L520.5 630C535 630.667 559.5 633.8 541.5 641C523.5 648.2 504 644 496.5 641H423C415.5 650 382.5 647 377.5 641Z" fill="#FBCDCC"/>
</g>
<g style="mix-blend-mode:multiply" opacity="0.5">
<path d="M421 502.5C417.8 496.1 428 493.167 433.5 492.5L489.5 502.5H502.5H520C514.8 509.3 501.5 507.333 495.5 505.5L479 515L474.5 509.5C458 509.833 424.2 508.9 421 502.5Z" fill="#FACECD"/>
</g>
<path d="M392.309 418.042C402.023 402.457 422.152 405.613 431.832 409.202C445.383 414.841 460.05 425.099 428.192 418.042C393.473 410.352 394.778 438.582 402.71 454.445C408.95 466.926 426.865 472.283 434.432 471.087L436.206 480.448C393.349 485.128 380.165 437.524 392.309 418.042Z" fill="#EEEEEE"/>
<path d="M392.309 418.042C402.023 402.457 422.152 405.613 431.832 409.202C445.383 414.841 460.05 425.099 428.192 418.042C393.473 410.352 394.778 438.582 402.71 454.445C408.95 466.926 426.865 472.283 434.432 471.087L436.206 480.448C393.349 485.128 380.165 437.524 392.309 418.042Z" fill="url(#paint32_linear_19_143)"/>
<path d="M424.031 400.16C424.031 397.399 426.27 395.16 429.031 395.16H500.158C502.919 395.16 505.158 397.399 505.158 400.16V475.41C505.158 491.978 491.727 505.41 475.158 505.41H454.031C437.463 505.41 424.031 491.978 424.031 475.41V400.16Z" fill="#EEEEEE"/>
<path d="M424.031 400.16C424.031 397.399 426.27 395.16 429.031 395.16H500.158C502.919 395.16 505.158 397.399 505.158 400.16V475.41C505.158 491.978 491.727 505.41 475.158 505.41H454.031C437.463 505.41 424.031 491.978 424.031 475.41V400.16Z" fill="url(#paint33_linear_19_143)"/>
<g style="mix-blend-mode:lighten" opacity="0.5">
<rect x="439" y="410" width="18" height="76" rx="9" fill="#FFFBFB"/>
</g>
<mask id="mask7_19_143" style="mask-type:alpha" maskUnits="userSpaceOnUse" x="424" y="391" width="82" height="115">
<path d="M424.031 401C424.031 395.477 428.508 391 434.031 391H495.158C500.681 391 505.158 395.477 505.158 401V480.41C505.158 494.217 493.965 505.41 480.158 505.41H449.031C435.224 505.41 424.031 494.217 424.031 480.41V401Z" fill="#EEEEEE"/>
</mask>
<g mask="url(#mask7_19_143)">
<rect x="412.59" y="426.363" width="113.369" height="44.7237" fill="#C4C4C4"/>
<rect x="412.59" y="426.363" width="113.369" height="44.7237" fill="url(#paint34_linear_19_143)"/>
<path fill-rule="evenodd" clip-rule="evenodd" d="M439 471.087V426.363H457V471.087H439Z" fill="#71DA6F"/>
</g>
<path d="M476.792 508.196C488.759 503.24 495.364 498.629 514.084 490.017L514.929 490.017L495.206 501.854L512.393 501.008L491.255 504.39L478.527 511.743L476.792 508.196Z" fill="#4AC148"/>
<path d="M513.882 490.218C512.87 487.586 512.304 480.987 518.133 475.643C519.55 478.477 520.684 485.359 513.882 490.218Z" fill="#4AC148"/>
<mask id="mask8_19_143" style="mask-type:alpha" maskUnits="userSpaceOnUse" x="513" y="475" width="7" height="16">
<path d="M513.882 490.218C512.87 487.586 512.304 480.987 518.133 475.643C519.55 478.477 520.684 485.359 513.882 490.218Z" fill="#838383"/>
</mask>
<g mask="url(#mask8_19_143)">
<path d="M518.133 475.643C515.704 480.501 514.287 487.384 513.882 490.218L511.453 489.003L510.239 478.072C513.882 475.238 520.562 470.785 518.133 475.643Z" fill="#369434"/>
</g>
<path d="M513.425 490.847C514.782 489.027 519.378 486.255 526.907 489.727C523.981 490.824 517.189 492.583 513.425 490.847Z" fill="#369434"/>
<mask id="mask9_19_143" style="mask-type:alpha" maskUnits="userSpaceOnUse" x="513" y="488" width="14" height="4">
<path d="M513.425 490.847C514.782 489.027 519.378 486.255 526.907 489.727C523.981 490.824 517.189 492.583 513.425 490.847Z" fill="#666666"/>
</mask>
<g mask="url(#mask9_19_143)">
<path d="M527.729 489.726C522.994 489.049 516.173 490.007 513.355 490.571V493.108L526.883 495.644C529.138 493.953 532.464 490.402 527.729 489.726Z" fill="#4AC148"/>
</g>
<path d="M499.71 501.854C503.092 499.036 513.069 494.752 525.921 500.163C521.975 503.827 511.209 509.295 499.71 501.854Z" fill="#369434"/>
<mask id="mask10_19_143" style="mask-type:alpha" maskUnits="userSpaceOnUse" x="499" y="497" width="27" height="9">
<path d="M499.71 501.854C503.092 499.036 513.069 494.752 525.921 500.163C521.975 503.827 511.209 509.295 499.71 501.854Z" fill="#666666"/>
</mask>
<g mask="url(#mask10_19_143)">
<path d="M525.921 500.163C517.804 502.192 505.065 502.136 499.71 501.854L503.092 510.309L530.994 506.927C532.685 503.827 534.038 498.134 525.921 500.163Z" fill="#4AC148"/>
</g>
<path d="M499.943 496.781C497.407 491.426 495.99 477.334 508.165 463.806C511.547 471.416 512.393 489.171 499.943 496.781Z" fill="#369434"/>
<mask id="mask11_19_143" style="mask-type:alpha" maskUnits="userSpaceOnUse" x="498" y="463" width="13" height="34">
<path d="M499.943 496.781C497.407 491.426 495.99 477.334 508.165 463.806C511.547 471.416 512.393 489.171 499.943 496.781Z" fill="#666666"/>
</mask>
<g mask="url(#mask11_19_143)">
<path d="M508.165 463.806C508.165 473.276 502.529 489.735 499.71 496.781L514.084 491.708L518.311 472.261C514.929 465.497 508.165 454.336 508.165 463.806Z" fill="#4AC148"/>
</g>
<path d="M545 606.727C545 620.757 542.426 630.221 535.735 631.765C533.719 631.765 530.287 630.833 528.672 628.574C525.505 624.144 523.382 616.018 523.382 606.727C523.382 597.436 525.505 589.31 528.672 584.881C530.287 582.621 533.162 580.809 535.735 581.324C542.426 582.868 545 592.697 545 606.727Z" fill="url(#paint35_linear_19_143)"/>
<path d="M528.672 584.881C530.287 582.621 533.162 580.809 535.735 581.324L527.5 579.265L528.672 584.881Z" fill="url(#paint36_linear_19_143)"/>
<path d="M535.735 631.765C533.719 631.765 530.287 630.833 528.672 628.574L528.015 633.824L535.735 631.765Z" fill="url(#paint37_linear_19_143)"/>
<path d="M539.194 605.515C539.194 625.129 529.23 641.029 516.938 641.029C512.786 641.029 508.9 639.215 505.574 636.056C499.052 629.864 494.682 618.504 494.682 605.515C494.682 592.526 499.052 581.166 505.574 574.973C508.9 571.814 512.786 570 516.938 570C529.23 570 539.194 585.9 539.194 605.515Z" fill="url(#paint38_linear_19_143)"/>
<path d="M505.574 574.973C508.9 571.814 512.786 570 516.938 570H505.574V574.973Z" fill="url(#paint39_linear_19_143)"/>
<path d="M516.938 641.029C512.786 641.029 508.9 639.215 505.574 636.056V641.029H516.938Z" fill="url(#paint40_linear_19_143)"/>
<ellipse cx="506.521" cy="605.515" rx="22.2559" ry="35.5147" fill="#838383"/>
<ellipse cx="506.521" cy="605.515" rx="22.2559" ry="35.5147" fill="url(#paint41_linear_19_143)"/>
<path d="M396.765 600.882H506.521C506.803 600.882 507.077 600.979 507.297 601.156C509.746 603.133 509.746 606.867 507.297 608.844C507.077 609.021 506.803 609.118 506.521 609.118H396.765V600.882Z" fill="white"/>
<path d="M396.765 600.882H506.521C506.803 600.882 507.077 600.979 507.297 601.156C509.746 603.133 509.746 606.867 507.297 608.844C507.077 609.021 506.803 609.118 506.521 609.118H396.765V600.882Z" fill="url(#paint42_linear_19_143)"/>
<path d="M429.418 605.515C429.418 625.129 419.453 641.029 407.162 641.029C403.01 641.029 399.123 639.215 395.797 636.056C389.275 629.864 384.906 618.504 384.906 605.515C384.906 592.526 389.275 581.166 395.797 574.973C399.123 571.814 403.01 570 407.162 570C419.453 570 429.418 585.9 429.418 605.515Z" fill="#666666"/>
<path d="M429.418 605.515C429.418 625.129 419.453 641.029 407.162 641.029C403.01 641.029 399.123 639.215 395.797 636.056C389.275 629.864 384.906 618.504 384.906 605.515C384.906 592.526 389.275 581.166 395.797 574.973C399.123 571.814 403.01 570 407.162 570C419.453 570 429.418 585.9 429.418 605.515Z" fill="url(#paint43_linear_19_143)"/>
<path d="M395.797 574.973C399.123 571.814 403.01 570 407.162 570H395.797V574.973Z" fill="#666666"/>
<path d="M395.797 574.973C399.123 571.814 403.01 570 407.162 570H395.797V574.973Z" fill="url(#paint44_linear_19_143)"/>
<path d="M407.162 641.029C403.01 641.029 399.123 639.215 395.797 636.056V641.029H407.162Z" fill="#666666"/>
<path d="M407.162 641.029C403.01 641.029 399.123 639.215 395.797 636.056V641.029H407.162Z" fill="url(#paint45_linear_19_143)"/>
<ellipse cx="396.744" cy="605.515" rx="22.2559" ry="35.5147" fill="#838383"/>
<ellipse cx="396.744" cy="605.515" rx="22.2559" ry="35.5147" fill="url(#paint46_linear_19_143)"/>
<path d="M406.935 605.204C406.935 618.393 400.235 629.085 391.97 629.085C389.178 629.085 386.565 627.865 384.328 625.741C379.943 621.577 377.005 613.938 377.005 605.204C377.005 596.47 379.943 588.831 384.328 584.667C386.565 582.543 389.178 581.324 391.97 581.324C400.235 581.324 406.935 592.015 406.935 605.204Z" fill="#666666"/>
<path d="M406.935 605.204C406.935 618.393 400.235 629.085 391.97 629.085C389.178 629.085 386.565 627.865 384.328 625.741C379.943 621.577 377.005 613.938 377.005 605.204C377.005 596.47 379.943 588.831 384.328 584.667C386.565 582.543 389.178 581.324 391.97 581.324C400.235 581.324 406.935 592.015 406.935 605.204Z" fill="url(#paint47_linear_19_143)"/>
<path d="M384.328 584.667C386.565 582.543 389.178 581.324 391.97 581.324H384.328V584.667Z" fill="#666666"/>
<path d="M384.328 584.667C386.565 582.543 389.178 581.324 391.97 581.324H384.328V584.667Z" fill="url(#paint48_linear_19_143)"/>
<path d="M391.97 629.085C389.178 629.085 386.565 627.865 384.328 625.741V629.085H391.97Z" fill="#666666"/>
<path d="M391.97 629.085C389.178 629.085 386.565 627.865 384.328 625.741V629.085H391.97Z" fill="url(#paint49_linear_19_143)"/>
<ellipse cx="384.965" cy="605.204" rx="14.9652" ry="23.8806" fill="#929292"/>
<ellipse cx="384.965" cy="605.204" rx="14.9652" ry="23.8806" fill="url(#paint50_linear_19_143)"/>
<ellipse cx="382.971" cy="605.041" rx="4.73529" ry="7.57647" fill="#6468BE"/>
<rect x="168" y="513" width="183" height="114" rx="20" fill="white"/>
<mask id="mask12_19_143" style="mask-type:alpha" maskUnits="userSpaceOnUse" x="168" y="513" width="183" height="114">
<rect x="168" y="513" width="183" height="114" rx="20" fill="white"/>
</mask>
<g mask="url(#mask12_19_143)">
<rect x="146" y="551" width="240" height="52" fill="#43A37A"/>
<rect x="146" y="585" width="240" height="52" fill="#E34040"/>
</g>
<rect x="620" y="271" width="183" height="114" rx="20" fill="#4F4F4F"/>
<rect x="620" y="271" width="183" height="114" rx="20" fill="url(#paint51_linear_19_143)"/>
<path d="M650.5 287L653.755 297.019L664.29 297.019L655.767 303.211L659.023 313.231L650.5 307.039L641.977 313.231L645.233 303.211L636.71 297.019L647.245 297.019L650.5 287Z" fill="#FFE600"/>
<path d="M643.5 323L645.184 328.182H650.633L646.225 331.385L647.908 336.568L643.5 333.365L639.092 336.568L640.775 331.385L636.367 328.182H641.816L643.5 323Z" fill="#FFE600"/>
<path d="M664.5 319L666.184 324.182H671.633L667.225 327.385L668.908 332.568L664.5 329.365L660.092 332.568L661.775 327.385L657.367 324.182H662.816L664.5 319Z" fill="#FFE600"/>
<path d="M678.5 303L680.184 308.182H685.633L681.225 311.385L682.908 316.568L678.5 313.365L674.092 316.568L675.775 311.385L671.367 308.182H676.816L678.5 303Z" fill="#FFE600"/>
<path d="M678.5 283L680.184 288.182H685.633L681.225 291.385L682.908 296.568L678.5 293.365L674.092 296.568L675.775 291.385L671.367 288.182H676.816L678.5 283Z" fill="#FFE600"/>
<path d="M639.896 435.552C636.888 438.88 631.64 443.36 627.8 446.048L630.68 448.16C634.712 445.6 639.768 441.568 643.736 437.92L639.896 435.552ZM609.752 437.792C612.76 440.288 616.152 443.808 617.688 446.176L620.952 443.552C619.416 441.248 615.96 437.792 612.952 435.488L609.752 437.792ZM612.504 418.592V422.368H637.208V418.592H612.504ZM609.176 428.448V432.672H644.376V428.448H609.176ZM624.024 431.072V459.872C624.024 460.576 623.768 460.768 623.064 460.832C622.232 460.832 619.864 460.832 617.176 460.704C617.816 461.984 618.456 463.776 618.648 464.992C622.36 464.992 624.792 464.864 626.392 464.224C627.992 463.52 628.44 462.304 628.44 459.872V431.072H624.024ZM606.936 455.776L609.624 459.488C614.424 456.224 620.504 451.936 626.136 447.776L624.792 444.384C618.328 448.672 611.416 453.152 606.936 455.776ZM628.12 440.416L624.856 441.44C628.184 449.504 634.584 456.736 642.2 460.064C642.84 458.912 644.184 457.248 645.208 456.416C637.656 453.728 631.192 447.392 628.12 440.416ZM611.16 408.864V412.96H637.08V408.864H611.16ZM635.16 408.864V409.44C635.096 414.048 634.712 423.264 634.2 429.728L638.808 429.984C639.32 423.584 639.704 415.072 639.832 408.864L636.44 408.608L635.672 408.864H635.16ZM587.224 448.352C587.224 447.392 590.424 445.92 590.424 445.92V445.792C596.184 439.584 602.136 430.88 606.808 422.24L602.712 419.872C598.616 428.448 592.344 437.408 590.36 439.712C588.44 442.08 587.032 443.744 585.688 443.936C586.2 445.152 586.968 447.392 587.224 448.352ZM587.224 448.352C588.44 447.648 590.552 447.008 605.208 444.064C605.144 443.04 605.144 441.248 605.272 439.968L589.272 442.912L586.968 444.512L587.224 448.352ZM586.776 432.992C586.776 431.968 589.72 430.432 589.72 430.432V430.24C594.008 424.48 598.36 416.224 601.432 408.416L596.76 406.304C594.392 413.92 590.04 422.176 588.696 424.352C587.416 426.464 586.328 428 585.176 428.256C585.752 429.6 586.52 431.968 586.776 432.992ZM586.776 432.992C587.8 432.48 589.592 432.032 599.896 430.752C599.832 429.792 600.024 428 600.216 426.784L589.016 427.936L586.712 429.408L586.776 432.992ZM585.624 456.608L586.712 461.28C592.088 459.552 599.064 457.376 605.784 455.2L605.08 451.168C597.784 453.28 590.552 455.392 585.624 456.608ZM658.52 440.032V444.576H699.416V440.032H658.52ZM676.248 432.416V465.184H681.112V432.416H676.248ZM664.088 447.968C661.336 452.768 656.408 457.312 651.48 460.256C652.632 460.96 654.616 462.56 655.512 463.52C660.44 460.128 665.816 454.944 669.016 449.44L664.088 447.968ZM688.024 450.336C692.952 454.112 698.84 459.616 701.528 463.2L705.624 460.32C702.744 456.672 696.728 451.424 691.8 447.712L688.024 450.336ZM678.808 423.84C684.952 431.072 696.6 437.984 706.392 441.504C707.032 440.224 708.12 438.432 709.144 437.216C699.032 434.144 687.896 427.68 680.984 419.68H676.12C670.872 426.72 660.312 434.08 649.176 437.984C650.072 439.072 651.16 440.864 651.672 442.08C662.552 437.792 673.432 430.56 678.808 423.84ZM650.904 411.808V416.288H707.224V411.808H650.904ZM664.856 406.304V423.072H669.592V406.304H664.856ZM687.896 406.304V423.072H692.632V406.304H687.896Z" fill="#A56884"/>
<path d="M594.191 490.363V491.828H584.406V490.363H594.191ZM594.191 493.773V495.227H584.406V493.773H594.191ZM588.625 491.195L592.926 481.938H595.422L590.348 491.922H588.906L588.625 491.195ZM585.719 481.938L590.043 491.277L589.703 491.922H588.273L583.176 481.938H585.719ZM590.383 489.93V499H588.133V489.93H590.383ZM608.207 497.219V499H597.039V497.441L602.629 491.219C603.316 490.453 603.848 489.805 604.223 489.273C604.605 488.734 604.871 488.254 605.02 487.832C605.176 487.402 605.254 486.965 605.254 486.52C605.254 485.957 605.137 485.449 604.902 484.996C604.676 484.535 604.34 484.168 603.895 483.895C603.449 483.621 602.91 483.484 602.277 483.484C601.52 483.484 600.887 483.633 600.379 483.93C599.879 484.219 599.504 484.625 599.254 485.148C599.004 485.672 598.879 486.273 598.879 486.953H596.711C596.711 485.992 596.922 485.113 597.344 484.316C597.766 483.52 598.391 482.887 599.219 482.418C600.047 481.941 601.066 481.703 602.277 481.703C603.355 481.703 604.277 481.895 605.043 482.277C605.809 482.652 606.395 483.184 606.801 483.871C607.215 484.551 607.422 485.348 607.422 486.262C607.422 486.762 607.336 487.27 607.164 487.785C607 488.293 606.77 488.801 606.473 489.309C606.184 489.816 605.844 490.316 605.453 490.809C605.07 491.301 604.66 491.785 604.223 492.262L599.652 497.219H608.207ZM621.238 489.109V491.711C621.238 493.109 621.113 494.289 620.863 495.25C620.613 496.211 620.254 496.984 619.785 497.57C619.316 498.156 618.75 498.582 618.086 498.848C617.43 499.105 616.688 499.234 615.859 499.234C615.203 499.234 614.598 499.152 614.043 498.988C613.488 498.824 612.988 498.562 612.543 498.203C612.105 497.836 611.73 497.359 611.418 496.773C611.105 496.188 610.867 495.477 610.703 494.641C610.539 493.805 610.457 492.828 610.457 491.711V489.109C610.457 487.711 610.582 486.539 610.832 485.594C611.09 484.648 611.453 483.891 611.922 483.32C612.391 482.742 612.953 482.328 613.609 482.078C614.273 481.828 615.016 481.703 615.836 481.703C616.5 481.703 617.109 481.785 617.664 481.949C618.227 482.105 618.727 482.359 619.164 482.711C619.602 483.055 619.973 483.516 620.277 484.094C620.59 484.664 620.828 485.363 620.992 486.191C621.156 487.02 621.238 487.992 621.238 489.109ZM619.059 492.062V488.746C619.059 487.98 619.012 487.309 618.918 486.73C618.832 486.145 618.703 485.645 618.531 485.23C618.359 484.816 618.141 484.48 617.875 484.223C617.617 483.965 617.316 483.777 616.973 483.66C616.637 483.535 616.258 483.473 615.836 483.473C615.32 483.473 614.863 483.57 614.465 483.766C614.066 483.953 613.73 484.254 613.457 484.668C613.191 485.082 612.988 485.625 612.848 486.297C612.707 486.969 612.637 487.785 612.637 488.746V492.062C612.637 492.828 612.68 493.504 612.766 494.09C612.859 494.676 612.996 495.184 613.176 495.613C613.355 496.035 613.574 496.383 613.832 496.656C614.09 496.93 614.387 497.133 614.723 497.266C615.066 497.391 615.445 497.453 615.859 497.453C616.391 497.453 616.855 497.352 617.254 497.148C617.652 496.945 617.984 496.629 618.25 496.199C618.523 495.762 618.727 495.203 618.859 494.523C618.992 493.836 619.059 493.016 619.059 492.062Z" fill="#EAB1B1"/>
<path d="M611.84 569.716V574.422H596.459V603H590.768V569.716H611.84ZM622.945 593.987L638.295 569.716H644.017V603H638.295V578.729L622.945 603H617.285V569.716H622.945V593.987ZM658.844 576.114V615.797H653.122V569.716H658.352L658.844 576.114ZM681.269 586.081V586.727C681.269 589.147 680.982 591.393 680.408 593.464C679.833 595.515 678.993 597.299 677.885 598.816C676.798 600.334 675.455 601.513 673.855 602.354C672.256 603.195 670.42 603.615 668.349 603.615C666.237 603.615 664.371 603.267 662.75 602.569C661.13 601.872 659.756 600.857 658.628 599.524C657.5 598.191 656.598 596.591 655.921 594.725C655.265 592.859 654.814 590.757 654.568 588.419V584.974C654.814 582.513 655.275 580.308 655.952 578.36C656.629 576.412 657.521 574.75 658.628 573.376C659.756 571.982 661.12 570.926 662.72 570.208C664.319 569.47 666.165 569.101 668.257 569.101C670.349 569.101 672.205 569.511 673.825 570.331C675.445 571.131 676.809 572.279 677.916 573.776C679.023 575.273 679.854 577.068 680.408 579.16C680.982 581.231 681.269 583.538 681.269 586.081ZM675.547 586.727V586.081C675.547 584.42 675.373 582.861 675.024 581.405C674.676 579.929 674.132 578.637 673.394 577.529C672.676 576.401 671.753 575.52 670.625 574.884C669.498 574.228 668.154 573.899 666.596 573.899C665.16 573.899 663.909 574.146 662.843 574.638C661.797 575.13 660.905 575.796 660.167 576.637C659.428 577.458 658.823 578.401 658.352 579.467C657.9 580.513 657.562 581.6 657.336 582.728V590.695C657.747 592.131 658.321 593.484 659.059 594.756C659.797 596.007 660.782 597.022 662.012 597.801C663.243 598.56 664.791 598.939 666.657 598.939C668.195 598.939 669.518 598.622 670.625 597.986C671.753 597.33 672.676 596.438 673.394 595.31C674.132 594.182 674.676 592.89 675.024 591.434C675.373 589.957 675.547 588.388 675.547 586.727ZM708.155 597.309V580.175C708.155 578.862 707.888 577.724 707.355 576.76C706.842 575.776 706.063 575.017 705.017 574.484C703.971 573.951 702.679 573.684 701.141 573.684C699.706 573.684 698.444 573.93 697.357 574.422C696.291 574.915 695.45 575.561 694.835 576.36C694.24 577.16 693.943 578.021 693.943 578.944H688.252C688.252 577.755 688.56 576.576 689.175 575.407C689.79 574.238 690.672 573.182 691.82 572.238C692.989 571.274 694.384 570.516 696.004 569.962C697.645 569.388 699.47 569.101 701.479 569.101C703.899 569.101 706.032 569.511 707.878 570.331C709.744 571.151 711.2 572.392 712.246 574.053C713.312 575.694 713.846 577.755 713.846 580.236V595.74C713.846 596.848 713.938 598.027 714.123 599.278C714.328 600.529 714.625 601.605 715.015 602.508V603H709.078C708.791 602.344 708.565 601.472 708.401 600.385C708.237 599.278 708.155 598.252 708.155 597.309ZM709.139 582.82L709.201 586.819H703.448C701.828 586.819 700.382 586.953 699.111 587.219C697.839 587.465 696.773 587.845 695.912 588.357C695.05 588.87 694.394 589.516 693.943 590.295C693.492 591.054 693.266 591.946 693.266 592.972C693.266 594.018 693.502 594.971 693.974 595.833C694.445 596.694 695.153 597.381 696.096 597.894C697.06 598.386 698.239 598.632 699.634 598.632C701.377 598.632 702.915 598.263 704.248 597.524C705.581 596.786 706.637 595.884 707.417 594.817C708.216 593.751 708.647 592.715 708.708 591.71L711.139 594.448C710.995 595.31 710.605 596.263 709.97 597.309C709.334 598.355 708.483 599.36 707.417 600.324C706.371 601.267 705.12 602.057 703.664 602.692C702.228 603.308 700.608 603.615 698.803 603.615C696.547 603.615 694.568 603.174 692.866 602.292C691.185 601.411 689.872 600.231 688.929 598.755C688.006 597.258 687.544 595.586 687.544 593.741C687.544 591.957 687.893 590.388 688.59 589.034C689.288 587.66 690.292 586.522 691.605 585.62C692.917 584.697 694.497 584 696.342 583.528C698.188 583.056 700.249 582.82 702.525 582.82H709.139Z" fill="#A56884"/>
<path d="M596.125 629.32V631.113H589.996V629.32H596.125ZM598.035 629.32V642H595.867V629.32H598.035ZM589.469 629.32H591.648L591.32 635.438C591.266 636.383 591.176 637.219 591.051 637.945C590.934 638.664 590.77 639.281 590.559 639.797C590.355 640.312 590.098 640.734 589.785 641.062C589.48 641.383 589.113 641.621 588.684 641.777C588.254 641.926 587.758 642 587.195 642H586.516V640.09L586.984 640.055C587.32 640.031 587.605 639.953 587.84 639.82C588.082 639.688 588.285 639.492 588.449 639.234C588.613 638.969 588.746 638.629 588.848 638.215C588.957 637.801 589.039 637.309 589.094 636.738C589.156 636.168 589.203 635.504 589.234 634.746L589.469 629.32ZM607.48 636.422H603.32L603.297 634.688H606.695C607.367 634.688 607.926 634.621 608.371 634.488C608.824 634.355 609.164 634.156 609.391 633.891C609.617 633.625 609.73 633.297 609.73 632.906C609.73 632.602 609.664 632.336 609.531 632.109C609.406 631.875 609.215 631.684 608.957 631.535C608.699 631.379 608.379 631.266 607.996 631.195C607.621 631.117 607.18 631.078 606.672 631.078H603.895V642H601.727V629.32H606.672C607.477 629.32 608.199 629.391 608.84 629.531C609.488 629.672 610.039 629.887 610.492 630.176C610.953 630.457 611.305 630.816 611.547 631.254C611.789 631.691 611.91 632.207 611.91 632.801C611.91 633.184 611.832 633.547 611.676 633.891C611.52 634.234 611.289 634.539 610.984 634.805C610.68 635.07 610.305 635.289 609.859 635.461C609.414 635.625 608.902 635.73 608.324 635.777L607.48 636.422ZM607.48 642H602.535L603.613 640.242H607.48C608.082 640.242 608.582 640.168 608.98 640.02C609.379 639.863 609.676 639.645 609.871 639.363C610.074 639.074 610.176 638.73 610.176 638.332C610.176 637.934 610.074 637.594 609.871 637.312C609.676 637.023 609.379 636.805 608.98 636.656C608.582 636.5 608.082 636.422 607.48 636.422H604.188L604.211 634.688H608.324L609.109 635.344C609.805 635.398 610.395 635.57 610.879 635.859C611.363 636.148 611.73 636.516 611.98 636.961C612.23 637.398 612.355 637.875 612.355 638.391C612.355 638.984 612.242 639.508 612.016 639.961C611.797 640.414 611.477 640.793 611.055 641.098C610.633 641.395 610.121 641.621 609.52 641.777C608.918 641.926 608.238 642 607.48 642ZM624.145 632.402H625.691C626.449 632.402 627.074 632.277 627.566 632.027C628.066 631.77 628.438 631.422 628.68 630.984C628.93 630.539 629.055 630.039 629.055 629.484C629.055 628.828 628.945 628.277 628.727 627.832C628.508 627.387 628.18 627.051 627.742 626.824C627.305 626.598 626.75 626.484 626.078 626.484C625.469 626.484 624.93 626.605 624.461 626.848C624 627.082 623.637 627.418 623.371 627.855C623.113 628.293 622.984 628.809 622.984 629.402H620.816C620.816 628.535 621.035 627.746 621.473 627.035C621.91 626.324 622.523 625.758 623.312 625.336C624.109 624.914 625.031 624.703 626.078 624.703C627.109 624.703 628.012 624.887 628.785 625.254C629.559 625.613 630.16 626.152 630.59 626.871C631.02 627.582 631.234 628.469 631.234 629.531C631.234 629.961 631.133 630.422 630.93 630.914C630.734 631.398 630.426 631.852 630.004 632.273C629.59 632.695 629.051 633.043 628.387 633.316C627.723 633.582 626.926 633.715 625.996 633.715H624.145V632.402ZM624.145 634.184V632.883H625.996C627.082 632.883 627.98 633.012 628.691 633.27C629.402 633.527 629.961 633.871 630.367 634.301C630.781 634.73 631.07 635.203 631.234 635.719C631.406 636.227 631.492 636.734 631.492 637.242C631.492 638.039 631.355 638.746 631.082 639.363C630.816 639.98 630.438 640.504 629.945 640.934C629.461 641.363 628.891 641.688 628.234 641.906C627.578 642.125 626.863 642.234 626.09 642.234C625.348 642.234 624.648 642.129 623.992 641.918C623.344 641.707 622.77 641.402 622.27 641.004C621.77 640.598 621.379 640.102 621.098 639.516C620.816 638.922 620.676 638.246 620.676 637.488H622.844C622.844 638.082 622.973 638.602 623.23 639.047C623.496 639.492 623.871 639.84 624.355 640.09C624.848 640.332 625.426 640.453 626.09 640.453C626.754 640.453 627.324 640.34 627.801 640.113C628.285 639.879 628.656 639.527 628.914 639.059C629.18 638.59 629.312 638 629.312 637.289C629.312 636.578 629.164 635.996 628.867 635.543C628.57 635.082 628.148 634.742 627.602 634.523C627.062 634.297 626.426 634.184 625.691 634.184H624.145ZM645.191 632.109V634.711C645.191 636.109 645.066 637.289 644.816 638.25C644.566 639.211 644.207 639.984 643.738 640.57C643.27 641.156 642.703 641.582 642.039 641.848C641.383 642.105 640.641 642.234 639.812 642.234C639.156 642.234 638.551 642.152 637.996 641.988C637.441 641.824 636.941 641.562 636.496 641.203C636.059 640.836 635.684 640.359 635.371 639.773C635.059 639.188 634.82 638.477 634.656 637.641C634.492 636.805 634.41 635.828 634.41 634.711V632.109C634.41 630.711 634.535 629.539 634.785 628.594C635.043 627.648 635.406 626.891 635.875 626.32C636.344 625.742 636.906 625.328 637.562 625.078C638.227 624.828 638.969 624.703 639.789 624.703C640.453 624.703 641.062 624.785 641.617 624.949C642.18 625.105 642.68 625.359 643.117 625.711C643.555 626.055 643.926 626.516 644.23 627.094C644.543 627.664 644.781 628.363 644.945 629.191C645.109 630.02 645.191 630.992 645.191 632.109ZM643.012 635.062V631.746C643.012 630.98 642.965 630.309 642.871 629.73C642.785 629.145 642.656 628.645 642.484 628.23C642.312 627.816 642.094 627.48 641.828 627.223C641.57 626.965 641.27 626.777 640.926 626.66C640.59 626.535 640.211 626.473 639.789 626.473C639.273 626.473 638.816 626.57 638.418 626.766C638.02 626.953 637.684 627.254 637.41 627.668C637.145 628.082 636.941 628.625 636.801 629.297C636.66 629.969 636.59 630.785 636.59 631.746V635.062C636.59 635.828 636.633 636.504 636.719 637.09C636.812 637.676 636.949 638.184 637.129 638.613C637.309 639.035 637.527 639.383 637.785 639.656C638.043 639.93 638.34 640.133 638.676 640.266C639.02 640.391 639.398 640.453 639.812 640.453C640.344 640.453 640.809 640.352 641.207 640.148C641.605 639.945 641.938 639.629 642.203 639.199C642.477 638.762 642.68 638.203 642.812 637.523C642.945 636.836 643.012 636.016 643.012 635.062Z" fill="#EBB5B5"/>
<path d="M538 1561V1127.5L0 1126V1561H538Z" fill="url(#paint52_linear_19_143)"/>
<ellipse cx="269" cy="1127" rx="269" ry="118" fill="url(#paint53_linear_19_143)"/>
<path d="M302 1080.25L234.5 1129L233.364 1067.93L302 1032.57V1080.25Z" fill="url(#paint54_linear_19_143)"/>
<path d="M151 1094.39V1041.14L234.612 1065.64V1129L151 1094.39Z" fill="url(#paint55_linear_19_143)"/>
<path d="M221.467 1009L151 1041.14L234.712 1069L302 1032.57L221.467 1009Z" fill="url(#paint56_linear_19_143)"/>
<g style="mix-blend-mode:multiply" opacity="0.5">
<path d="M205.5 1051C205.1 1049 209.667 1046.17 212 1045C224.333 1037.83 249.6 1023.2 252 1022C255 1020.5 258.5 1021.5 258 1023.5C257.5 1025.5 221.5 1045 215.5 1049C209.5 1053 206 1053.5 205.5 1051Z" fill="#FFBB8D"/>
</g>
<path d="M198.713 1021.42C214.683 1028.9 211.808 1043.59 208.374 1049.99L254.839 1023.91C257.979 1012.86 259.862 990.392 242.276 988.891C224.69 987.389 217.545 974.845 216.17 968.761C204.468 976.614 176.102 984.668 163.381 987.714C169.769 1006.25 178.751 1012.07 198.713 1021.42Z" fill="white"/>
<path d="M335.695 967.142C334.997 962.486 337.642 957.975 342.044 956.308L346.128 954.763C369.514 945.91 395.369 946.141 418.594 955.41L421.128 956.421C425.211 958.051 427.751 962.156 427.387 966.538L418.528 1073.02C418.27 1076.12 416.253 1078.79 413.345 1079.89L409.742 1081.24C392.277 1087.82 372.927 1087.25 355.873 1079.68C353.654 1078.69 352.092 1076.64 351.732 1074.24L335.695 967.142Z" fill="#FBFBFB"/>
<ellipse cx="381.497" cy="963.921" rx="42.545" ry="11.2443" fill="#E7E1E8"/>
<path d="M356.301 1070.63L344.889 993.794L420.085 993.329L412.493 1070.44C412.292 1072.48 411.033 1074.26 409.179 1075.13C393.524 1082.49 375.271 1082.42 359.616 1075.07C357.843 1074.24 356.589 1072.57 356.301 1070.63Z" fill="url(#paint57_linear_19_143)"/>
<ellipse cx="382.487" cy="994.194" rx="37.5979" ry="9.51437" fill="url(#paint58_linear_19_143)"/>
<g style="mix-blend-mode:multiply" opacity="0.3">
<path d="M418.674 1119.62C415.887 1126.58 407.987 1129.96 401.03 1127.17C394.073 1124.38 390.692 1116.48 393.479 1109.53C396.266 1102.57 404.165 1099.19 411.123 1101.98C418.08 1104.76 421.461 1112.66 418.674 1119.62Z" fill="#FEE4E4"/>
<path d="M278.118 1143.32C277.515 1140.53 279.285 1137.78 282.073 1137.18L399.819 1111.69C402.607 1111.09 405.356 1112.86 405.959 1115.65C406.563 1118.43 404.792 1121.18 402.004 1121.79L284.258 1147.27C281.471 1147.88 278.721 1146.11 278.118 1143.32Z" fill="#FEE4E4"/>
</g>
<path d="M418.831 1113.91C416.044 1120.87 408.145 1124.25 401.188 1121.47C394.23 1118.68 390.85 1110.78 393.637 1103.82C396.424 1096.86 404.323 1093.48 411.28 1096.27C418.237 1099.06 421.618 1106.96 418.831 1113.91Z" fill="white"/>
<path d="M278.275 1137.61C277.672 1134.83 279.443 1132.08 282.23 1131.47L399.977 1105.98C402.764 1105.38 405.513 1107.15 406.117 1109.94C406.72 1112.73 404.95 1115.48 402.162 1116.08L284.416 1141.57C281.628 1142.17 278.879 1140.4 278.275 1137.61Z" fill="white"/>
<rect x="302.035" y="1129.91" width="105.951" height="5.03986" rx="2.51993" transform="rotate(-12.2145 302.035 1129.91)" fill="#E45656"/>
<circle cx="404.53" cy="1109.96" r="8.055" transform="rotate(21.8303 404.53 1109.96)" fill="#E45656"/>
<path d="M1456.83 1192.86C1452.14 1219.46 1445.98 1254.49 1603.57 1290.4C1677.92 1276.1 1698.73 1250.14 1688.66 1171C1667.16 1002 1574.8 839.292 1513.66 865.5C1461.8 887.729 1526.73 926.666 1527.33 943.275C1527.94 959.885 1492.75 929.513 1474 951.72C1455.24 973.927 1470.05 1013.09 1487.29 1035.67C1504.53 1058.26 1549.67 1138.69 1537.02 1167.52C1524.37 1196.35 1462.78 1159.03 1456.92 1192.35L1456.83 1192.86Z" fill="url(#paint59_linear_19_143)"/>
<path d="M1685.11 1242.79C1680.46 1231.98 1674.43 1218.73 1667.36 1204.09M1546.5 1022.76C1551.38 1026.53 1556.35 1031.02 1561.35 1036.1M1625.7 1125.64L1591.12 1010.12M1625.7 1125.64C1615.25 1107.81 1604.2 1090.36 1592.97 1074.63M1625.7 1125.64C1636.41 1143.9 1646.48 1162.55 1655.47 1180.15M1567.38 930.859L1575.58 958.244M1591.12 1010.12L1599.19 958.221M1591.12 1010.12L1575.58 958.244M1575.58 958.244L1539.7 928.661M1592.97 1074.63L1515.83 1043.3M1592.97 1074.63C1582.48 1059.93 1571.82 1046.72 1561.35 1036.1M1561.35 1036.1L1538.76 973.865M1667.36 1204.09C1656.41 1207.81 1638.4 1212.16 1616.2 1214.78M1667.36 1204.09C1663.67 1196.44 1659.69 1188.41 1655.47 1180.15M1493.97 1205.72C1508.5 1210.06 1523.12 1212.96 1537.41 1214.75M1567.13 1217.01L1545.27 1184.44M1567.13 1217.01C1557.48 1216.74 1547.52 1216.02 1537.41 1214.75M1567.13 1217.01C1584.77 1217.5 1601.42 1216.53 1616.2 1214.78M1537.41 1214.75C1527.07 1222.96 1501.74 1237.56 1483.18 1230.3M1616.2 1214.78L1601.25 1178.9M1586.29 1143.01L1601.25 1178.9M1601.25 1178.9L1605.48 1147.06M1655.47 1180.15C1656.74 1161.56 1659.99 1119.9 1662.83 1102.04" stroke="#E0644F" stroke-width="5" stroke-linecap="round" stroke-linejoin="round"/>
<path d="M1887.16 965.5C1856.76 950.3 1820.5 964.5 1806.16 973.5L1671.66 1284.5C1689.16 1324.67 1734.36 1383.4 1775.16 1297C1826.16 1189 1943.16 1194 1927.16 1157.5C1914.36 1128.3 1873.83 1145.33 1855.16 1157.5C1878.66 1116.5 1925.16 984.5 1887.16 965.5Z" fill="url(#paint60_linear_19_143)"/>
<path d="M1736.66 1297C1743.24 1276.88 1752.05 1250.49 1762.02 1221.5M1848.66 997C1845.71 1002.63 1842.48 1009.36 1839.03 1017M1823.36 1054L1879.16 1006.5M1823.36 1054C1828.9 1040.25 1834.18 1027.73 1839.03 1017M1823.36 1054C1811.41 1083.65 1798.24 1119.01 1785.51 1154.5M1839.03 1017L1823.36 983M1785.51 1154.5L1848.66 1094.5M1785.51 1154.5C1780.58 1168.26 1775.72 1182.03 1771.02 1195.5M1762.02 1221.5L1746.66 1169M1762.02 1221.5C1764.93 1213.03 1767.94 1204.33 1771.02 1195.5M1771.02 1195.5L1823.36 1183.4M1885.66 1169L1854.51 1176.2M1823.36 1183.4L1833.16 1143M1823.36 1183.4L1854.51 1176.2M1854.51 1176.2L1879.16 1183.4" stroke="#E0644F" stroke-width="5" stroke-linecap="round"/>
<path d="M1596.74 1127.76C1593.7 1188.41 1619.66 1247.43 1633.01 1269.35L1694.89 1304.61C1706.08 1289.55 1729.04 1248.28 1731.3 1203.71C1734.14 1147.99 1864.32 1086 1849.43 1053.33C1834.54 1020.65 1811.28 1051.47 1803.52 1013.76C1795.76 976.053 1910.84 895.213 1869.84 857.193C1828.84 819.174 1794.42 872.706 1775.32 876.634C1756.22 880.563 1741.36 818.278 1700.22 861.452C1659.07 904.626 1667.13 1105.11 1654.9 1110.18C1642.67 1115.25 1600.55 1051.94 1596.74 1127.76Z" fill="url(#paint61_linear_19_143)"/>
<path d="M1671.8 1296.6C1674.04 1280.84 1676.93 1262 1680.36 1241.24M1762.34 925.244C1753.84 939.797 1745.46 960.698 1737.41 985.503M1737.41 985.503L1794.1 938.175M1737.41 985.503C1735.04 992.813 1732.69 1000.46 1730.38 1008.39M1825.03 912.351L1794.1 938.175M1794.1 938.175L1801.97 892.08M1730.38 1008.39L1706.09 932.219M1730.38 1008.39C1724.46 1028.68 1718.77 1050.78 1713.38 1073.65M1713.38 1073.65L1785.75 1009.25M1713.38 1073.65C1710.52 1085.8 1707.74 1098.16 1705.06 1110.58M1705.06 1110.58L1687.29 1061.66M1705.06 1110.58C1701.42 1127.48 1697.96 1144.49 1694.72 1161.2M1694.72 1161.2L1770.86 1097.05M1694.72 1161.2C1691.52 1177.71 1688.53 1193.94 1685.79 1209.49M1803.72 1069.36L1770.86 1097.05M1770.86 1097.05L1770.05 1062M1685.79 1209.49C1677.62 1203.37 1664.22 1190.81 1652.26 1174.02M1685.79 1209.49C1683.86 1220.45 1682.04 1231.08 1680.36 1241.24M1629.59 1126.11C1633.83 1144.06 1642.57 1160.43 1652.26 1174.02M1652.26 1174.02L1659.33 1131.73M1680.36 1241.24L1716.4 1203.2" stroke="#E0644F" stroke-width="5" stroke-linecap="round"/>
<path d="M1487.66 1266L1567.23 1569H1779.96L1854.66 1266H1487.66Z" fill="url(#paint62_linear_19_143)"/>
<path d="M1487.66 1266L1567.23 1569H1779.96L1854.66 1266H1487.66Z" fill="url(#paint63_linear_19_143)"/>
<path d="M1614.11 1266L1708.73 1569H1630.91L1540.4 1266H1614.11Z" fill="url(#paint64_linear_19_143)" fill-opacity="0.7"/>
<rect opacity="0.5" x="1526" y="594" width="156" height="49" rx="24.5" fill="#61185C"/>
<circle cx="1558.5" cy="618.5" r="16.5" fill="white"/>
<ellipse cx="1604" cy="618.5" rx="16" ry="16.5" fill="white"/>
<circle cx="1649.5" cy="618.5" r="16.5" fill="white"/>
<circle cx="1551" cy="619" r="2" fill="#61185C"/>
<circle cx="1567" cy="619" r="2" fill="#61185C"/>
<circle cx="1559" cy="619" r="2" fill="#61185C"/>
<path d="M1598.46 611.214C1597.11 612.057 1596.85 612.949 1596.46 614.096C1595.98 615.497 1595.91 619.137 1599.01 623.686C1602.77 629.198 1608.62 628.958 1611.35 626.911C1613.47 625.32 1612.37 624.602 1611.2 623.286C1610.38 622.355 1609.17 621.793 1607.27 623.926C1604.86 626.652 1599.3 617.346 1600.73 616.306C1603 614.66 1603 615.5 1603 612C1603 608.5 1599.88 610.316 1598.46 611.214Z" fill="#61185C"/>
<rect x="1646" y="609" width="7" height="13" rx="3.5" fill="#61185C"/>
<path d="M1644 618C1644 620 1645.1 624 1649.5 624M1649.5 624C1653.9 624 1655 620 1655 618M1649.5 624V628M1646.5 628H1652.5" stroke="#61185C" stroke-width="1.5" stroke-linecap="round"/>
<defs>
<filter id="filter0_f_19_143" x="1555" y="389" width="90" height="90" filterUnits="userSpaceOnUse" color-interpolation-filters="sRGB">
<feFlood flood-opacity="0" result="BackgroundImageFix"/>
<feBlend mode="normal" in="SourceGraphic" in2="BackgroundImageFix" result="shape"/>
<feGaussianBlur stdDeviation="12.5" result="effect1_foregroundBlur_19_143"/>
</filter>
<filter id="filter1_f_19_143" x="1473" y="389" width="90" height="90" filterUnits="userSpaceOnUse" color-interpolation-filters="sRGB">
<feFlood flood-opacity="0" result="BackgroundImageFix"/>
<feBlend mode="normal" in="SourceGraphic" in2="BackgroundImageFix" result="shape"/>
<feGaussianBlur stdDeviation="12.5" result="effect1_foregroundBlur_19_143"/>
</filter>
<filter id="filter2_f_19_143" x="1760" y="258" width="21" height="21" filterUnits="userSpaceOnUse" color-interpolation-filters="sRGB">
<feFlood flood-opacity="0" result="BackgroundImageFix"/>
<feBlend mode="normal" in="SourceGraphic" in2="BackgroundImageFix" result="shape"/>
<feGaussianBlur stdDeviation="2.5" result="effect1_foregroundBlur_19_143"/>
</filter>
<filter id="filter3_f_19_143" x="1735" y="258" width="21" height="21" filterUnits="userSpaceOnUse" color-interpolation-filters="sRGB">
<feFlood flood-opacity="0" result="BackgroundImageFix"/>
<feBlend mode="normal" in="SourceGraphic" in2="BackgroundImageFix" result="shape"/>
<feGaussianBlur stdDeviation="2.5" result="effect1_foregroundBlur_19_143"/>
</filter>
<linearGradient id="paint0_linear_19_143" x1="881.5" y1="1056.5" x2="920" y2="1402" gradientUnits="userSpaceOnUse">
<stop stop-color="#5E1859"/>
<stop offset="1" stop-color="#451041"/>
</linearGradient>
<linearGradient id="paint1_linear_19_143" x1="884.5" y1="1104" x2="730.5" y2="1262" gradientUnits="userSpaceOnUse">
<stop stop-color="#39A5D3"/>
<stop offset="1" stop-color="#275EC9"/>
</linearGradient>
<linearGradient id="paint2_linear_19_143" x1="870" y1="934" x2="923.5" y2="1133.5" gradientUnits="userSpaceOnUse">
<stop stop-color="#FFC6B4"/>
<stop offset="0.913559" stop-color="#FF9680"/>
</linearGradient>
<linearGradient id="paint3_linear_19_143" x1="940" y1="1099" x2="1069.5" y2="880" gradientUnits="userSpaceOnUse">
<stop stop-color="#DD5EAA"/>
<stop offset="1" stop-color="#A52B5E"/>
</linearGradient>
<linearGradient id="paint4_linear_19_143" x1="980.5" y1="1100.5" x2="1082" y2="1644" gradientUnits="userSpaceOnUse">
<stop stop-color="#61185C"/>
<stop offset="1" stop-color="#451041"/>
</linearGradient>
<linearGradient id="paint5_linear_19_143" x1="983" y1="565" x2="1848" y2="1916" gradientUnits="userSpaceOnUse">
<stop stop-color="#43083F"/>
<stop offset="1" stop-opacity="0"/>
</linearGradient>
<linearGradient id="paint6_linear_19_143" x1="1621.5" y1="247" x2="1337.5" y2="589.5" gradientUnits="userSpaceOnUse">
<stop stop-color="#FAD6D6"/>
<stop offset="1" stop-color="#FFEEED"/>
</linearGradient>
<linearGradient id="paint7_linear_19_143" x1="1385.5" y1="465" x2="1405.5" y2="531" gradientUnits="userSpaceOnUse">
<stop stop-color="#FFC6B5"/>
<stop offset="1" stop-color="#F07C83"/>
</linearGradient>
<linearGradient id="paint8_linear_19_143" x1="1389" y1="475" x2="1393.5" y2="490.5" gradientUnits="userSpaceOnUse">
<stop stop-color="#F07C83"/>
<stop offset="1" stop-color="#FFC6B6" stop-opacity="0"/>
</linearGradient>
<linearGradient id="paint9_linear_19_143" x1="1531.14" y1="451.976" x2="1531.14" y2="694.866" gradientUnits="userSpaceOnUse">
<stop stop-color="white"/>
<stop offset="1" stop-color="#F7E3F5"/>
</linearGradient>
<linearGradient id="paint10_linear_19_143" x1="1551.25" y1="482.715" x2="1551.25" y2="699.715" gradientUnits="userSpaceOnUse">
<stop stop-color="#47F1D3"/>
<stop offset="1" stop-color="#00735F"/>
</linearGradient>
<linearGradient id="paint11_linear_19_143" x1="1571.5" y1="495" x2="1517" y2="484" gradientUnits="userSpaceOnUse">
<stop stop-color="#FFC6B5"/>
<stop offset="1" stop-color="#F07C83"/>
</linearGradient>
<linearGradient id="paint12_linear_19_143" x1="1600.5" y1="555" x2="1600.5" y2="578" gradientUnits="userSpaceOnUse">
<stop stop-color="#470D43"/>
<stop offset="1" stop-color="#61185C"/>
</linearGradient>
<linearGradient id="paint13_linear_19_143" x1="1558" y1="279" x2="1558" y2="437" gradientUnits="userSpaceOnUse">
<stop stop-color="#F07C83"/>
<stop offset="1" stop-color="#FFC6B4"/>
</linearGradient>
<linearGradient id="paint14_linear_19_143" x1="1558" y1="279" x2="1558" y2="437" gradientUnits="userSpaceOnUse">
<stop stop-color="#F07C83"/>
<stop offset="1" stop-color="#FFC6B4"/>
</linearGradient>
<linearGradient id="paint15_linear_19_143" x1="1787" y1="68" x2="1755.5" y2="406" gradientUnits="userSpaceOnUse">
<stop stop-color="#FDE1E0"/>
<stop offset="1" stop-color="white"/>
</linearGradient>
<linearGradient id="paint16_linear_19_143" x1="1759" y1="219.5" x2="1759" y2="320.5" gradientUnits="userSpaceOnUse">
<stop stop-color="#FBD8D8"/>
<stop offset="1" stop-color="#FFF7F7"/>
</linearGradient>
<linearGradient id="paint17_linear_19_143" x1="1759" y1="280" x2="1759" y2="316" gradientUnits="userSpaceOnUse">
<stop stop-color="#FDF9FD"/>
<stop offset="1" stop-color="#F1E5F1"/>
</linearGradient>
<linearGradient id="paint18_linear_19_143" x1="1773" y1="295" x2="1773" y2="301" gradientUnits="userSpaceOnUse">
<stop stop-color="#470D43"/>
<stop offset="1" stop-color="#61185C"/>
</linearGradient>
<linearGradient id="paint19_linear_19_143" x1="1745.5" y1="300" x2="1745.5" y2="303" gradientUnits="userSpaceOnUse">
<stop stop-color="#470D43"/>
<stop offset="1" stop-color="#61185C"/>
</linearGradient>
<linearGradient id="paint20_linear_19_143" x1="1738.5" y1="300" x2="1738.5" y2="303" gradientUnits="userSpaceOnUse">
<stop stop-color="#470D43"/>
<stop offset="1" stop-color="#61185C"/>
</linearGradient>
<linearGradient id="paint21_linear_19_143" x1="980" y1="350.5" x2="1252" y2="31.5" gradientUnits="userSpaceOnUse">
<stop stop-color="#FFEEED"/>
<stop offset="1" stop-color="#FBD8D8"/>
</linearGradient>
<linearGradient id="paint22_linear_19_143" x1="1040.5" y1="189" x2="970.5" y2="202" gradientUnits="userSpaceOnUse">
<stop stop-color="#FFAD7E"/>
<stop offset="1" stop-color="#FFD9AC"/>
</linearGradient>
<linearGradient id="paint23_linear_19_143" x1="997" y1="123" x2="1134.5" y2="123" gradientUnits="userSpaceOnUse">
<stop stop-color="#3F083B"/>
<stop offset="1" stop-color="#1C041A"/>
</linearGradient>
<linearGradient id="paint24_linear_19_143" x1="1067" y1="236" x2="976" y2="232.5" gradientUnits="userSpaceOnUse">
<stop stop-color="#B2376F"/>
<stop offset="1" stop-color="#DD5FAB"/>
</linearGradient>
<linearGradient id="paint25_linear_19_143" x1="1063.42" y1="293.248" x2="1037.92" y2="283.248" gradientUnits="userSpaceOnUse">
<stop stop-color="#ED7200"/>
<stop offset="1" stop-color="#FFC123"/>
</linearGradient>
<linearGradient id="paint26_linear_19_143" x1="1080.92" y1="279.248" x2="1061.42" y2="292.248" gradientUnits="userSpaceOnUse">
<stop stop-color="#FF3636"/>
<stop offset="1" stop-color="#8B1010"/>
</linearGradient>
<linearGradient id="paint27_linear_19_143" x1="1032.87" y1="305.755" x2="1007.37" y2="295.755" gradientUnits="userSpaceOnUse">
<stop stop-color="#ED7200"/>
<stop offset="1" stop-color="#FFC123"/>
</linearGradient>
<linearGradient id="paint28_linear_19_143" x1="1047.2" y1="307.174" x2="1024.41" y2="312.621" gradientUnits="userSpaceOnUse">
<stop stop-color="#FF3636"/>
<stop offset="1" stop-color="#8B1010"/>
</linearGradient>
<linearGradient id="paint29_linear_19_143" x1="1090.42" y1="301.248" x2="1064.92" y2="291.248" gradientUnits="userSpaceOnUse">
<stop stop-color="#ED7200"/>
<stop offset="1" stop-color="#FFC123"/>
</linearGradient>
<linearGradient id="paint30_linear_19_143" x1="1107.92" y1="287.248" x2="1088.42" y2="300.248" gradientUnits="userSpaceOnUse">
<stop stop-color="#FF3636"/>
<stop offset="1" stop-color="#8B1010"/>
</linearGradient>
<linearGradient id="paint31_linear_19_143" x1="215.5" y1="440.5" x2="781" y2="630" gradientUnits="userSpaceOnUse">
<stop stop-color="#FCDBDB"/>
<stop offset="1" stop-color="#FFEDEC"/>
</linearGradient>
<linearGradient id="paint32_linear_19_143" x1="430.5" y1="451" x2="397" y2="448.5" gradientUnits="userSpaceOnUse">
<stop stop-color="#F7BDBA"/>
<stop offset="1" stop-color="white"/>
</linearGradient>
<linearGradient id="paint33_linear_19_143" x1="440" y1="439" x2="517.5" y2="441.5" gradientUnits="userSpaceOnUse">
<stop stop-color="white"/>
<stop offset="1" stop-color="#F8C8C5"/>
</linearGradient>
<linearGradient id="paint34_linear_19_143" x1="447.5" y1="446" x2="501" y2="445" gradientUnits="userSpaceOnUse">
<stop stop-color="#61D15F"/>
<stop offset="1" stop-color="#359434"/>
</linearGradient>
<linearGradient id="paint35_linear_19_143" x1="534.191" y1="579.265" x2="534.191" y2="633.824" gradientUnits="userSpaceOnUse">
<stop stop-color="#6D71C9"/>
<stop offset="1" stop-color="#232671"/>
</linearGradient>
<linearGradient id="paint36_linear_19_143" x1="534.191" y1="579.265" x2="534.191" y2="633.824" gradientUnits="userSpaceOnUse">
<stop stop-color="#6D71C9"/>
<stop offset="1" stop-color="#232671"/>
</linearGradient>
<linearGradient id="paint37_linear_19_143" x1="534.191" y1="579.265" x2="534.191" y2="633.824" gradientUnits="userSpaceOnUse">
<stop stop-color="#6D71C9"/>
<stop offset="1" stop-color="#232671"/>
</linearGradient>
<linearGradient id="paint38_linear_19_143" x1="521" y1="570" x2="521" y2="635" gradientUnits="userSpaceOnUse">
<stop stop-color="#21256F"/>
<stop offset="1" stop-color="#101238"/>
</linearGradient>
<linearGradient id="paint39_linear_19_143" x1="521" y1="570" x2="521" y2="635" gradientUnits="userSpaceOnUse">
<stop stop-color="#21256F"/>
<stop offset="1" stop-color="#101238"/>
</linearGradient>
<linearGradient id="paint40_linear_19_143" x1="521" y1="570" x2="521" y2="635" gradientUnits="userSpaceOnUse">
<stop stop-color="#21256F"/>
<stop offset="1" stop-color="#101238"/>
</linearGradient>
<linearGradient id="paint41_linear_19_143" x1="506.521" y1="570" x2="506.521" y2="641.029" gradientUnits="userSpaceOnUse">
<stop stop-color="#6F73CB"/>
<stop offset="1" stop-color="#1E216B"/>
</linearGradient>
<linearGradient id="paint42_linear_19_143" x1="454.412" y1="600.882" x2="454.412" y2="609.118" gradientUnits="userSpaceOnUse">
<stop stop-color="white"/>
<stop offset="1" stop-color="#F2CECE"/>
</linearGradient>
<linearGradient id="paint43_linear_19_143" x1="407.162" y1="570" x2="407.162" y2="641.029" gradientUnits="userSpaceOnUse">
<stop stop-color="#212570"/>
<stop offset="1" stop-color="#0F1034"/>
</linearGradient>
<linearGradient id="paint44_linear_19_143" x1="407.162" y1="570" x2="407.162" y2="641.029" gradientUnits="userSpaceOnUse">
<stop stop-color="#212570"/>
<stop offset="1" stop-color="#0F1034"/>
</linearGradient>
<linearGradient id="paint45_linear_19_143" x1="407.162" y1="570" x2="407.162" y2="641.029" gradientUnits="userSpaceOnUse">
<stop stop-color="#212570"/>
<stop offset="1" stop-color="#0F1034"/>
</linearGradient>
<linearGradient id="paint46_linear_19_143" x1="396.744" y1="570" x2="396.744" y2="641.029" gradientUnits="userSpaceOnUse">
<stop stop-color="#7175CE"/>
<stop offset="1" stop-color="#1A1D67"/>
</linearGradient>
<linearGradient id="paint47_linear_19_143" x1="391.97" y1="581.324" x2="391.97" y2="629.085" gradientUnits="userSpaceOnUse">
<stop stop-color="#21256F"/>
<stop offset="1" stop-color="#101237"/>
</linearGradient>
<linearGradient id="paint48_linear_19_143" x1="391.97" y1="581.324" x2="391.97" y2="629.085" gradientUnits="userSpaceOnUse">
<stop stop-color="#21256F"/>
<stop offset="1" stop-color="#101237"/>
</linearGradient>
<linearGradient id="paint49_linear_19_143" x1="391.97" y1="581.324" x2="391.97" y2="629.085" gradientUnits="userSpaceOnUse">
<stop stop-color="#21256F"/>
<stop offset="1" stop-color="#101237"/>
</linearGradient>
<linearGradient id="paint50_linear_19_143" x1="374.5" y1="573" x2="379.5" y2="614.5" gradientUnits="userSpaceOnUse">
<stop stop-color="#6E72CA"/>
<stop offset="1" stop-color="#20236E"/>
</linearGradient>
<linearGradient id="paint51_linear_19_143" x1="643.5" y1="285.5" x2="799.5" y2="387.5" gradientUnits="userSpaceOnUse">
<stop stop-color="#F14848"/>
<stop offset="1" stop-color="#FF9595"/>
</linearGradient>
<linearGradient id="paint52_linear_19_143" x1="60" y1="1260" x2="455.5" y2="1529.5" gradientUnits="userSpaceOnUse">
<stop stop-color="#FBD1D1"/>
<stop offset="1" stop-color="#FFEEED"/>
</linearGradient>
<linearGradient id="paint53_linear_19_143" x1="479" y1="1115" x2="2.64805e-05" y2="1113" gradientUnits="userSpaceOnUse">
<stop stop-color="#FFEDEC"/>
<stop offset="1" stop-color="#FDDFDF"/>
</linearGradient>
<linearGradient id="paint54_linear_19_143" x1="245.5" y1="1065" x2="288.5" y2="1129" gradientUnits="userSpaceOnUse">
<stop stop-color="#FFB88A"/>
<stop offset="1" stop-color="#FFD7AB"/>
</linearGradient>
<linearGradient id="paint55_linear_19_143" x1="192.806" y1="1041.14" x2="221.5" y2="1124.5" gradientUnits="userSpaceOnUse">
<stop stop-color="#FFB88A"/>
<stop offset="1" stop-color="#FFD7AB"/>
</linearGradient>
<linearGradient id="paint56_linear_19_143" x1="226.5" y1="1009" x2="226.5" y2="1069" gradientUnits="userSpaceOnUse">
<stop stop-color="#FFAD7F"/>
<stop offset="1" stop-color="#FFD9AD"/>
</linearGradient>
<linearGradient id="paint57_linear_19_143" x1="364" y1="999" x2="396" y2="1087" gradientUnits="userSpaceOnUse">
<stop stop-color="#C5D7F1"/>
<stop offset="1" stop-color="#90E1F2" stop-opacity="0"/>
</linearGradient>
<linearGradient id="paint58_linear_19_143" x1="382" y1="940" x2="382.487" y2="1003.71" gradientUnits="userSpaceOnUse">
<stop stop-color="#C5D7F1"/>
<stop offset="1" stop-color="#F0F8FA"/>
</linearGradient>
<linearGradient id="paint59_linear_19_143" x1="1653.5" y1="1250" x2="1489" y2="947" gradientUnits="userSpaceOnUse">
<stop stop-color="#FB644B"/>
<stop offset="1" stop-color="#FFB2A5"/>
</linearGradient>
<linearGradient id="paint60_linear_19_143" x1="1914" y1="1054.5" x2="1672" y2="1164" gradientUnits="userSpaceOnUse">
<stop stop-color="#FFB2A5"/>
<stop offset="1" stop-color="#FC6850"/>
</linearGradient>
<linearGradient id="paint61_linear_19_143" x1="1801.5" y1="817" x2="1658.5" y2="1262" gradientUnits="userSpaceOnUse">
<stop stop-color="#FC6A52"/>
<stop offset="1" stop-color="#FFB2A5"/>
</linearGradient>
<linearGradient id="paint62_linear_19_143" x1="1527.5" y1="1139" x2="1671.16" y2="1569" gradientUnits="userSpaceOnUse">
<stop stop-color="#FAD6D6"/>
<stop offset="1" stop-color="#FFEEED"/>
</linearGradient>
<linearGradient id="paint63_linear_19_143" x1="1527.5" y1="1139" x2="1671.16" y2="1569" gradientUnits="userSpaceOnUse">
<stop stop-color="#FAD6D6"/>
<stop offset="1" stop-color="#FFEEED"/>
</linearGradient>
<linearGradient id="paint64_linear_19_143" x1="1577" y1="1248" x2="1678" y2="1533.5" gradientUnits="userSpaceOnUse">
<stop stop-color="white"/>
<stop offset="1" stop-color="white" stop-opacity="0"/>
</linearGradient>
</defs>
</svg>
