<svg width="557" height="466" viewBox="0 0 557 466" fill="none" xmlns="http://www.w3.org/2000/svg">
<circle cx="233" cy="233" r="233" fill="url(#paint0_linear_19_493)"/>
<mask id="mask0_19_493" style="mask-type:alpha" maskUnits="userSpaceOnUse" x="0" y="0" width="466" height="466">
<circle cx="233" cy="233" r="233" fill="#E7E7E7"/>
</mask>
<g mask="url(#mask0_19_493)">
<rect x="87" y="104" width="201" height="386" rx="25" fill="#61185C"/>
<rect x="98" y="139" width="178" height="351" rx="15" fill="#DD5EAA"/>
<path d="M97.9999 360.868V313.822L269.899 141.924C273.6 144.655 276 149.047 276 154V182.868L97.9999 360.868Z" fill="url(#paint1_linear_19_493)"/>
<path d="M97.9999 401.581L276 223.581V342.619L128.619 490H113C104.716 490 97.9999 483.284 97.9999 475V401.581Z" fill="url(#paint2_linear_19_493)"/>
<path d="M306.531 320.525C310.306 312.741 310.3 301.672 316.823 294.256C324.977 284.986 339.446 286.713 340.101 290.351C340.626 293.262 337.606 294.412 336.031 294.624C340.852 295.32 349.502 295.462 354.236 290.622C360.152 284.572 362.894 292.835 359.589 295.075C361.67 293.665 367.846 291.753 368.649 295.248C369.332 298.222 365.692 301.409 363.391 302.718C365.711 301.774 368.754 301.552 369.191 304.804C369.826 309.53 349.652 321.713 327.635 316.579L324.158 327.751L306.531 320.525Z" fill="#FFDDB5"/>
<path d="M365.912 302.112C365.077 302.153 364.191 302.393 363.391 302.718C365.474 301.533 368.655 298.808 368.731 296.097C365.833 299.879 358.422 305.809 346.534 305.754C349.925 306.102 358.015 305.751 365.912 302.112Z" fill="#FDB790"/>
<path d="M338.212 293.913C339.408 293.263 340.423 292.139 340.101 290.351C340.087 290.273 340.066 290.195 340.04 290.118C337.329 292.462 331.798 295.363 328.635 296.845C331.771 296.187 334.365 295.39 336.326 294.665C336.227 294.652 336.128 294.638 336.031 294.624C336.311 294.586 336.637 294.519 336.981 294.417C337.431 294.242 337.842 294.073 338.212 293.913Z" fill="#FDB790"/>
<path d="M360.507 289.974C359.266 293.084 354.726 298.183 343.692 299.737C347.088 299.661 354.813 298.393 361.451 294.136C360.7 294.432 360.045 294.765 359.588 295.075C361.163 294.008 361.365 291.576 360.507 289.974Z" fill="#FDB790"/>
<path d="M208.228 305.612C202.515 302.502 202.016 292.748 202.404 288.218C193.733 281.1 176.708 271.692 180.661 288.218C184.424 303.944 178.343 309.535 173.37 311.633C163.212 313.13 153.738 317.256 145.109 322.928C145.831 332.816 147.43 356.786 148.047 373.559C148.035 394.381 142.374 406.546 145.109 419.983L148.047 460.751C148.24 463.735 147.862 458.317 148.047 460.751C184.078 471.002 226.735 474.047 245.631 469L252.879 394.525C261.421 413.162 283.552 418.819 288.6 410.665C306.072 393.581 323.932 350.651 331.697 321.143L306.848 311.436L280.834 373.559C280.834 373.559 280.834 374.944 268.41 352.981C256.647 325.535 228.856 312.953 212.525 307.337C211.551 307.003 210.634 306.687 209.781 306.389L209.695 306.401C209.217 306.147 208.728 305.884 208.228 305.612Z" fill="url(#paint3_linear_19_493)"/>
<path d="M223.276 311.517C219.388 309.814 215.735 308.441 212.525 307.337C211.551 307.003 210.634 306.687 209.781 306.389L209.695 306.401C209.397 306.242 209.093 306.08 208.786 305.914L197 326L179.143 307.051C177.503 309.41 175.349 310.798 173.37 311.633C171.801 311.864 170.248 312.158 168.711 312.511L200.243 388.534L223.276 311.517Z" fill="#D03A94"/>
<path d="M202.404 288.218C202.016 292.748 202.515 302.502 208.228 305.612C208.728 305.884 209.218 306.147 209.695 306.401L209.781 306.389C210.633 306.687 211.551 307.002 212.524 307.337C213.444 307.654 214.401 307.992 215.388 308.354L197.136 326.023L175.914 310.252C180.106 307.375 183.793 301.307 180.661 288.218C179.96 285.288 179.919 283.173 180.373 281.716L195.389 283.248C197.933 284.793 200.393 286.567 202.404 288.218Z" fill="#FFDDB5"/>
<path d="M180.915 289.334C181.163 290.48 181.357 291.569 181.501 292.605C186.703 296.041 195.029 299.974 203.733 299.829C202.401 296.208 202.194 291.915 202.347 289.054C200.016 287.898 197.599 286.84 195.5 286L180.915 289.334Z" fill="#FDB790"/>
<path d="M217.727 309.234C215.897 308.527 214.154 307.898 212.525 307.337C212.128 307.201 211.741 307.068 211.364 306.938L197.136 326.023L205 322L221.5 327L217.727 309.234Z" fill="#B8217B"/>
<path d="M172.174 311.822L174.5 329.5L188 323.5L197.136 326.023C192.196 321.181 181.403 313.323 176.434 309.876C175.428 310.641 174.376 311.209 173.37 311.633C172.97 311.692 172.572 311.755 172.174 311.822Z" fill="#B8217B"/>
<path d="M166.621 313.03C165.076 313.442 163.548 313.913 162.039 314.438C158.977 321.329 157.279 329.409 156.403 337.044C155.288 346.765 155.483 355.973 156.012 361.521L159.496 361.189C158.989 355.866 158.795 346.903 159.881 337.443C160.871 328.808 162.909 319.929 166.621 313.03Z" fill="#A24A9C"/>
<path d="M236.517 318.314C234.598 317.163 232.68 316.096 230.785 315.108C233.959 320.012 235.98 325.961 237.245 332.272C238.769 339.869 239.172 347.845 239.253 354.876C237.604 354.936 235.797 355.159 234.133 355.945C231.703 357.091 229.83 359.293 228.8 363.056C227.591 367.473 226.472 376.985 226.43 385.401C226.409 389.612 226.656 393.68 227.342 396.764C227.683 398.295 228.159 399.714 228.855 400.804C229.559 401.907 230.648 402.899 232.206 402.983L232.397 399.489C232.379 399.489 232.166 399.486 231.805 398.922C231.428 398.33 231.062 397.367 230.759 396.004C230.157 393.301 229.91 389.54 229.93 385.418C229.971 377.168 231.077 367.991 232.176 363.98C232.992 360.999 234.297 359.737 235.627 359.11C237.071 358.428 238.814 358.35 240.888 358.355C242.677 358.621 244.033 359.067 245.092 359.714C246.15 360.36 246.999 361.261 247.687 362.573C249.124 365.313 249.83 369.761 250.023 377.089C250.261 386.157 249.376 391.648 248.061 394.874C246.788 397.995 245.213 398.807 243.923 398.982L244.392 402.45C247.198 402.07 249.671 400.196 251.302 396.195C252.89 392.298 253.764 386.23 253.522 376.997C253.329 369.683 252.641 364.482 250.787 360.948C249.83 359.123 248.56 357.731 246.916 356.727C245.683 355.974 244.291 355.47 242.756 355.138C242.682 347.953 242.286 339.603 240.677 331.584C239.758 327 238.433 322.475 236.517 318.314Z" fill="#A24A9C"/>
<circle cx="8.93013" cy="8.93013" r="8.93013" transform="matrix(-1 0 0 1 167.849 359.026)" fill="url(#paint4_linear_19_493)"/>
<path d="M144.646 417.12C144.761 418.071 144.913 419.024 145.109 419.983L146.499 439.277C161.132 433.028 185.545 420.834 194.419 412.218L144.646 417.12Z" fill="#F1DBF0"/>
<path d="M201.428 465.688C202.433 465.637 203.432 465.581 204.424 465.519L202.907 418.77L199.908 418.867L201.428 465.688Z" fill="#E1C8E0"/>
<path fill-rule="evenodd" clip-rule="evenodd" d="M214.22 344.271C214.35 341.295 216.627 335.496 224.703 336.118C224.703 334.565 225.713 331.303 229.751 330.682C234.798 329.905 236.351 334.953 235.963 336.506C239.328 336.118 245.98 336.972 245.67 343.495C245.359 350.018 224.574 346.73 214.22 344.271ZM230.916 339.612C232.846 339.612 234.41 338.048 234.41 336.118C234.41 334.188 232.846 332.623 230.916 332.623C228.986 332.623 227.421 334.188 227.421 336.118C227.421 338.048 228.986 339.612 230.916 339.612Z" fill="#C4C4C4"/>
<rect x="200.243" y="341.942" width="52.8042" height="87.7482" rx="5" fill="#4D2525"/>
<rect x="203.349" y="341.942" width="52.8042" height="87.7482" rx="5" fill="#9D5555"/>
<path d="M200.926 374.497C194.026 378.297 188.209 387.401 186.163 391.479L186.012 408.798C188.705 409.4 195.447 409.816 200.879 406.667C207.668 402.732 205.071 397.637 210.327 397.664C215.582 397.69 220.44 400.267 221.589 396.391C222.509 393.29 216.767 390.585 214.103 390.111C216.582 390.359 221.771 389.717 222.075 386.754C222.379 383.792 215.477 382.353 211.744 381.315C214.309 381.945 220.205 382.233 220.817 379.202C221.581 375.412 209.552 369.747 200.926 374.497Z" fill="#FFDDB5"/>
<path d="M215.064 390.341C214.716 390.24 214.391 390.162 214.103 390.111C216.582 390.359 221.771 389.717 222.075 386.754C222.137 386.151 221.9 385.611 221.452 385.124C221.086 386.552 218.895 388.655 212 389C204 389.4 201.333 390.5 201 391C204.439 390.687 210.341 390.297 215.064 390.341Z" fill="#FDB790"/>
<path d="M191.573 409.192C194.471 409.06 197.876 408.408 200.879 406.667C204.208 404.737 205.28 402.529 206.128 400.782C207.009 398.967 207.649 397.65 210.327 397.664C211.947 397.672 213.529 397.922 214.976 398.151C217.609 398.568 219.796 398.914 220.954 397.603C219.641 397.869 218.008 397.753 216 397C208 394 203.5 398.5 202 403C200.8 406.6 193.833 407.833 190.5 408L191.573 409.192Z" fill="#FDB790"/>
<path d="M213.034 381.662C209.221 381.383 205.646 381.691 204 382C207.568 379.73 210.715 379.774 213.441 379.812C214.917 379.832 216.27 379.851 217.5 379.5C219.611 378.897 219.581 377.309 219.081 376.064C220.342 377.091 221.017 378.211 220.817 379.202C220.205 382.233 214.309 381.945 211.744 381.315C212.142 381.426 212.576 381.541 213.034 381.662Z" fill="#FDB790"/>
<path d="M109.777 388.534C114.125 352.813 135.143 329.905 145.109 322.917C160.018 325.091 147.438 356.308 148.603 392.028L190.148 383.098C183.935 393.969 190.665 407.041 194.807 412.218C188.206 415.324 170.346 423.245 151.709 430.078C128.413 438.62 104.341 433.184 109.777 388.534Z" fill="url(#paint5_linear_19_493)"/>
<path d="M148.215 391.64C144.482 391.05 147.956 371.579 148.215 363.296C146.791 370.803 142.391 391.562 142.391 395.911C142.391 400.259 172.676 391.64 185.489 386.981C177.723 388.275 155.592 392.805 148.215 391.64Z" fill="#F1DBF0"/>
<ellipse cx="188.983" cy="176.152" rx="23.6843" ry="22.1312" fill="#31062E"/>
<path d="M153.262 199.448C143.944 216.532 146.532 239.698 148.991 249.146C177.982 254.711 236.041 262.114 236.351 247.205C236.74 228.568 232.469 194.4 216.938 185.859C201.407 177.317 164.91 178.093 153.262 199.448Z" fill="#42083E"/>
<path d="M144.941 248.146C149.911 243.176 155.295 248.923 157.365 252.417L165.131 269.889C162.542 270.148 156.201 270.122 151.541 267.948C145.717 265.23 138.729 254.358 144.941 248.146Z" fill="#FDB790"/>
<path d="M238.025 246.593C233.056 241.623 227.672 247.369 225.601 250.864L217.836 268.336C220.424 268.595 226.766 268.569 231.425 266.395C237.249 263.677 244.238 252.805 238.025 246.593Z" fill="#FDB790"/>
<path d="M209.294 289.013C229.971 278.907 229.583 251.643 232.668 231.529C226.256 153.244 154.427 190.906 153.417 210.696C152.819 222.398 149.988 234.171 155.424 261.35C160.854 288.497 186.097 300.351 209.294 289.013Z" fill="#FFDDB5"/>
<mask id="mask1_19_493" style="mask-type:alpha" maskUnits="userSpaceOnUse" x="151" y="183" width="82" height="111">
<path d="M209.294 289.013C229.971 278.907 229.583 251.643 232.668 231.529C226.256 153.244 155.424 188.965 152.486 211.096C150.944 222.711 149.988 234.171 155.424 261.35C160.854 288.497 186.097 300.351 209.294 289.013Z" fill="#EEEEEE"/>
</mask>
<g mask="url(#mask1_19_493)">
<g filter="url(#filter0_f_19_493)">
<circle cx="229.5" cy="268.5" r="15.5" fill="#F86060"/>
</g>
<g filter="url(#filter1_f_19_493)">
<circle cx="155.5" cy="269.5" r="15.5" fill="#F86060"/>
</g>
</g>
<path d="M152.451 243.632C152.854 231.665 155.99 216.663 168.405 219.249C173.261 220.261 177.105 221.585 180.508 222.756C190.163 226.081 196.269 228.184 211.891 218.473C225.374 210.092 230.648 231.807 231.246 242.533C231.288 242.182 231.33 241.831 231.371 241.482C231.781 238.05 232.181 234.701 232.668 231.529C226.256 153.244 155.424 188.965 152.486 211.096C151.33 219.801 150.504 228.419 152.451 243.632Z" fill="#42083E"/>
<ellipse cx="4.6592" cy="6.60053" rx="4.6592" ry="6.60053" transform="matrix(-1 0 0 1 212.111 240.216)" fill="black"/>
<ellipse cx="4.6592" cy="6.60053" rx="4.6592" ry="6.60053" transform="matrix(-0.997682 0.068052 0.068052 0.997682 181.922 240.691)" fill="black"/>
<path d="M191.533 245.819C191.931 249.066 195.075 251.643 196.761 254.395C199.593 259.02 194.639 261.35 189.98 261.35" stroke="#FDB790" stroke-width="2" stroke-linecap="round" stroke-linejoin="bevel"/>
<path d="M180.851 266.234C192.416 272.792 202.77 267.916 206.502 264.659C205.812 271.025 202.948 279.774 195.583 280.207C182.382 280.984 181.067 270.646 180.851 266.234Z" fill="white"/>
<path d="M181.401 270.446C187.107 272.141 197.21 273.463 205.661 269.265C204.269 274.587 201.266 279.873 195.583 280.208C185.723 280.788 182.494 275.166 181.401 270.446Z" fill="#D25959"/>
<path d="M167.628 242.546C168.146 239.31 171.356 233.15 180.053 234.392M204.125 234.392C207.361 233.227 214.298 232.451 216.162 238.663" stroke="black" stroke-width="3" stroke-linecap="round"/>
<circle cx="187.5" cy="120.5" r="8.5" fill="#982E91"/>
</g>
<path d="M376 100C348.386 100 326 122.386 326 150V198C326 225.614 348.386 248 376 248H382.161C382.515 255.868 380.134 266.616 369.5 274C380.441 272.579 401.29 265.441 409.184 248H507C534.614 248 557 225.614 557 198V150C557 122.386 534.614 100 507 100H376Z" fill="#FB644B"/>
<rect x="361" y="146" width="83" height="10" rx="5" fill="#FAD6D6"/>
<rect x="361" y="174" width="168" height="10" rx="5" fill="#FAD6D6"/>
<defs>
<filter id="filter0_f_19_493" x="189" y="228" width="81" height="81" filterUnits="userSpaceOnUse" color-interpolation-filters="sRGB">
<feFlood flood-opacity="0" result="BackgroundImageFix"/>
<feBlend mode="normal" in="SourceGraphic" in2="BackgroundImageFix" result="shape"/>
<feGaussianBlur stdDeviation="12.5" result="effect1_foregroundBlur_19_493"/>
</filter>
<filter id="filter1_f_19_493" x="115" y="229" width="81" height="81" filterUnits="userSpaceOnUse" color-interpolation-filters="sRGB">
<feFlood flood-opacity="0" result="BackgroundImageFix"/>
<feBlend mode="normal" in="SourceGraphic" in2="BackgroundImageFix" result="shape"/>
<feGaussianBlur stdDeviation="12.5" result="effect1_foregroundBlur_19_493"/>
</filter>
<linearGradient id="paint0_linear_19_493" x1="233" y1="26.5" x2="233" y2="466" gradientUnits="userSpaceOnUse">
<stop stop-color="#FDDFDF"/>
<stop offset="1" stop-color="#FFEEED"/>
</linearGradient>
<linearGradient id="paint1_linear_19_493" x1="273" y1="163.5" x2="-51.9106" y2="499.446" gradientUnits="userSpaceOnUse">
<stop stop-color="#DD5EAA"/>
<stop offset="1" stop-color="#FFA8DC"/>
</linearGradient>
<linearGradient id="paint2_linear_19_493" x1="101" y1="493.5" x2="489.617" y2="-90.9731" gradientUnits="userSpaceOnUse">
<stop stop-color="#DD5EAA"/>
<stop offset="1" stop-color="#FFA8DC"/>
</linearGradient>
<linearGradient id="paint3_linear_19_493" x1="234.5" y1="332" x2="231.5" y2="486" gradientUnits="userSpaceOnUse">
<stop stop-color="#FEF9FD"/>
<stop offset="1" stop-color="#F8E6F7"/>
</linearGradient>
<linearGradient id="paint4_linear_19_493" x1="8.84863" y1="1.97437" x2="8.93013" y2="17.8603" gradientUnits="userSpaceOnUse">
<stop stop-color="#490E45"/>
<stop offset="1" stop-color="#81247A"/>
</linearGradient>
<linearGradient id="paint5_linear_19_493" x1="149.5" y1="335.5" x2="152" y2="442" gradientUnits="userSpaceOnUse">
<stop stop-color="#FFFAFE"/>
<stop offset="1" stop-color="#F9E9F8"/>
</linearGradient>
</defs>
</svg>
