<svg width="466" height="466" viewBox="0 0 466 466" fill="none" xmlns="http://www.w3.org/2000/svg">
<circle cx="233" cy="233" r="233" fill="url(#paint0_linear_19_407)"/>
<mask id="mask0_19_407" style="mask-type:alpha" maskUnits="userSpaceOnUse" x="0" y="0" width="466" height="466">
<circle cx="233" cy="233" r="233" fill="#E7E7E7"/>
</mask>
<g mask="url(#mask0_19_407)">
<ellipse cx="95.4962" cy="172.329" rx="50.2532" ry="60.3039" fill="#E6B193"/>
<path d="M66.8518 137.655C54.389 148.509 46.248 171.827 47.253 190.923C45.913 188.075 42.0267 177.154 45.2429 156.248C52.0465 112.025 87.9582 94.4367 120.623 116.548C150.272 136.619 147.09 171.994 144.242 187.405C141.227 167.806 134.895 158.258 127.658 144.187C118.613 126.599 82.4303 124.086 66.8518 137.655Z" fill="#31062E"/>
<ellipse cx="77.3716" cy="179.643" rx="6.23939" ry="8.31919" fill="black"/>
<path d="M85.6908 198.361C87.7706 206.681 100.249 210.84 104.409 198.361" stroke="black" stroke-width="4" stroke-linecap="round"/>
<ellipse cx="110.648" cy="179.643" rx="6.23939" ry="8.31919" fill="black"/>
<circle cx="75.8974" cy="179.867" r="13.0734" stroke="black" stroke-width="3"/>
<circle cx="112.08" cy="179.867" r="13.0734" stroke="black" stroke-width="3"/>
<path d="M88.4607 181.375C90.4003 179.099 95.3269 175.914 99.5164 181.375" stroke="black" stroke-width="3"/>
<path d="M52.7812 134.438C56.3832 120.288 65.474 114.482 69.2475 112.124C127.702 91.2244 138.714 139.881 138.714 157.297C108.252 163.828 80.9109 152.943 74.3931 146.956C74.8047 155.664 78.3381 161.469 80.0534 163.284C61.0144 160.562 49.7014 146.537 52.7812 134.438Z" fill="#42083E"/>
<path d="M188 351.664C188 486.206 147.482 469.327 97.5 469.327C47.5182 469.327 7 505.367 7 351.664C7 286.68 47.5182 234 97.5 234C147.482 234 188 286.68 188 351.664Z" fill="white"/>
<path d="M150.8 467.164C183.619 449.946 188 398.091 188 351.5C188 336.992 185.975 323.098 182.271 310.269C163.808 324.141 146.5 349.726 146.5 410.5C146.5 437.271 147.991 455.291 150.8 467.164Z" fill="#EBD5E8"/>
<path d="M127 406.5V445.5L65.5 420L96.5 398.5L127 406.5Z" fill="#0E3147"/>
<path d="M65.6114 241.502C62.3881 267.749 59.0165 312.04 60.267 366.966C61.9304 440.03 126.804 409.713 126.804 409.713C129.329 367.865 130.824 288.575 129.518 241.565C119.564 236.676 108.773 234 97.5 234C86.276 234 75.5292 236.653 65.6114 241.502Z" fill="#6DA8CD"/>
<path d="M88 267.5L76.5 412H116.5L102.5 266L88 267.5Z" fill="#CE4933"/>
<path d="M85.153 258.967C84.3657 262.923 86.6881 272.496 90.4671 274.395C95.1907 276.769 106 277 106 255.5L86.5 254.5L85.153 258.967Z" fill="#FB644B"/>
<path d="M129.549 241.581L109.5 265.5L96 254.5L81.5 265.5L66.2286 241.203C75.9746 236.544 86.5084 234 97.5 234C108.784 234 119.587 236.682 129.549 241.581Z" fill="#3581B1"/>
<path d="M80.7397 236.011L95.4286 255L112.981 235.712C107.951 234.587 102.778 234 97.5 234C91.7734 234 86.1711 234.691 80.7397 236.011Z" fill="#E5B193"/>
<path d="M140.832 248.319C142.984 249.846 145.082 251.482 147.123 253.223C149.296 257.899 151.062 262.834 152.482 267.669C155.65 278.456 157.149 288.925 157.558 295.305L154.251 295.553C153.855 289.376 152.391 279.124 149.288 268.561C147.221 261.523 144.449 254.426 140.832 248.319Z" fill="#A24A9C"/>
<path d="M157.919 309.032C163.165 309.032 167.419 304.779 167.419 299.532C167.419 294.286 163.165 290.032 157.919 290.032C152.672 290.032 148.419 294.286 148.419 299.532C148.419 304.779 152.672 309.032 157.919 309.032Z" fill="#52124E"/>
<path d="M43.9838 256.736C46.4538 254.38 49.0192 252.184 51.6712 250.158C47.1979 258.358 42.2418 270.064 40.6336 282.419C43.3742 283.268 46.2364 285.628 48.2323 289.928C50.7467 295.346 51.9625 303.925 50.1404 317.043L46.1784 316.493C47.9462 303.766 46.667 296.057 44.6041 291.612C42.6618 287.427 40.0973 286.218 38.6094 286.068C34.2367 287.229 24.1259 294.429 23.503 316.058L19.5046 315.943C20.1298 294.234 29.9743 284.868 36.5907 282.51C37.7232 273.192 40.6746 264.248 43.9838 256.736Z" fill="#A24A9C"/>
<path d="M47.9064 319.762C50.9427 319.849 53.4685 317.683 53.548 314.922C53.6275 312.162 51.2305 309.853 48.1942 309.766C45.1579 309.679 42.6321 311.845 42.5526 314.606C42.4731 317.366 44.8701 319.674 47.9064 319.762Z" fill="#52124E"/>
<path d="M23.4164 319.057C26.1767 319.136 28.4788 316.963 28.5583 314.203C28.6378 311.442 26.4646 309.14 23.7043 309.061C20.944 308.981 18.6419 311.154 18.5624 313.915C18.4829 316.675 20.6561 318.977 23.4164 319.057Z" fill="#52124E"/>
<circle cx="383.041" cy="124.757" r="23.7573" fill="#31062E"/>
<circle cx="383.125" cy="173.57" r="50.1254" fill="#FFD7A9"/>
<mask id="mask1_19_407" style="mask-type:alpha" maskUnits="userSpaceOnUse" x="333" y="123" width="101" height="101">
<circle cx="383.125" cy="173.57" r="50.1254" fill="#C4C4C4"/>
</mask>
<g mask="url(#mask1_19_407)">
<g opacity="0.5" filter="url(#filter0_f_19_407)">
<circle cx="418" cy="198" r="15" fill="#F28585"/>
</g>
<g opacity="0.5" filter="url(#filter1_f_19_407)">
<circle cx="347" cy="200" r="16" fill="#F28585"/>
</g>
<path d="M356.023 152.707C345.588 159.788 336.147 177.086 332.731 184.849L322.483 162.955L341.582 115.907L418.444 107.522C431.798 133.298 454.22 184.104 437.077 181.123C415.649 177.396 417.512 141.993 396.084 152.707C374.656 163.421 369.066 143.856 356.023 152.707Z" fill="#42083E"/>
</g>
<ellipse cx="365.774" cy="177.426" rx="5.7837" ry="7.7116" fill="black"/>
<path d="M373.486 194.777C375.414 202.488 386.981 206.344 390.837 194.777" stroke="black" stroke-width="4" stroke-linecap="round"/>
<ellipse cx="396.621" cy="177.426" rx="5.7837" ry="7.7116" fill="black"/>
<path d="M474 343C474 404.304 403.982 469.5 354 469.5C304.018 469.5 293 404.304 293 343C293 281.696 333.518 232 383.5 232C433.482 232 474 281.696 474 343Z" fill="white"/>
<path d="M330.444 463.456C300.378 445.933 293 393.163 293 343C293 332.448 294.2 322.241 296.443 312.571C297.282 313.289 298.14 314.016 299.014 314.756C318.76 331.468 346.344 354.815 334.5 440C333.274 448.82 331.918 456.604 330.444 463.456Z" fill="#EBD5E8"/>
<path d="M350.805 239.465C352.326 251.322 359.953 276.949 383 343.5C406.425 292.698 414.361 260.87 415.942 239.345C405.871 234.6 394.933 232 383.5 232C371.971 232 360.945 234.644 350.805 239.465Z" fill="#D03A94"/>
<path d="M346 250.5L381.363 262.577L419.5 247.5L412.922 237.998C403.698 234.11 393.8 232 383.5 232C374.208 232 365.242 233.718 356.803 236.909L346 250.5Z" fill="#B8217B"/>
<path d="M365.282 234.25L381.364 262.577L400.483 233.951C394.982 232.67 389.305 232 383.5 232C377.26 232 371.167 232.775 365.282 234.25Z" fill="#FFD7A9"/>
<path d="M422.44 242.772C423.886 243.619 425.311 244.511 426.714 245.448C428.531 251.98 429.457 258.992 429.828 265.692C430.448 276.918 429.516 287.452 428.457 293.757L425.181 293.244C426.206 287.138 427.123 276.823 426.515 265.831C426.082 257.991 424.877 249.899 422.44 242.772Z" fill="#A24A9C"/>
<path d="M425.672 307.204C430.78 308.402 435.893 305.233 437.091 300.125C438.29 295.017 435.12 289.904 430.012 288.706C424.904 287.507 419.792 290.677 418.594 295.785C417.395 300.893 420.564 306.005 425.672 307.204Z" fill="#52124E"/>
<path d="M334.338 249.79C335.967 248.495 337.632 247.263 339.331 246.095C336.923 255.26 334.785 268.722 336.527 281.916C339.394 282.03 342.768 283.572 345.805 287.212C349.631 291.798 353.018 299.775 354.64 312.919L350.67 313.408C349.097 300.656 345.873 293.538 342.734 289.775C339.778 286.232 336.989 285.725 335.512 285.964C331.587 288.213 323.674 297.776 328.649 318.834L324.756 319.754C319.763 298.618 326.86 287.03 332.645 283.047C330.972 271.162 332.33 259.103 334.338 249.79Z" fill="#A24A9C"/>
<path d="M353.182 316.122C356.138 315.423 358.02 312.678 357.385 309.991C356.75 307.304 353.839 305.691 350.883 306.389C347.927 307.088 346.045 309.832 346.68 312.52C347.315 315.207 350.226 316.82 353.182 316.122Z" fill="#52124E"/>
<path d="M329.338 321.754C332.026 321.119 333.69 318.426 333.055 315.738C332.42 313.051 329.727 311.387 327.039 312.022C324.352 312.657 322.688 315.35 323.323 318.037C323.958 320.725 326.651 322.389 329.338 321.754Z" fill="#52124E"/>
<path d="M332.419 388.215C332.419 490.032 291.937 477.259 242 477.259C192.063 477.259 151.581 504.532 151.581 388.215C151.581 339.038 192.063 299.172 242 299.172C291.937 299.172 332.419 339.038 332.419 388.215Z" fill="white"/>
<path d="M210.967 304.555C207.667 331.489 203.985 379.327 205.275 439.274C205.566 452.842 207.157 463.373 209.695 471.407C219.727 475.188 230.618 477.259 242 477.259C252.232 477.259 262.066 475.585 271.237 472.501C273.641 427.482 275.009 350.205 273.663 304.784C263.809 301.155 253.14 299.172 242 299.172C231.097 299.172 220.645 301.072 210.967 304.555Z" fill="#2BBFA5"/>
<path d="M210.535 304.711L239.945 329.577L274.879 305.687L274.682 305.166C264.546 301.295 253.525 299.172 242 299.172C230.935 299.172 220.334 301.129 210.535 304.711Z" fill="#47F1D3"/>
<path d="M223.717 300.993L239.945 329.576L259.181 300.777C253.618 299.723 247.875 299.172 242 299.172C235.737 299.172 229.622 299.799 223.717 300.993Z" fill="#FFC6B5"/>
<path d="M282.145 308.407C284.24 309.431 286.289 310.533 288.288 311.708C292.102 318.138 294.961 325.513 297.063 332.669C300.232 343.456 301.73 353.925 302.14 360.305L298.833 360.553C298.436 354.376 296.972 344.124 293.87 333.561C291.219 324.536 287.409 315.412 282.145 308.407Z" fill="#A24A9C"/>
<path d="M302.5 374.032C307.747 374.032 312 369.779 312 364.532C312 359.286 307.747 355.032 302.5 355.032C297.253 355.032 293 359.286 293 364.532C293 369.779 297.253 374.032 302.5 374.032Z" fill="#52124E"/>
<path d="M192.5 313.688C194.777 312.219 197.126 310.847 199.54 309.58C194.547 317.386 187.236 331.889 185.215 347.419C187.956 348.268 190.818 350.628 192.814 354.928C195.328 360.346 196.544 368.925 194.722 382.043L190.76 381.493C192.528 368.766 191.248 361.057 189.185 356.612C187.243 352.427 184.679 351.218 183.191 351.068C178.818 352.229 168.707 359.429 168.084 381.058L164.086 380.943C164.711 359.234 174.556 349.867 181.172 347.51C182.745 334.571 187.825 322.353 192.5 313.688Z" fill="#A24A9C"/>
<path d="M192.488 384.762C195.524 384.849 198.05 382.683 198.129 379.922C198.209 377.162 195.812 374.853 192.776 374.766C189.739 374.679 187.213 376.845 187.134 379.606C187.055 382.366 189.451 384.674 192.488 384.762Z" fill="#52124E"/>
<path d="M167.998 384.057C170.758 384.136 173.06 381.963 173.14 379.203C173.219 376.442 171.046 374.14 168.286 374.061C165.525 373.981 163.223 376.154 163.144 378.915C163.064 381.675 165.238 383.977 167.998 384.057Z" fill="#52124E"/>
<path d="M184.685 259.64C181.094 224.135 192.497 204.953 198.647 199.8C219.924 190.325 267.264 178.258 286.413 205.784C305.561 233.311 294.391 280.085 286.413 300.032C280.761 296.541 263.474 289.361 239.538 288.563C215.602 287.765 198.647 295.877 193.162 300.032C188.774 286.069 185.682 267.286 184.685 259.64Z" fill="#42083E"/>
<circle cx="240.707" cy="238.058" r="53.6588" fill="#FFC6B5"/>
<mask id="mask2_19_407" style="mask-type:alpha" maskUnits="userSpaceOnUse" x="187" y="184" width="108" height="108">
<circle cx="240.707" cy="238.058" r="53.6588" fill="#FFC6B5"/>
</mask>
<g mask="url(#mask2_19_407)">
<g filter="url(#filter2_f_19_407)">
<circle cx="200.642" cy="265.093" r="16.9547" fill="#F28585"/>
</g>
<g filter="url(#filter3_f_19_407)">
<circle cx="277.437" cy="265.093" r="16.9547" fill="#F28585"/>
</g>
</g>
<ellipse cx="222.133" cy="242.186" rx="6.1914" ry="8.2552" fill="black"/>
<path d="M230.388 260.76C232.452 269.015 244.834 273.143 248.962 260.76" stroke="black" stroke-width="4" stroke-linecap="round"/>
<ellipse cx="255.153" cy="242.186" rx="6.1914" ry="8.2552" fill="black"/>
<path d="M249.173 201.024C234.249 231.012 208.381 234.011 199.427 236.509L185 238.509C185 213.519 197.072 194.679 217.833 186.03C238.229 177.534 275.29 181.033 289.966 210.52C300.717 232.123 294.774 253.003 289.966 259C267.281 242.607 260.615 228.013 258.625 206.522C258.625 206.522 253.153 206.022 249.173 201.024Z" fill="#42083E"/>
</g>
<rect x="208" y="101" width="63" height="63" rx="15" fill="white"/>
<rect x="220.5" y="112.5" width="38" height="38" rx="7.5" stroke="#52124E" stroke-width="5"/>
<rect x="63" y="34" width="63" height="63" rx="15" fill="white"/>
<rect x="75.5" y="45.5" width="38" height="38" rx="7.5" stroke="#52124E" stroke-width="5"/>
<rect x="349" y="25" width="63" height="63" rx="15" fill="white"/>
<rect x="361.5" y="36.5" width="38" height="38" rx="7.5" stroke="#52124E" stroke-width="5"/>
<path d="M371 51.5L379.5 61.5L401 34" stroke="#34DD77" stroke-width="6" stroke-linecap="round" stroke-linejoin="round"/>
<defs>
<filter id="filter0_f_19_407" x="398" y="178" width="40" height="40" filterUnits="userSpaceOnUse" color-interpolation-filters="sRGB">
<feFlood flood-opacity="0" result="BackgroundImageFix"/>
<feBlend mode="normal" in="SourceGraphic" in2="BackgroundImageFix" result="shape"/>
<feGaussianBlur stdDeviation="2.5" result="effect1_foregroundBlur_19_407"/>
</filter>
<filter id="filter1_f_19_407" x="326" y="179" width="42" height="42" filterUnits="userSpaceOnUse" color-interpolation-filters="sRGB">
<feFlood flood-opacity="0" result="BackgroundImageFix"/>
<feBlend mode="normal" in="SourceGraphic" in2="BackgroundImageFix" result="shape"/>
<feGaussianBlur stdDeviation="2.5" result="effect1_foregroundBlur_19_407"/>
</filter>
<filter id="filter2_f_19_407" x="178.687" y="243.139" width="43.9094" height="43.9093" filterUnits="userSpaceOnUse" color-interpolation-filters="sRGB">
<feFlood flood-opacity="0" result="BackgroundImageFix"/>
<feBlend mode="normal" in="SourceGraphic" in2="BackgroundImageFix" result="shape"/>
<feGaussianBlur stdDeviation="2.5" result="effect1_foregroundBlur_19_407"/>
</filter>
<filter id="filter3_f_19_407" x="255.482" y="243.139" width="43.9094" height="43.9093" filterUnits="userSpaceOnUse" color-interpolation-filters="sRGB">
<feFlood flood-opacity="0" result="BackgroundImageFix"/>
<feBlend mode="normal" in="SourceGraphic" in2="BackgroundImageFix" result="shape"/>
<feGaussianBlur stdDeviation="2.5" result="effect1_foregroundBlur_19_407"/>
</filter>
<linearGradient id="paint0_linear_19_407" x1="233" y1="38.5" x2="233" y2="327.5" gradientUnits="userSpaceOnUse">
<stop stop-color="#FDDFDF"/>
<stop offset="1" stop-color="#FFEDEC"/>
</linearGradient>
</defs>
</svg>
