<svg width="466" height="466" viewBox="0 0 466 466" fill="none" xmlns="http://www.w3.org/2000/svg">
<circle cx="233" cy="233" r="233" fill="url(#paint0_linear_19_548)"/>
<mask id="mask0_19_548" style="mask-type:alpha" maskUnits="userSpaceOnUse" x="0" y="0" width="466" height="466">
<circle cx="233" cy="233" r="233" fill="#E7E7E7"/>
</mask>
<g mask="url(#mask0_19_548)">
<path opacity="0.4" d="M-14.5 398L154.5 3L360.5 16L380.5 588.5L-14.5 398Z" fill="url(#paint1_linear_19_548)"/>
<path d="M205.47 307.476C212.846 302.951 209.774 291.098 207.204 285.544C219.063 275.113 241.206 258.941 234.908 277.703C228.61 296.465 239.785 304.839 246.159 306.68C225.091 332.099 187.5 318.5 205.47 307.476Z" fill="#F9A370"/>
<path d="M233.465 283.341C232.44 289.342 233.39 294.038 235.262 297.612C223.969 297.876 214.261 293.633 208.927 290.221C208.707 289.453 208.466 288.717 208.217 288.025L230 282C231.099 282.401 232.269 282.852 233.465 283.341Z" fill="#DF824C"/>
<path d="M142.027 209.117C141.116 199.661 148.906 191.878 155.023 192.796C187.43 183.313 255.947 174.64 265.128 178.176C276.605 182.597 278.208 188.813 278.894 195.939C279.661 203.902 279.008 214.513 276.332 216.278C276.332 216.278 283.137 219.139 283.856 226.604C284.581 234.136 278.632 240.167 275.598 239.957C275.798 250.386 271.848 258.401 263.196 257.225C258.03 281.834 199.874 267.341 188.791 277.45C179.926 285.536 175.376 277.234 172.29 273.011C164.566 276.266 162.68 270.587 162.163 266.953C162.163 266.953 156.369 267.209 154.218 262.695C151.7 257.412 156.887 253.899 156.887 253.899C149.824 253.574 141.536 245.753 140.489 234.883C139.675 226.422 143.531 219.521 146.469 218.735C146.469 218.735 142.65 215.587 142.027 209.117Z" fill="#42083E"/>
<path d="M156.082 241.363C161.386 234.557 168.478 241.153 171.361 245.302L182.699 266.342C179.654 266.963 172.116 267.656 166.317 265.46C159.069 262.715 149.451 249.87 156.082 241.363Z" fill="#DF824C"/>
<path d="M269.653 229.341C263.168 223.88 257.442 231.468 255.389 235.944L248.204 258.03C251.309 258.048 258.842 257.291 264.124 254.12C270.726 250.156 277.76 236.167 269.653 229.341Z" fill="#DF824C"/>
<path d="M239.771 283.842C263.122 269.137 261.087 235.327 260.751 210.969C243.937 116.098 163.121 170.299 164.249 194.583C164.916 208.942 162.941 223.643 172.588 256.213C182.223 288.746 213.575 300.339 239.771 283.842Z" fill="url(#paint2_linear_19_548)"/>
<path d="M223.815 231.611C224.265 236.284 227.303 239.814 230.602 239.497C233.9 239.179 236.209 235.134 235.759 230.461C235.31 225.788 232.271 222.257 228.972 222.575C225.674 222.893 223.365 226.938 223.815 231.611Z" fill="black"/>
<path d="M191.393 236.379C192.162 241.025 195.445 244.351 198.724 243.808C202.004 243.265 204.039 239.058 203.269 234.412C202.5 229.766 199.218 226.44 195.938 226.983C192.659 227.526 190.624 231.733 191.393 236.379Z" fill="black"/>
<path d="M183.216 230.471C183.25 225.612 186.144 216.024 197.446 216.543M224 214.5C228.951 212.014 239.028 210.89 240.5 222" stroke="black" stroke-width="3" stroke-linecap="round"/>
<path d="M212.842 240.887C208.648 243.129 208.556 250.473 208.534 252.945C211.715 237.291 218.75 241.377 222.469 251.603C221.762 244.262 217.673 238.305 212.842 240.887Z" fill="#D5733A"/>
<path d="M234.826 256.468C224.124 253.551 206.141 256.743 198.474 260.595C198.393 265.694 206.215 279.842 216.309 278.87C230.742 277.481 234.644 263.788 234.826 256.468Z" fill="#D25959"/>
<path d="M231.634 268.643C217.959 264.581 209.047 268.797 204.571 273.194C207.68 276.68 211.764 279.308 216.309 278.871C224.183 278.112 228.923 273.692 231.634 268.643Z" fill="#F27A7A"/>
<path d="M199.143 264.02C198.693 262.684 198.46 261.498 198.474 260.595C206.141 256.743 224.124 253.551 234.826 256.468C234.796 257.696 234.661 259.103 234.389 260.601C223.482 257.664 207.343 261.342 199.143 264.02Z" fill="white"/>
<path d="M191.737 191.589C187.803 209.291 169.328 213.338 160.582 213.149C154.477 212.499 155.949 208.611 157.448 206.748C153.495 204.036 144.423 195.816 144.943 187.237C145.526 177.637 152.11 172.984 159.222 173.807C158.632 167.676 159.859 159.893 172.542 150.422C185.225 140.952 198.376 145.489 203.742 148.925C204.676 146.429 208.942 141.625 219.2 139.4C229.459 137.174 237.19 145.451 240.244 149.281C242.717 143.665 248.186 143.176 252.413 145.243C256.64 147.311 259.15 152.999 258 155C263.949 157.521 270.612 167.805 266.323 181.829C262.034 195.853 250.399 190.752 245.117 186.449C245.396 189.344 243.119 196.025 231.781 199.591C220.443 203.158 209.508 191.384 207.288 185.755C207.751 187.085 208.198 195.211 203.118 196.705C196.671 198.601 194.243 194.956 191.737 191.589Z" fill="#42083E"/>
<path d="M313.825 138.242C315.425 143.042 313.158 151.242 311.825 154.742L335.325 156.742C335.658 152.075 336.825 142.042 338.825 139.242C340.825 136.442 341.991 133.409 342.325 132.242C343.158 132.742 345.425 133.442 347.825 132.242C350.825 130.742 353.325 112.742 350.825 109.242C348.825 106.442 345.991 107.409 344.825 108.242C344.825 107.003 344.125 104.168 341.325 102.742C338.525 101.316 335.491 103.336 334.325 104.524C334.491 103.597 333.625 101.442 328.825 100.242C324.025 99.0419 321.491 102.597 320.825 104.524C316.09 102.523 310.538 101.817 308.825 107.242C305.825 116.742 311.825 132.242 313.825 138.242Z" fill="#F9A370"/>
<path d="M306.721 146.275L296 249.842L327.951 251.605L342.167 148.231C336.978 155.156 316.374 149.813 306.721 146.275Z" fill="url(#paint3_linear_19_548)"/>
<path d="M316.959 103.293C323.11 105.301 332.436 108.703 332 113.5C331.752 116.225 323.888 116.605 318.488 116.866C317.571 116.911 316.725 116.952 316 117C323.5 118.5 333 117.5 333 113C333 110.052 329.982 105.897 321.201 103.665C321.04 103.971 320.915 104.262 320.825 104.524C319.565 103.992 318.247 103.551 316.959 103.293Z" fill="#DF824C"/>
<path d="M317.961 119.235C317.791 126.2 317.495 138.347 327 140C336.486 141.65 339.168 133.661 340.658 129.221C340.975 128.279 341.237 127.496 341.5 127L336.5 128.5L334.5 126.5L332.5 123.5L330 126L325.5 125L322 118.5V117H318C318 117.655 317.982 118.408 317.961 119.235Z" fill="url(#paint4_linear_19_548)"/>
<path d="M331.59 101.215C332.746 102.949 333.746 105.559 333.5 109C333.459 109.58 333.42 110.186 333.379 110.809C332.936 117.702 332.362 126.605 327 124C322 121.571 322.5 117 322.5 117H321.5C321.552 117.309 321.599 117.655 321.65 118.025C321.929 120.047 322.309 122.809 324 124.5C325.5 126 330 127.5 333 125C334 127.333 336.5 131.8 340.5 129C340.918 130.463 341.563 131.611 342.552 132.365C343.522 132.842 345.617 133.346 347.825 132.242C350.825 130.742 353.325 112.742 350.825 109.242C350.07 108.186 349.198 107.666 348.34 107.472C349.195 108.402 350.06 109.739 350.5 111.5C351.5 115.5 349.5 126 348 129C347.051 130.897 340.5 132.5 342.5 126.5C343.354 122.089 344.572 113.182 344.91 108.183C344.881 108.202 344.852 108.222 344.825 108.242C344.825 107.003 344.125 104.167 341.325 102.742C341.068 102.611 340.81 102.51 340.551 102.433C341.811 103.392 342.928 104.784 343.5 106.5C344.5 109.5 342.598 125.291 340 126C334.5 127.5 333.444 124.562 334 119C334.391 115.087 334.476 108.927 334.495 104.357C334.434 104.414 334.378 104.47 334.325 104.524C334.452 103.814 333.974 102.385 331.59 101.215Z" fill="#DF824C"/>
<path d="M84.0769 198.024C85.1006 202.979 91.1749 208.935 94.0841 211.294L74.7581 224.813C72.1287 220.943 66.0863 212.849 62.9516 211.43C59.8168 210.011 57.2859 207.972 56.4123 207.13C55.9423 207.981 54.3326 209.723 51.6544 209.889C48.3067 210.097 37.1145 195.779 37.5214 191.497C37.847 188.072 40.783 187.487 42.2102 187.623C41.5885 186.55 40.7719 183.747 42.479 181.109C44.186 178.471 47.8232 178.696 49.4284 179.139C48.8191 178.42 48.4879 176.122 52.0383 172.676C55.5887 169.23 59.5634 171.034 61.107 172.367C64.1993 168.261 68.6477 164.865 72.8513 168.698C80.2122 175.412 82.7972 191.83 84.0769 198.024Z" fill="#F9A370"/>
<path d="M94.2521 201.41L155.48 285.625L128.724 303.178L64.5695 220.883C72.5323 224.27 87.6757 209.312 94.2521 201.41Z" fill="url(#paint5_linear_19_548)"/>
<path d="M63.8333 169.363C59.5195 174.185 53.1587 181.806 55.9423 185.737C57.5233 187.97 64.517 184.354 69.3202 181.871C70.1354 181.45 70.8874 181.061 71.5392 180.739C65.8036 185.799 57.0838 189.699 54.8264 185.807C53.3475 183.256 53.8737 178.148 60.3507 171.812C60.6429 171.996 60.8973 172.186 61.107 172.367C61.9298 171.274 62.8486 170.232 63.8333 169.363Z" fill="#DF824C"/>
<path d="M70.2904 183.922C74.1295 189.735 80.826 199.874 73.6461 206.318C66.5955 212.647 61.193 207.903 57.9244 205.033C57.1659 204.367 56.5223 203.802 55.9997 203.5L59.4919 201.611L60.126 198.855L60.2296 195.251L63.4997 195.5L66.9589 192.808L66.9997 186V183.5L69.0716 182.048C69.4189 182.602 69.8345 183.232 70.2904 183.922Z" fill="url(#paint6_linear_19_548)"/>
<path d="M50.1346 174.905C50.0043 176.984 50.4486 179.744 52.3873 182.597C52.5033 182.768 52.6207 182.941 52.7395 183.116C56.6554 188.889 61.9738 196.73 65.4999 191.499C68.6069 186.889 65.9162 184 65.9162 184L66.7813 183.498C66.8919 183.792 67.024 184.114 67.1655 184.46C67.9389 186.349 68.9953 188.93 68.3809 191.24C67.8358 193.29 64.6954 196.845 60.8461 196.187C61.1515 198.708 61.2295 203.826 56.3646 203.41C56.7368 204.885 56.7549 206.202 56.2774 207.351C55.6774 208.25 54.1179 209.737 51.6544 209.889C48.3067 210.096 37.1145 195.779 37.5214 191.497C37.6442 190.205 38.1383 189.318 38.7827 188.72C38.5095 189.953 38.4325 191.543 38.9351 193.288C40.0766 197.25 48.2154 205.657 51.018 207.5C52.7905 208.665 58.1203 206.438 53.3803 202.251C50.4289 198.863 44.9073 191.77 42.1069 187.614C42.1421 187.616 42.1766 187.619 42.2102 187.622C41.5885 186.55 40.7719 183.747 42.479 181.109C42.6353 180.867 42.8079 180.65 42.9936 180.454C42.3844 181.915 42.1165 183.68 42.4824 185.451C43.1222 188.548 53.8973 201.69 56.4999 201C62.0103 199.538 60.2427 196.032 56.9711 191.499C54.6696 188.31 51.5063 183.024 49.1978 179.08C49.2786 179.099 49.3556 179.119 49.4284 179.139C48.9619 178.589 48.6585 177.113 50.1346 174.905Z" fill="#DF824C"/>
<path d="M221 312C196.2 317.2 158 275.667 139.5 258C133.1 266.4 120.5 280.5 105 282L174.642 356.056C175.514 356.984 176 358.209 176 359.482V471.5C213.2 476.7 292.167 465.5 325.5 453L289.5 335.5C301.5 317.9 328.5 265.5 335.5 240H294.5C279 283 258 304.242 221 312Z" fill="url(#paint7_linear_19_548)"/>
<g style="mix-blend-mode:multiply" opacity="0.3">
<path d="M321.722 440.668C298.227 456.096 217.918 464.209 201.5 456C187.942 449.221 188.377 396.962 188.602 369.992C188.659 363.146 188.702 357.93 188.5 355.5C187.736 346.332 140.699 302.991 114.113 279.657C111.215 280.861 108.168 281.694 105 282L174.642 356.056C175.514 356.984 176 358.209 176 359.482V471.499L281.939 464.182C299.252 460.928 314.749 457.032 325.5 453L321.722 440.668Z" fill="#2A87C6"/>
</g>
<circle cx="260.5" cy="-14.5" r="110.5" fill="#FFD5A8"/>
</g>
<defs>
<linearGradient id="paint0_linear_19_548" x1="238" y1="25" x2="233" y2="466" gradientUnits="userSpaceOnUse">
<stop stop-color="#FDDFDF"/>
<stop offset="1" stop-color="#FFEDEC"/>
</linearGradient>
<linearGradient id="paint1_linear_19_548" x1="213" y1="19" x2="141" y2="372.5" gradientUnits="userSpaceOnUse">
<stop stop-color="#FFFCDF"/>
<stop offset="1" stop-color="#FFEBEA"/>
</linearGradient>
<linearGradient id="paint2_linear_19_548" x1="207.392" y1="157.615" x2="222.5" y2="275" gradientUnits="userSpaceOnUse">
<stop offset="0.237228" stop-color="#DF824C"/>
<stop offset="1" stop-color="#FFAA79"/>
</linearGradient>
<linearGradient id="paint3_linear_19_548" x1="321.948" y1="147.115" x2="316.219" y2="250.958" gradientUnits="userSpaceOnUse">
<stop stop-color="white"/>
<stop offset="1" stop-color="#BBCDE3"/>
</linearGradient>
<linearGradient id="paint4_linear_19_548" x1="329.5" y1="124" x2="329.25" y2="136.579" gradientUnits="userSpaceOnUse">
<stop stop-color="#DF824C"/>
<stop offset="1" stop-color="#F9A370"/>
</linearGradient>
<linearGradient id="paint5_linear_19_548" x1="81.5011" y1="209.775" x2="138.548" y2="296.733" gradientUnits="userSpaceOnUse">
<stop stop-color="white"/>
<stop offset="1" stop-color="#BBCDE3"/>
</linearGradient>
<linearGradient id="paint6_linear_19_548" x1="63.0379" y1="194.083" x2="69.9239" y2="204.613" gradientUnits="userSpaceOnUse">
<stop stop-color="#DF824C"/>
<stop offset="1" stop-color="#F9A370"/>
</linearGradient>
<linearGradient id="paint7_linear_19_548" x1="235.5" y1="282" x2="264" y2="455.5" gradientUnits="userSpaceOnUse">
<stop stop-color="#93C4E6"/>
<stop offset="1" stop-color="#2986C6"/>
</linearGradient>
</defs>
</svg>
